<?xml version="1.0" encoding="utf-8"?>
<!-- Generator: Adobe Illustrator 27.3.1, SVG Export Plug-In . SVG Version: 6.00 Build 0)  -->
<svg version="1.1" id="Warstwa_1" xmlns="http://www.w3.org/2000/svg" xmlns:xlink="http://www.w3.org/1999/xlink" x="0px" y="0px"
	 viewBox="0 0 640 480" style="enable-background:new 0 0 640 480;" xml:space="preserve">
<style type="text/css">
	.st0{fill:#32725E;stroke:#8D79FF;stroke-miterlimit:10;}
	.st1{fill:#FFFFFF;stroke:#005F59;stroke-width:2;stroke-miterlimit:10;}
	.st2{fill:#FFFFFF;}
</style>
<g>
	<path class="st0" d="M534.5,248.5C534.5,368.6,437.1,466,317,466S99.5,368.6,99.5,248.5C99.5,128.3,196.9,31,317,31
		C437.1,31,534.5,128.4,534.5,248.5z"/>
	<path class="st1" d="M535,249.4c0,120.4-97.6,218-218,218s-218-97.6-218-218s97.6-218,218-218S535,129,535,249.4z M359.7,94.9
		l1.6-0.1l0.9-0.5l1.9,0.6l0.4-1l-2.1-1.3l-1,0.9l-1.2,0.5l-1.5,0.3l-1.8,0.2l0.3-1.4l-1.1-0.9l-1.8-0.6l-1.1,0l0,1l-0.4,0.8
		l1.1,0.9l-0.1,1.3l1.2,0.1l-0.4,0.7l1.4,0.6l-0.6,0.7l0.2,1.4l0.1,0.1l1.5,0.2l2.4,0.1l1.8-0.5l0-1l1,0.9l1.7,0.1l1.8-0.4l1.9-0.8
		l-1.9-0.5l-1.9-0.7l-2-0.7l-1.5-0.2L359.7,94.9L359.7,94.9z M440.1,129.9l1.4,0.2l0.1-0.9l-1-0.6l-0.7,0.4L440.1,129.9
		 M439.6,127.5l1.6,0.6l0.3-0.8l-0.4-1.2l-0.6,0.1l-0.7-1l-1.3-0.4l0.6,1.3L439.6,127.5L439.6,127.5z M442.3,129.1l0.8-0.1l-0.2-0.9
		l-0.5-0.7l-0.3,0.6L442.3,129.1 M434,114.4l1.3,0.3l-0.7-1l-1.3-0.5l-0.8-0.9l0.6,1.3L434,114.4z M481,176.9l0.5-0.8l0.8-0.2
		l-0.7-1.7l-0.9,0.4L481,176.9 M533.4,257.5l0.1-0.5l0-1.4l-0.1,0.2L533.4,257.5 M320.7,467.3l-0.2,0l0.5,0l-0.9,0l-1.2,0l-0.7,0
		 M295.5,244.8l1.7,0.8l1.3,0.8l0.6-1.6l-1.6,0.2L295.5,244.8 M319.7,467l-0.5,0.1l0,0.1l-0.5,0.1l1.6,0l0.7-0.1l-0.5,0l1-0.1
		l-0.2-0.1L319.7,467L319.7,467z M365.8,370.2l2.1-0.4l0.9-0.9l-0.1-1.6l-2.4,0.7l0.6,0.2l0.1,1.3L365.8,370.2L365.8,370.2z
		 M338.7,366l1.2,0.8 M288.4,333.7l0.4,0.6l-0.4,0.4l0.8,0.2l1.2-0.2l-0.5-1.1l-0.7-0.6L288.4,333.7 M364.6,350.1l0.4,1l0.5-0.9
		l0.9-0.1l-0.7-0.7l-0.2,0.9L364.6,350.1z M367.3,354.4l1.3,0.9 M321.6,338.1l1.8,0l0.6-1.4l-0.6,0.9l-1.2-0.3L321.6,338.1
		 M307.3,318.2l-0.4-0.7l-1,0l-1.6,0.5l-1-0.8 M309,320.1l0.7-1.8l-1.6-1.5 M313,324.9l0-1.6l-2-1.4 M314.5,324.9l1.3,1.8
		 M315.8,328.4l1.6,2.8 M319.7,333.6l1.3-1.3l-1.8-0.9 M323.4,332.8l1.4,0.3 M329.4,335.2l-2.2-0.7l-1.3,0.9 M293.3,324.3l1.8-0.3
		 M313.7,286.6l1.3-0.6l0.5-1.2 M319.8,265.8l1.9-0.4l1.9-0.4l1.9-1l-1-0.6l-1.4,0.7l-1.4,0.3l-1.7,0.4L319.8,265.8 M306.3,206.1
		l1.2-0.2l-1.5,1.4l1.2,0.1l0.8-0.9l-0.1,1.6l0.7-2.1l-0.5-1L306.3,206.1L306.3,206.1z M300.9,218l1.3,0.7l1.5,0.7l-0.4-1.6
		l-0.9-0.4L300.9,218z M311,143.8l-0.5,1.1l0.2,1.5l1.4,0.6l1.2-0.5l1.8,0.4l0.2-1l-0.3-1.4l-1.1-0.7l-1.5-0.2L311,143.8
		 M303.9,122.2l0.4,1l0,1.3l-0.8,1l-0.3,1.4l0.6,1.3l2.1,0.4l1.2-1l1-1.4l1.1-0.6l0.3-1.2l-1.1-0.5l0.7-1.2l-0.3-0.8l-1.3-0.5
		l-0.3-1l0.1-1.4l-0.9-0.2l-0.6,1.3l-1.2,0.9L303.9,122.2L303.9,122.2z M301,121.7l0.9,0.8l-0.1-1.4L301,121.7 M299.4,128.8l1.1,1
		l1.4,0.8l0.9-0.5l0.1-0.7l-1.9-0.5L299.4,128.8 M293.1,126.6l-0.7,1.5l0.8,0.7l0.2-1.2l0.5-1L293.1,126.6 M289,134.3l1,0.4l0-1.2
		L289,134.3 M289,122.4l1.2,0.5l0.3,0.7l1,0.4l0.8-0.3l-0.7-1.1l-1.5-0.5L289,122.4 M287.2,122.7l-0.1,0.8l0.6,0.1l0.7-0.9
		L287.2,122.7 M288,123.8l-0.6,1l0.8,0.8l1.6-0.1l1.1-1.2l-0.7-0.3l-1.1,0L288,123.8L288,123.8z M278.8,127l0.4,0.7l1-0.5l1.2-0.8
		l-1.4,0.1L278.8,127 M208.2,79.3l-2.5,1.4 M195.3,90.3l-0.8,0.8l-0.1,0.6l0.9-0.9L195.3,90.3 M184.7,106.4l0.5,0.2l0.6-0.8
		L184.7,106.4L184.7,106.4z M184.4,108.2l0,0.9l0.7-0.9L184.4,108.2z M184.7,111.1l0.1,0.7l0.7-0.1 M185.1,119.4l1.1,0.7l0.4,0.3
		l0.8-0.4l-0.2-0.7C187.3,119.4,185.1,119.4,185.1,119.4z M186.6,120.9l0.5,0.8l0.6,0.6l0.9-0.5l0.1-1.2l-1,0.5L186.6,120.9z
		 M220.7,102.7l-1.2,0.3l0.1,1.1l-1.3,1.5l0.7,0.9l0.4-1.3l0.9-1L220.7,102.7z M208.4,111.9l-0.9,1.1l-0.3,1l0.5,0.7l0.8-0.3
		l0.3-0.9l-0.2-0.8C208.6,112.7,208.4,111.9,208.4,111.9z M200.6,134l-1.3,2l1,0.5l1.2-0.1l0.9,0.8l0.9-1l0.1-0.9l1.2,0.8l0.6-1.1
		l-1.4-0.4l-1.3-0.3L200.6,134L200.6,134z M382.4,123.9l-0.6-1.4 M362.6,121.3l1.2,0.9l0.3-0.6L362.6,121.3z M501.3,132.3l-0.6-0.9
		l-0.3-0.5l-0.2-0.3l0.1,0.3l0.3,0.6l-0.4-0.4l-0.5-0.6l-0.3-0.3l-0.1,0.1l-0.4-0.2 M476.3,99.9l0.5,0.6l-1.3-1.4l-1.1-1.2l-1.4-1.4
		l-0.2-0.2l-0.2-0.2l-1.1-1.1 M396.9,46.8l-0.5-0.3l-0.1-0.2l-1.4-0.4l-0.3,0l-1.6-0.6l-1.3-0.4l-2.1-0.8l-1.7-0.7l-1.4-0.5
		l-1.2-0.5l-1.9-0.6l-1.6-0.4l1.2,0.4l1.2,0.4l1.1,0.4l1.3,0.4l1,0.4l1.6,0.6l2,0.8l1,0.5l1.8,0.6l1.5,0.5L396.9,46.8 M217.1,55.6
		l-0.5,0.2l-0.6,0.4l-1.4,0.8l-0.8,0.6l-0.6,0.5l1.1-0.7l0.4-0.1l0.8-0.4l0.2,0.2l0.8-0.7l1.2-0.7l1.5-0.8l1.8-0.8l1.1-0.5l1.4-0.6
		l1.4-0.6l0.5-0.4l-1.3,0.5l-0.5,0.1l-0.3,0l0.3-0.3l-0.7,0.2C222.9,52.6,217.1,55.6,217.1,55.6z M214.6,57.5l-0.3,0.3l-0.3,0.3
		 M212.7,59l-0.6,0.6l-0.7,0.7l-0.5,0.6l0.5-0.5l0.9-0.6l0.4-0.5L212.7,59L212.7,59z M210,61.7l-0.5,0.4l-0.3,0.6l0.6-0.6
		C209.8,62.1,210,61.7,210,61.7z M208.1,64.1l-0.1,0.4 M209.7,67.1l-0.6,0.1l-0.6,0.8l0.3,0.2l0.6-0.1l-0.1-0.4
		C209.3,67.7,209.7,67.1,209.7,67.1z M249.8,47.7l-1,0.2l-0.2,0.5l1.3-0.4C249.9,48,249.8,47.7,249.8,47.7z M219.8,75.1l0.1,1.2
		l0.9-0.3l0.1-0.7C220.8,75.4,219.8,75.1,219.8,75.1z M238.9,51.4l-1.2,0l-0.6-0.2l-0.9,0l-1.2,0.3l-0.9,0.1l-0.7-0.1l-1,0.1l-0.9,0
		l-0.6,0l-0.2-0.1l-0.8,0.2l-1.2,0.3l-0.4-0.1l-1,0.1l-0.2-0.2l-1.6,0.5l0.3,0.1l-0.3,0.3l-1,0.5l-1.4,0.6l0.9-0.2l1-0.4l0.7-0.2
		l1.1-0.4l0.9-0.3l0.7,0l0.2,0.2l0.4,0l-0.2,0.3l-1,0.5l-1.6,0.7l1.1-0.3l1.4-0.3l1.4-0.3l1.2-0.2l1.2-0.2l1.4-0.3l0.8,0.1l0.9,0
		l1.2-0.1l1.1,0l1.1-0.2l0.6-0.4l-1.2,0.2l0-0.3L238.9,51.4L238.9,51.4z M250.1,90l-1-1l-1.1,0.2l0.2,1 M248.2,90.1l-0.6,0.7
		l0.5,1.4l1.5-0.8l0.5-1.5C250.1,90,248.2,90.1,248.2,90.1z M280.8,65.4l-1.4,0.1l-1.9,0.8l0.7,0.4l2,0l0.9-0.7L280.8,65.4
		L280.8,65.4z M282.7,66.2l-0.8-0.4l-0.4,0.4l0.5,0.3L282.7,66.2 M280.9,70.8l-1.8-0.3l-2.3,0.6l-0.9,0.6l0.8,0.7l1.6-0.7l1.6-0.8
		L280.9,70.8z M382.7,74.1l-1.5-0.9l-1.2-0.1l-0.1,1.1l1.5,0.4L382.7,74.1 M345.1,79.6l-0.8-0.6l-1.5-0.1l-0.8-0.8l-0.7,0l-1.1,0.7
		l-0.4-0.6l-1.1-0.1l-0.7,0.9l1.4,0.1l0.9-0.2l1.5,0.6l1.1-0.4l0.8,0.7L345.1,79.6 M343.9,81.1l-0.3-0.9l-1.4-0.5l-0.2,0.5l-1.4,0.1
		l-1,0.7l1.7,0.1l1.1-0.5l0.6,0.5L343.9,81.1 M345.9,80.8l-0.8-0.6l-0.2,0.6L345.9,80.8 M348.1,84.3l0.1-0.6l-0.4-0.5l0.8-0.2
		l-0.1-0.7l-0.8-0.5l-0.9,0.3l-1.2-0.1l0,0.4l1.5,0.6l-0.6,0.2l-0.2,0.5L348.1,84.3 M411.4,140.2l0.6-0.4l-0.8-1.5l-0.4,1.2
		L411.4,140.2 M421.7,137l-1.3-0.8l0.4,0.8 M423.1,141.3l1-0.2 M425.2,150.1l-0.6-2.1l-1.3-1.5l0.4,1.8l1,0.8L425.2,150.1
		 M430.7,108l0.7-0.2l-0.8-0.9l-0.8-0.9l-0.2,1L430.7,108 M428.8,106.7l0.5,0.1l-0.5-0.9l-0.7,0.4L428.8,106.7 M488.5,141.6l0.6-0.4
		l1,1l0.5,0.1l-0.2-0.9l0.6,0.1l-0.9-1.4l0.6-0.2l-1.2-0.6l-0.9-0.5V138l-1-0.2l-0.4,0.6l-0.2,0.7l0.6,1.4L488.5,141.6L488.5,141.6z
		 M493.4,141.5l-0.2-1.1l-0.1-0.9l0.2-0.4l-0.4-1.5l-0.5-1.5l-0.6-0.7l0.7,1.4l-0.5-0.5l0.4,1.3l0,0.7l0.5,1.3l-0.3-0.2l0.1,1.1
		L493.4,141.5L493.4,141.5z M487.6,123l0.5,0.2l-0.4-1.1l-0.7-1.3l-0.6-0.7l-0.4-0.9l-0.4-0.1l-1.4-1.9l0.9,1.5l0.7,1.2l0.6,1
		l0.6,0.8C487,121.8,487.6,123,487.6,123z M488.8,130.6l0.6,0.4l-0.7-1.1l-0.9-1L488.8,130.6 M483.1,128.4l-0.6-0.4l0.3,0.6
		 M484.6,129.9l0.6,0.4 M440.3,236.1l1.3-0.2 M447.4,234.2l1.3-1.1 M480.1,247.4l0.9,0.5l0.2-1l-0.4-1.6l-0.3,1.3L480.1,247.4
		L480.1,247.4z M482.4,246.4l0.6,0.5l0.5-0.9l-0.4-0.7l-0.7,0.3L482.4,246.4z M484.9,242.9l0.4-1.4l-0.9-1.7l0.4-1l-0.3-0.9
		l-0.3,0.8l0.1,1.1l0.1,2.4L484.9,242.9 M114.9,203.6l0.3-0.1 M115.3,204.1l-0.1,0.8l0.1,0.6l0.5-0.6l-0.1-0.7L115.3,204.1
		 M115.3,209.1l-0.3,1.1l0.2,1.1l0.4-1.9L115.3,209.1 M115.1,212.9l0.2,1 M115.2,214.7l-0.1,1l-0.3,0.7l0.2,0.4l0.3,0.3l0.2-1.4
		l-0.2-0.3L115.2,214.7 M479.5,124.3l-0.4-1.2l-0.4-1.3l-0.4-1.2l-0.5-0.3l-0.6-1.1l-0.3,0.6l-0.1,0.1l0.4,1.3l0.7,1.6l0.8,1.1
		l1.1,1.6L479.5,124.3L479.5,124.3z M476.8,157.3l-0.3-1.4l-0.8-1.2l1.3,1.1l0.9,0.6l0.8,1.1l1.2,1.4l-1.2,0.1l-0.9-0.5L476.8,157.3
		 M480.7,161.8l0.8,0.8l1.1,0.4l1.2,1.1l1.2,1.3l1-0.1l-0.7-1.5l0.1-0.9l-0.9-1.3l-1-1.1l-1-0.9l-1-0.7l-1.2-0.1l0.7,1.7l0.1,0.9
		L480.7,161.8 M488.9,159.8l1,0.2l0-0.7l0.8-0.7l0.2-0.9l0.8,0l0.2-1.3l-0.8-1.1l-0.8-0.4l-1.2-1.4l-1-1.6l0.4,1.8l0.2,1.8l0,1.2
		l-0.4,0.5l0,1.1L488.9,159.8 M255.2,396.9l-0.3,1.3l1.2,0.9l-1.2,0.4l1.2,0.7l1.2-0.6l-0.9-1.3L255.2,396.9L255.2,396.9z
		 M304.8,347.3l1.2,0l1.2,1.2l1.5,0.3l1.2-0.5l1.2,0.3l1.2,0l-0.6-1.2l-1.5-0.6l-1.8-0.4l-1.8-0.3l-1.5,0.5L304.8,347.3L304.8,347.3
		z M282.3,332.8l2.3,0.3l0.7-1.1l2,0.2l1.2-0.8l1.2-0.8l1.7,0.5l2.3,0.5l-1.8,0.4l1.1,1l1.7,0.4l2.6,0.2l1.1,1l1.5,0.4l1.7,0.7
		l1.8-0.2l0.6,0.6l0.3,1.5l1.7,1.2l2.7,0.1l0.6,1.2l-1.2,0.8l-0.9,0.8l2.4,0.1l1.8-0.3l1.8,0l1.8,0.3l1.8,0l1.2-0.6l1.8-0.3
		l-0.3-0.6l-0.9,0l-1.2-1.1l-1.8-0.3l-1.2,0.3l0.3-1.5l-1.5-0.3l-1.8-0.3l-1.8-1.2l-1.5-0.6l-1.4-0.9l-1.7-0.9l-1.7-0.6l-1.8-0.1
		l-1.2-1.3l-1.4-0.6l-1.4-0.7l-1.7-0.1l-1.7-0.7l-1.7-0.1l-1.8,0.4l-1.8,0.1l-1.8,0.1l-1.8,0.7l-1.2,0.7l-0.1,1.2L282.3,332.8
		L282.3,332.8z M318.7,347l2.4,1.1l0.6-0.6l1.8,0l1.5,0.3l1.5-0.4l1.8,0.2l1.5,1.6l1.2-1.5l0-0.9l1.8-0.7l0,0.8l1.8-0.4l2.1-0.7
		l1.8-0.1l1.2,1.1l1.2-1.5l-1.6-1.3l-3-0.3l1.4-1l-2.1,0.1l-0.6-1.1l-2.1-0.2l-1.8-0.2l-2.4,0.1l-1.2,0.6l-2.1-0.8l-2.1,0.1
		l-1.2,0.9l1.8,0l0.9,1.1l0,1.1l1.5,1.4l-1.5,0.9l-1.8,0l-1.5-0.5l-1.8-0.3L318.7,347L318.7,347z M345.2,346.8l1.5,0.1l1.5-0.4
		l1.5-0.2l0.8-1l-1.2-0.7l-2.1,0.2l-2.1,0.2L345.2,346.8z M305.7,322.9l0.2,1.2l-0.9,0.9l1.7,1.5l0.8,1.8l0.6-1.2l-0.8-1.2l0-1.2
		l-0.8-1.8L305.7,322.9z M342.7,229l1.8,0.7l0.7,0.9l1.5,0.4l1.7,0.1l1.4-0.2l-1-1.1l-1.3-0.4l-1.5-0.4l-1.7-0.1L342.7,229
		L342.7,229z M344.8,240.8l1,0.8l1.7,0.7l2.3,0.6l-0.2-1.2l1.1-1.1l-1.9,0.6l-1.5,0.2l-1.6-0.4l-0.4-1.3L344.8,240.8 M301.5,183.8
		l1.5-0.1l1.8-1.4l0-0.3l-1.1-0.1l-1.4,0.5L301.5,183.8z M307.9,183.7l-0.3,2.1l0.7,1l0.9-1.5l0.2-1.5L307.9,183.7L307.9,183.7z
		 M356.4,234.1l0.7,1.5l1.7-1l2.1-0.1l1.8-0.4l1.8-0.4l1.7-0.1l0.3,1.2l-1,1.2l1.5,0l0.7-2.2l0.9-0.6l1.3,0l-0.1,2l1-1.3l0.4,1.5
		l1.4-0.4l-0.1-1.9l-0.1-1.9l-1.1,0.7l0.1-2l-0.7,0.5l-0.4,1.8l-0.8-0.5l0.1-1.3l1.2-2.3l-1.7,0.8l-0.9-1.1l0.7-1.9l-1.3-0.3
		l-1.6,0.4l-1.4,0.7l-1.7-0.9l0.7-1.2l-1.5-0.3l-1.4,1.6l0.3-2l0.5-1.4l0.5-2.1l0.1-2l-1.1,0.3l-1.3,1.3l-0.4,1.4l-0.2,1.7l-0.5,2.1
		l-0.1,2.3l-0.8,2.1l-0.5,1.7l0.9,0.1l-1,1.5L356.4,234.1L356.4,234.1z M296.5,177.6l2.2,0.3l-0.2,1.8l1.6-0.1l1.3-1.4l1.2-1.1
		l1.2,0.1l1.3,1l1.3,1.3l1.7-1.4l-1.6-1l-0.7-1.6l-1.1-1.3l-1.7-1.4l-1.3-1.6l-0.2-1.8l-1.8,1.2l-0.7,1.4l-0.7,2l0,2.2L296.5,177.6
		 M313.6,164.9l0.6,1.8l1.7-0.3l1-0.9l0.2-1.5l-0.7-1.2l-1.6,0L313.6,164.9 M299.2,149.1l0.8,1.6l0.5,1.8l0.8,1.6l1.7,1.4l1.8,0.2
		l2.5,0.8l1.3-0.2l1.8,1.6l1.1-0.5l1.3-1.7l0.7,1.5l2.2,1.8l-0.5,2.3l1.6-1.1l1,1.7l1.8,1.1l0.5,1.7l0.6,1.5l-1,1.2l-1.1,1.5
		l-1.3,1.2l1.4,1.8l-1.6,1.2l-2.1,0l-2.4-0.7l-0.3,1.2l-0.9,0.3l-0.6,1.4l0.9,1.5l2.5,0.1l1.2-0.9l1.8,0.3l1.7,0.9l1.6,0.6l1.4,0.9
		l0.1,1.5l1.5,1.1l1.3,0.5l1.8,0.5l0.7,0.9l1.7,0.8l1.7,0.5l1.8,0.1l-0.2-1.5l-1.5-1.1l-1.6-1.3l-1.4-1.1l-0.9-1.4l2.1,0.7l1.7,1
		l2,1l2.1-0.3l0-2.4l-1.5-1.3l-0.4-1.8l-1.3-1l-1.9-1.3l-0.1-0.1l-1.1-1.6l0.1-2.4l2.8,1.5l1.1,2l2.1,0.9l0.2-1.8l1.7-0.9l0.1-1.5
		l0.5-2.2l-1.4-1l-1.7-0.9l-1.8-1l-1.6-1.3l-2.2,0.3l-2.1-1.3l-0.2-1.7l1.7-0.8l-1.7-1.3l0.4-1.5l-1.3-1.6l-1.9-1l-2-1.9L320,151
		l-1.9-0.2l0-1.7l-0.4-1.1l-1.6,0.3l-1.2-0.7l-1.1-0.4l-1.4,1.1l-1.3-0.1l-1.3,0.9l0.6-1.7l-0.6-1.6l0.5-1.5l-0.4-0.9l-1.4,0.1
		l-1.7,0.9l-1.5,1.2l-0.4,1.6l-0.4,1.4l0.1,1.4l-0.9-1.3l0.2-1.4l0.2-1.4l0.8-1.3l0.8-0.8l1.8-0.7l-1.5-0.3l-1.6-0.2l-1.2,0.7
		l-1.5,1.2l-0.9,1.3l-0.9,1.3L299.2,149.1L299.2,149.1z M296.1,137.1l0.9,0.9l1.3,0.9l0.6-1.7l-0.3-1.3l-1-0.3L296.1,137.1
		 M299.2,130.9l-0.6,1.1l0.4,1.6l1.7,0.1l0.7,1l-0.1,1.4l-0.8,1.3l-0.4,1.6l1.7,1.1l1.8,0.5l1.6,0.4l1.8,0.2l1.3-1l1.4,1l1.8-0.4
		l0.7-1.3l0.1-1.3l-1.6-0.9l-1.4-0.1l-1.6-0.5l-1.9,0.5l-1.7-0.7l-1-1.1l0.6-0.5l-0.7-0.8l-0.1-1l-1.5-0.3l-0.8-1.1L299.2,130.9z
		 M308.3,118.4l-0.2,1.5l0.7,1.2l1.7,0.2l1.3-0.3l1.7,0.2l1.8-0.3l-1.2,0.8l-1.9,0.4l-0.9,0.6l-1.2-0.7l-0.9,1.6l0.9,0.7l-0.3,1.4
		l0.2,1.2l-1.1,0.2l-1.6,1.6l1.4,1h-2l-0.3,1.3l0.7,0.7l-1.1,0.2l-1.4,0.7l-0.4,1.3l1.4,0.5l2.2,0.6l1.1-0.4l1.1,0.4l1-0.5l0.4,1.1
		l1.9-0.7l1.2-1.3l-1.2-1.4l1.4-1l-0.2-1.1l1.7-0.2l0.7-1.6V127l0.7-1.6l1.7-0.7l0.9-1.5l0.6-1.2l1.1-1.2l1.1-1.6l-0.1-0.8l0.7-1
		l0.5-0.9l-0.2-0.6l-1-0.2l-0.9-0.6l-1.4-0.2l-1.3-0.4l-1.3,0.1l-0.9,0.3l-1.1-0.2l-1.9,0.3l-1,0.9l-1.3,0.6l-1,0.5l-0.2,0.6
		l-1.2-0.2L308.3,118.4L308.3,118.4z M295.6,122.1l-0.1,0.7l0.8,0.9l-1.1,0.6l0.1,0.9l1.1,0.9l0.9,0.3l-0.1,1.4l1.1-0.2l1.3,0.2
		l1,0.2l0.7-0.8l0-0.8l-1-1.5l-0.7,1.2l-0.9,1.1l-0.6-0.4l0.3-1.1l0.6-1.2l-0.4-1.2l-1-0.4l-0.5-0.8l-0.9-0.3L295.6,122.1
		L295.6,122.1z M291.6,129.9l-0.2,1.4l-0.4,1.1l0.1,1.5l1.6-0.2l-0.1,2l2,0.7l1.2-1.4l0.5-1.3l0.6-1.2l-0.8-1.3l-1.3-0.6l-1,0.6
		l-0.8,1.2l-0.2-1.4l-0.3-1.1L291.6,129.9L291.6,129.9z M277.6,123.1l-0.4,1.4l0.9,0.4l0.6,0.9l1.6-0.3l1.2-0.6l0.4,1.1l1.9-0.5
		l0.6-1.1l1.3-0.2l-0.2-1.1l-1.3,0.3l-0.9-0.7l-1.2,0l-1.4,0.1l-1.7,0.4L277.6,123.1L277.6,123.1z M279.2,128.6l0.7,1l0.4,0.9
		l1.4-0.3v1.3l-1.4,0l-0.1,0.8l0.8,0.8l1.1,0.2l1.4-0.3l1.4-0.1l1.6,0.9l1.2,0.2l1-1.2l1-1l-0.8-0.9l-0.6-1.4l0.5-1.5l-1.1,0.3
		l-1.3,0.6l0.4,0.8l-0.8,0.7l-0.2,1.2l-1.4-1l0.3-1.2l0-1l-0.5-1.3l-0.9-0.7l-1.3,0.6l-1.7,0.9L279.2,128.6z M265.2,132.5l0,1.9
		l-1,2l1.8,0.2l1.2,0.5l2.1-0.8l2-1.5l2-0.1l1.8-0.1l1.9-0.1l-0.4-1.6l0.3-1.6l-1.4-0.9l-0.6-1.5l-1.7-0.2l-1.7-0.5l-1.1,1.8
		l-1.6,1.1l-1.8,0.8C266.8,131.9,265.2,132.5,265.2,132.5z M430.5,424.7l0.9-1.1l1.9-1.6l0.8-1.1l1.8-1.6l0.6-1l0.4-0.9l0.6-1.1
		l1.2-1.1l0.3-1l0.7-1.3l0.8-1.4l0.1-0.9l0.3-1l0-0.9l0.5-1.2l0.6-1.5l1.7-1.5l1.5-1.6l1.5-1.9l1-1.5l1.2-1.6l0.8-1l1.6-1.6l0.9-1.4
		l1.4-1.7l0.9-1.4l0.9-1.6l0.9-1.6l0.5-1.7l-0.1-1.1l-0.3-1.1l-0.3-1.2l-0.6-1l-1.7,0.6l-1.5,1.1l-1.5,0.6l-0.9-0.3l-1.5,0.2l-1-0.3
		l-1-0.3l-1.5,0l-1.5-0.1l-1.5-0.1l-1.6,0.8l-1.6,1.2l-1.6,0.7l-1.6,0.1l-1.6,0.7l-1.6,0.1l-1.6,0.5l-1.6,1.3l-1.9,1.2l0.6-1.5
		l-0.8-0.7l-0.5-0.9l-1.7,1.1l-0.5-0.7l-2.2,0.5l-1.7,0.2l-1.9-0.1l-2,0.7l-1.2,0.8l-1.2,2.4l-0.8-0.1l0.6-1.3l0.6-2l-2,0.3
		l-1.7,0.8l-1.7,0.4l-1.5,1.1l0,1.5l-0.6,1.9l-0.8-1.5l-2.1,1.3l0.3-1.6l0.6-1.5l1.5-1.4l1.1-1.3l1.4-1.8l0.2-2.2l-2,0.4l-0.6-1.7
		l-1.2-1.5l-0.1-1.6l-1.8-0.9l-1.2-0.4l-1.8-0.4l-1.5-0.6l-1.8-0.2l-1.5-0.1l-1.2,0.1l-1.8,0l-1.8,0.2l-1.8,0.5l-1.8,0.7l-1.8,0.4
		l-2.1,0.2l-0.9-0.7l-0.1-0.1l-1.3-0.5l-1.9-0.6l-1.5,0.6l0.2-1.3l-0.7-1.1l-1.9-0.7l-1.9-0.6l-2.2-0.6l-2.7,1l0.5-1.9l-0.7-1.4
		l-2.1-0.2l-1.6-0.2l-1.2,0.4l-1.3-1.1l-1.3-0.8l3-1l-2.1,0.3l-2.5,0.4l-2.1,0.3l-1.8,1.6l-1.8,0.8l-2.2,0l-1.6-0.3l-0.7-0.7
		l-1.5,0.2l-1.6,0.4l-2.2,0.2l-2.2,0.4l-0.6-1l-0.4-1.3l-1.5-0.7l-1.9-0.1l-1.6,0.1l-0.7-2.1l-1.5,0.9l0.6,1.3l-1.5,0.9l-1.6,0.6
		l-1.6,0.6l0,1.9l1.3,1.8l0,1.8l-2.2,0.6l-0.3-1.3l-1-1l0.9-1.6l0.9-1.1l-0.6-1.3l-1-1.5l1.9-0.6l0.9-1.4l-0.6-0.8l-1.3-0.2
		l-1.2,0.8l-0.9,1.1l-1.6,0.6l-1.2,0.8l-1.9,0.8l-2.5-0.2l-0.9,1.1l-1.5-0.2l-1.6,0.5l-0.9,1l-0.3,1.6v1.6l-1.6,0.2l-0.9,1.3
		l-1.9,1.3l0,2.3l-1.6-1.6l-1.2-1.1l-1.2-1.1l-1.6-1.1l-1.6-0.4l-1.5-0.6l-1.9-0.1l-1,1l-1.9,0.4l-1.9,0.4l-2.2,0.4l-1.2-0.9
		l-1.6-0.1l-0.6-1.4l-1.5-0.9l-1.5-1.2l-0.9-1.4l-0.9-1.4l-0.5-1.4l0.6-1.3l0.1-1.6l0.7-1.8l0.1-1.6l0.1-1.9l1-1.3l0.1-2.5L286,356
		l-1.5-0.7l-0.1-0.1l-1.4-1.5l-1.5-0.4l-1.2-0.4l-1.8,0.1l-1.8-0.5l-1.8,0.3h-1.8l-2-0.8l-2.2,0.5l-1.4-1.1l-1.5-0.8l1.9-0.8
		l1.1-2.1l0.1-1.7l0.5-2.8l0.8,1.5l1-1.5l0.5-1.9l0.4-1.7l0.4-1.7l0.7-1.6l1.6-1.2l0.1-1.4l-0.8-0.7l-1.7-0.3l-1.4-0.5l-1.7,0
		l-1.8,0.3l-1.7,0l-1.7,0l-1.2,0.4l-0.5,1.9l-0.4,1.4l-0.7,1l-0.1,1.4l-1.2,0.4l-1.2,0.6l0.2,0.9l-2.1,0.1l0.1-0.5l-2-0.7l-2.1,0.4
		l-2-0.2l-2.1,0l-1.1-0.3l-1-1.4l-1.6-1l-1.6-1l-1-1.7l-0.6-1.6l-0.6-1.9l-0.9-1.4l-0.7-1.4l-0.3-1.6l0.7-1l-1.5-1.6l-0.3-1.9
		l0.8-1.2l0.3-1.7l0.3-1.7l0.3-1.7l0.9-1.6l0.8-1.6l1.1-1.2l0-1.6l0.3-1.8l-0.2-1.9l0.6-1.7l1.2-0.9l1.8-0.7l1.8-0.8l1.6,0.1
		l1.2-0.6l1.2-0.6l-0.5-1.7l1.1-0.3l-0.3,1.5l1.7-0.5l1.4,0l1.9,0.1l1.5,0.9l1.5,0.7l1.5-0.6l1.4,1.5l0.1,1.2l1.6,0.6l1.9,0l1.2-0.4
		l1,0.5l0.7,1.1l0.6-0.5l-1.5-1.5l0.1-0.6l0.9-0.4l0.4-0.9l-1.3-0.2l-1.4,0.1l-1-0.5l0-0.1l1-1.4l1.5,1.2l1.7-0.6l1.3,0.2l1.6,0.6
		l0.9-0.8l0.4,1.3l1.6,0.2l1.6-0.1l1.6-0.1l1,1.1l1.6,0.8l0.4,1.6l1.7-0.1l1.4-0.8l1.6-0.1l1.3,1.4l1.2,2.3l0.8,0.4l0.4,1.9
		l-0.4,1.5l-0.1,1.2l1.1-0.2l-0.6,1.8l0.2,1.3l1,1.3l0.8,1.6l0.7,1.9l1.4,1.3l0.5,1.5l1.4-0.2l0.9-0.5l0.9-1.7l0.4-2.1l0.1-2.1
		l-0.8-2.2l-0.7-2.2l0.1-1.2l-1-1.9l-0.4-1.9l-0.7-1.9l-0.2-1.9l-0.1-1.9l0.9-1.8l0.9-1.8l1.7-1.4l1.6-0.8l1.6-1.1l1.1-1.2l0.8-1.2
		l1.6-0.9l1.3-0.2l1.4-1.2l1.3-1.2l1.9-0.3l0.8-0.9l-1.6,0l1.6-1.2l1,0l0.5-0.9l0-1.3l-1.3,0l-1.5,0l1.3-0.6l1-0.3l0.8,0.4l0.8,1.2
		l-0.8-1.2l-0.2-1.6l-0.5-1.2l-1.3-1.3l0-1.2l0.3-1.6l-1.7-1.3l1.5,0.3l-0.2-1.3l-0.2-1.9l0.5-1.2l1.2-0.6l-0.5,1.2l0,1.3l-0.5,1.5
		l1.2,0.7l-0.2,0.9l1,0l-0.5,1.2l-0.5,1.9l0.8-0.3l0.5-1.9l1-1.6l0.7-0.9l-1.2-2.2l-0.5-1.9l1,0.6l0.7,1.2l1.5-1.3l1-1.9l0.5-1.8
		l0-0.1l-1-0.6l0.9-1.3l1.4-1l1.4-0.7l1.4,0l1.4,0l1.4-0.7l0.4-1.3l0.7,0.9l1.1-0.7l0,0.6l1.9-0.8L331,260l0.1,0.9l-1.4,0.1
		l-0.6-1.6l-1-0.6l0.6-1l-0.3-0.9l0.6-1.3l0.8-1.3l0-0.6l1.3-0.7l1.5-0.8l0.8-1.7l0.7,0.6l1.5-0.8l1.3-0.7l1.3-1.1l-0.1-1.3l2-0.2
		l1.7-0.8l1.8-1.5l-0.1,1.3l1.7-0.6l-1.6,1.5l-1,0.7l-1.4,1.5l-0.5,1.6l0.6,1.5l1.5,0.8l1.2-1.4l1.2-1.5l0.7-1.4l1.3-0.2l1.6-1.2
		l2.5-1.4l2.1-1l0.2-1.3l1.4-0.9l1.3-1.5l-1.9-0.9l-0.1-1.9l-0.7-0.5l-0.5,1.7l-1,1.8l0.3,1.6l-1.3-0.1l-1.4,0.8l-1.8,0l-2.1-1
		l-1.6-0.4l-1.1-1.8l-0.5-2.2l0.2-1.6l-2,0.9l-1.9-1.7l2.5-0.3l1.2-0.8l1.3-1.1l-0.2-1.2l-0.9-0.8l-1.7-0.4l-1.8,0.5l-1.8,0.5
		l-1.6,1.1l-1.4,0.7l-1.6,1.1l-1.4,1.4l-1,1.6l-1,1.4l-1,1.3l-1.7,0.7l1-1.3l0.8-1.3l1-1.3l0.7-1.4l0.9-1.6l1.3-1.4l1.5-1.7l1.7-0.1
		l0.2-1.6l0.9-1.3l1.7-0.8l1.4-0.2l1.6-0.2l1.8-0.5l1.4,0.1l0.1,0l1.4-0.2l1.6-0.2l1.3,0.4l1.7-0.6l2.2-0.4l0.9-1.5l0.7-1.4l0.7-1.5
		l1.7-1.3l2.2-0.8l1.2-1.6l0.9-1.2l-1.4-2.3l0-1.6l-1.9-1.5l-1.6,0.4l-0.6-1.5l-2.2,0.1l1.5-1.6l-1.3-0.7l-2,0.1l-1-1.1l-2.3,0.1
		l-0.7-1.5l-1.9-0.6l-1.1-1.1l-0.4-1.8l0.6-1.4l-1.2-0.7l-0.3-1.2l-1.2-1l-1.3-1.7l-1.2-1.7l-1.4-1.7l-1.3-1.7l-0.8-1.1l-0.7,1.3
		l-0.6,1l0.8,1.1l-0.6,1.6l-1.3,1.1l-0.5,1.3l-1.9,1.1l-1.6-2l-1.2-0.2l-1.1-1.5l-0.1-1.2l0-1.8l-0.6-1.5l0.2-1.6l-1.4-0.2l-1.4,0.1
		l-1.4-0.9l0.4-1.2l-1.4-0.9l-1.2-1.2l-1.4-0.9l-2,0.6H316l-1.6-0.6l-1.8-0.3l-1.2,0.9l-0.1,1.5l1,0.9l-0.5,1.5l-0.7,1.5l0.9,0.9
		l0.2,1.8l-0.1,1.5l-1,1.5l-1.3,0.3l-0.2,1.2l1.1,1.3l1.1,0.7l0.6,2.2l0.3,1.6l0.5,2.2l-0.1,2.5l-1.1,1.5l-1.7,1.5l-1.7,1.2
		l-1.7,0.9l0.6,1.6l0.5,1.6l0.1,2.2l-0.1,1.9l0.9,1.9l-1.5,1.8l-2,1.2l0.1,1.3l-1.5-1.3l-0.7-1.6l-1.1-1.3l-0.8-1.7l-1.4-1.7
		l0.6-1.8l0.2-1.5l-0.4-1.6l0-0.1l0.8-2.8l-1.7-1.1l-2.1-0.2l-2.1-0.3l-1.9-1.8l-1.6-0.8l-1.3-0.8l-0.9-1.7l-1.6-1.5l-1.9-1
		l-1.7-1.6l-1.6,0.3l-1.3,0.3l0.3-1.2l-0.3-1.7l0.4-1.5l-0.2-2.3l-1.2-0.6l-1.3,0l-0.2-1.6l0.6-1.8l0.8-2.1l0.9-1.3l0.9-1.4l1.4-1.6
		l1.3-1.3l1.3-0.3l0.5-1.8l1.7-0.3l1.8-0.3l0.3-1.8l1.6-1.8l2.4,0.4l1.6-1.6l1.6-1.6l0.4-1.8l2-2.1l-0.9-1.3l1.9,0l0.5,1l1.9,0.8
		l1.8-1.3l2-1.3l0.6-2l-1.7-1l0.2-1.7l1.6-0.7l0.2-2.2l-1.8-0.6l-0.1-1.2l-1.6-0.7l-1.6-0.2l-0.3,1.7l-0.3,2l-0.4,2l-1.7,1l-0.3,1.4
		L299,165l-0.9-2.2l0.6-1.7l0.3-1.4l-0.8-1.9l-1.9,2l-0.5-1.9l-0.4-1.6l-1.1-1.1l1.8-1.1l-0.2-1.8l-0.5-1.3l-0.5-1.6l-0.2-1.8
		l1.1-0.9l-0.2-1.2l1.2-0.3l1.2,0.3l1.1-1.2l1.1-1.2l0.8-0.7l-0.8-0.8l-1.8-0.9l-2.2,0.1l-0.9,1.2l-0.2,1.4l-0.4,1.7l-0.5,1.4
		l-0.6,1.6l-1.2,0.6l-1.2,1.6l-1.3,1.6l0.5,2.3l1.6,1.9l-1.3,1.2l0,1.8l-1.8,1.4l-0.5,0l-1,1.5l-0.9-1.4l0.6-1.8l0-0.1l2.2-0.7
		l-0.3-2.2l-1.2-2.2l-1.5,1.4l-1.7,0.7l1.4,2l-1.3,0.8l-0.9,1.9l-1.8-0.2l-2-1.3l-1.1-1.5l-1.4-1.8l-0.3-2.3l-1.7-0.2l-1.9-0.2
		l-1.5,0.6l0.9,1.4l-1.2,1.1l-1-1.1l-0.7-1.3l-1.9-0.3l-2-0.4l-1-1.2l-1.3-0.8l1-0.8l1.4,0.3l0.3-1.6l-0.8-1.6l-1.5-1.1l-0.8-1.5
		l-0.7-1.6l-0.1-1.7l-1.5-1.1l-1.7,0.9l-0.6-0.7l1.5-1.6l-2.4,0.8l-0.3-1l1-1.6l0.4-2.2l-2,1l-1.2-0.3l0.9-1.3l-1.8-0.4l-1.9-0.4
		l-1.4,0.1l0-1.1l-0.9-0.6l-1.5,0.1l-1.4,0.8l-0.1-1.7l0.4-1.5l0.1-1.5l-0.7-1.4l0.3-1.1l0.3-1.3l-0.6-1l-0.8-0.8l0.3-1.3l-0.5-1.2
		l0.3-1.7l-0.4-1.2l-0.4-1l1.1-1.4l-0.5-1.6l0.8-0.8l0.4-1.5l-1.9-0.5l-0.4-1.2l-1.6-0.8l-0.4-0.9l-1.5-0.6l-1.7,0.2l-1.3-0.1
		l-0.6-1.1l-0.3-1l-1.8,0.3l-1.2,1.3l-1.1,1.6l-1.7,1.1l-1.1,1.4l-1.4,1.3l-1.2,0l-0.1-1.7l1.5-0.6l0-0.9l-0.9-0.9l-0.8-0.9
		l-1.4-0.7l-0.6,0.8l-0.4,1.1l-1.1,0l-1.2,0.7l-0.6,1.8l0.3,1.4l-0.5,1.4l0.9,0.6l0.6,0.8l0,0.1l-1.4,0.3l-1.4,1.1l-1.7,0.4
		l-0.4-1.4l-1.5-0.4l0.8-1.4l-0.9-0.6l-1.1,0.2l-1.7-0.2l-2.2,0.2l-1.4,1.5l-1.7,1.1l-1.6,1.5l-1.3,1.2l0,1.1l1.4,0.5l-1.9,1.5
		l-1.1,0.2l-1.3,1.1l0.6,0.5l0.2,2l-1.5,1.7l1.1-0.2l-0.1,1.1l0.4,0.7l-1.9,0.9l-1.9,0.8l-1.2-0.4l-1.5-0.3l-1.2-0.8l-1.7,0
		l-0.4-1.3l-0.9-1l-1.4-0.2l-0.8-1.1l-1.3-0.9l-0.8,0.7l1.1,1.1l1.1,0.8l0.6,1l0.9,0.5l0.6,1.1l1,1l0.7,1l1.4-0.2l1,0.7l1.3,0.9
		l1.5,0l1.6,0.6l1.4,0.7l1.2,0.1l1.5-0.1l0.2-1.3l1.2-0.3l1.1,0.5l1.6,0l1.7-0.6l1.3,0.1l1.5,0.6l0.4,0.9h-1.3l-1-0.8l-1.9,1
		l-1.8,0.3l-0.3,1l-1.3,0l0.7,1.2l1.4,0.4l1.4,0.2l0.4,1.1l1.9-0.4l1.8-1.4l-0.1,1.4l0.5,1l-0.4,1.4l-0.4,1.9L215,143l0.7,1.3
		l0.7,1.2l-0.1,1.7l0.4,1.2l1.2,0.1l-1.3,1.4l0,1.6l-0.6,1.9l-0.3,1.6l0,1.6l-1.1,1.7l-0.5,1.9l-1,1.7l-1.2,2.1l1.8-1.7l1.4-1.8
		l1.4-1.3l0.3-1.7l0.5,0.6l1.4-0.9l-0.8,1.4l0,0.1l-1,0.8l-1.1,1.6l-1.2,1.1l1.2,0l1.2-0.6l-0.6,1.3l-0.4,1.4l-0.5-1.5l-1.4,0.2
		l-1.2,1.5l0.8,0.4l-1.1,1.1l-0.6,1.2l-0.3,1.1l0,1.4l-0.6,1.7l1.5-1.6l0.9-2.2l0.6-1.7l0.1,1.1l0.6,0.6l-1,0.8l-0.7,1.6l-0.4,1.5
		l0.1,1.4l1.3,0.4l-1.7,1l-0.3,1l-1.4-0.1l-0.7,2l0.1,1.5l-0.7,2.5l0.4,1.7l-0.9,1.8l-0.2,1.5l-0.8,1l0.3,2l0.8,1.5l0.6,1.8l0.1,1.8
		l0.2,1.8l0.4,1.5l1.5,0l-1.1,1.6l0.2,1.3l-0.3,1.7l-0.6,0.3l-0.3,1.8l-1.5,1.2l0.2-0.6l-1.1,0l1.6-0.8l-0.5-1.6l-1.1-0.9l-0.9-1.9
		l-0.7,0.7l-0.3,1l-0.5,1.6l-0.6,1.9l-0.6,1.1l-0.6,1.2l1,1.6l-1.3-1l-0.7,1.1l-0.7,1.4l-1.2,1.1l-1,1.6l-1.1,1.5l-1.5,1.6l-1.6,1.5
		l-0.8,1.7l-0.2,1.4l-0.6,1.9l-1.1,1.5l-1.4,1.2l-0.5,0.8l0.2,1.3l-0.1,1.4l-0.6,1.1l-0.6,1.4l0.1,1.6l0.4,1.5l-0.7,0.9l0.9,1
		l0.4-0.8l0.5,0.8l-0.6,0.3l-0.2,1.8l-0.4-1.5l-0.6,1.5l0,1.5l0.7,0.5l-0.7,1.4l-0.6,0.7l0.5,1.9l0.1,1.9l0.3,2.4l-0.7,1.6l-0.1,0.1
		l1.4,1.7l1,1.5l0.9,1.3l0.8,0.5l-0.3,1.2l0.8,0.5l0.7,1.9v1.8l-0.3,1.9l0.1,2.2l-0.1,1.7l0.2,1.5l-0.3,0.8l0.5,1.3l-0.5,1.4
		l0.5,0.6l-0.5,2.1l1,1.3l0.8,2.2l0.5,1.6l0.5,1.6l-0.5,1.4l-1.4,0.2l-1.4-1.1l0.9,1.9l0.1,1.4l0.7,1.1l0.8,1.5l1.1,0.6l0.6,1.6
		l1.1,1.6l0.2,2l-0.5,1.7l-1,0.8l1.6,1.8l0.9,1.7l0.8,2l1.1,1.8l0.4,2.7l2.1-0.9L203,303l-0.8-2.3l-1.2-0.6l-0.3-1.8l0.6-0.3
		l-0.6-1.6l0.3-1.1l-0.4-2.2l0-1.9l-0.9-2.4l-0.4-2.2l-0.8-1.7l0.1-1.9l-0.4-1.9l-0.6-2l-0.4-1.9l-0.8-1.5l-0.2-1.5l0.7-1.3l0.1-1.7
		l0.3-1.5l0.6-1l1.1,1.7l1,0.2l0.5,1.3l0.9,1.1l-0.5,1.4l0.1,2.1l-0.2,1.2l0.4,1.9l0.1,2.1c0.3,0.8,0.5,1.6,0.8,2.4l0.8,2.4l1.5,1.1
		l-0.5,1.7l1.2,2.2l0.4,1.5l0.7,0.3l0.4,1.5l-0.8,0.9l-0.2,0.8l1,1.4l1.7,1.8l0.4,2.4l0.9,1.7l0.9,1.7l0.8,2.2l0.7,1.5l0.9,2
		l0.8,1.5l0,2.5l0.8,1.3l-0.2,1.1l-1.2,0.7l0.3,1.1l-1.2,0.4l0.7,2.1l0.9,2.1l0,0.1l1.7,1.6l1.4,1.7l0.8,1.8l2,1.6l1.8,0.9l0.8,0.3
		l1.2,1.6l1.7,2l1.6,1.1l1.6,1.1l1.5,1.4l1.6,0.8l1.6,1.3l1.6,1.3l1.9,0.8l1.9,1.1l1.9,1.1l2.1-0.3l1.8-0.4l1.7,0.4l1.4,0.7l1.4,0.9
		l1.3,1.2l0.8,1l1.3,1.7l1.4,1.4l1.1,1.4l1.7,1.2l1.7,0.9l1.8,0.4l1.7,1.2l0.8,1l1.5,0.3l1.7,1.1l1.5,0.3l2.1,0.4l0.6-0.7l1.2,1.6
		l-1.2-0.2l1.2,1.5l1.1,1.2l1.5,1.6l1.4,1.3l1.5,1.3l-0.1,1.3l-0.3,1.3l0.5,1.4l1.2,0.4l0.6,0.6l1.3-0.9l0.9,1.1l2.1,1.3l1.2,1.2
		l-0.3,1.5l1.9,0.4l0.9,0.9l1-0.4l1.9,0.4l1.9,0.7l0.9,1.1l1.9,0.1l0.3,1.8l1.6-0.1l1.9-0.6l-1.6-1.1l-0.3-1.1l1.6-0.4l1.3-0.7
		l1-1.2l1.2,0.1l1.6,0.8l0.9,1.3l1.2,0.1l-1,1l0.9,1.8l1.6,1.3l1.2,1.3l-0.3,1.2l0.3,2l0,1.5l0.3,1.5l-0.7,1.4l1.2,1l-1.3,1.2
		l-1,1.6l-2.2-0.1l-1.3,1.3l0.3,1.2l-1.6,0.1l0.6,1.2l-1.9,0.6l-2.5,0.8l-0.3,1.7l0,0.1l-1.6,0.8v1.3l-1.6,0.3l0.7,1.8l0,1.3
		l-0.6,0.4l1.3,0.5l1.6,1.4l0.3-1.3l1.6,0.1l-0.6,0.8l-0.6,1.2l-1.2,0.4l-1.9,0.7l-1.9,0.9l0,1l0.6,1.3l1.3,1.3l-1.3,0.7l1.3,0.7
		l1.9,0.7l1.3,0.9l1.3,1.1l0.7,1.4l1.9,0.9l1.3,1.2l0.7,1.2l0.7,1.1l0.6,1.1l1.9,1.5l0.6,1.1l1.2,1.1l0.6,0.7l1.2,0.7l0.6,1l1.2,1.4
		l-0.3,1l1.6,1l1.2,0.6l1.2,0.6l2.5,0.8l1.8,0.1l1.8,0.7l2.4,0.5l1.2,0.1l1.8,0.5l1.8,0.4l1.2,0.7l1.2,0.2l1.8,0.6l0,0.9l0.2,0.9
		l0.5,1.1l-0.4,0.8l-0.1,0.8l0.3,0.7l-0.4,0.8l-0.3,0.8l-0.9,0.8l-0.1,0.7l-0.1,0.7l-0.3,0.7l0.2,0.6l0,0.5l-0.9,0.5l0.5,0.7
		l-1.2,0.9l-0.1,0.6l-0.9,0.6l-0.3,0.6l-0.9,0.6l0.5,0.3l0.2,0.7l-1.1,0.3l-0.3,0.5l0.2,0.5l0.2,0.4l0,0.3l0.5,0.2l-1.2,0.6l0.2,0.4
		l-0.8,0.3l-0.3,0.4l-0.8,0.4l-1.1,0.4l-0.6,0.3l-0.5,0.3l-0.8,0.1l0,0.3l-1.3,0l-0.5,0.3l0.7,0.2l0,0.2l0.2,0.2l0.2,0.2l-1.3,0.2
		l0,0.2l-0.2,0l-0.2,0.1l0,0.1l0.2,0l0.5,0.1l1.2,0l0.5-0.1h1.4l-0.7,0.1l0.7,0l-0.7,0l-0.1,0.1l-0.7,0.1l0.4,0l-1,0.1h0.4l-1.2,0
		l1.8,0.1l2.5-0.1l2.4-0.1l2.1-0.1l1.9-0.1l1.8-0.2l2.1-0.2l1.7-0.1l2.3-0.2l1.3-0.1l1.3-0.2l0.9-0.1l0.1-0.1l0.2,0l-0.1,0l0.8-0.1
		l2-0.3l-1.8,0.2l1.5-0.2l0.7-0.1l1.4-0.2l0.4-0.1l-0.2,0l-2.2,0.3l-1.3,0.1l0.2-0.1l-0.3-0.1l1.1-0.2l1.3-0.1l1.3-0.1l2.3-0.3
		l2-0.4l0.4-0.1l-0.3,0l1-0.3l0.7-0.2l-0.8,0l0.4-0.2l0.6,0l2.2-0.4l2.2-0.4l1.5-0.3l2-0.4l2-0.5l1.5-0.4l1.9-0.5l0.8-0.3l1.5-0.5
		l1.3-0.5l0.1-0.3l-1.2,0.2l-0.4-0.1l1.1-0.5l-0.8,0l-2.3,0.3l-0.3-0.1l0.7-0.4l1.2,0l2-0.4l0.8,0l1.6-0.3l1.8-0.5l1.9-0.4l1.5-0.4
		l1.7-0.6l1.5-0.6l0.5-0.4l1.7-0.7l1.6-0.8l0.9-0.6l1.5-0.7l1.8-0.8l1.8-0.8l1.4-0.8l1.4-0.9l0.9-0.7l1.4-0.9l1.6-1l1.5-0.8l0.9-0.5
		l0.9-0.8l0.6-0.7l0.1-0.6l0.5-0.9l0.4-0.7l1.6-1l1.6-1.1l1.8-1.2l1.6-1.1l1.7-0.8l2-1.2l0.9-0.2l1.7-1.3l1.5-0.6l-0.3-0.3l2.1-1
		l1.4-0.5l1.5-0.6l1.5-0.8l1.5-0.7l0.3-0.7l1.7-1.1l1.7-1.1L430.5,424.7 M286.9,141.5l0.1,1.1l-0.3,1.3l1.1,0.4l0.4,1.7l0.3,1.9
		l1.8-0.7l1.8-0.1l1-1.8l0.3-1.9l-1.2-1l1.6-1.2l0-1.8l-1.3,0.3l-1.2-0.7l-1.3,0.2l-0.7,1l0.2,1.8l-1.4-0.6L286.9,141.5L286.9,141.5
		z M269,137.6l0.5,1.4l-1.1,0.7l0.2,1.4l1.4,1.2l1.4,0.7l0.7,1.5l-1.9,0l-1.5-0.9l-1.3-0.6l-1.1,1.9l0.7,1.5l1.5,0.9l-0.8,2.4
		l1.7,0.6l2.1,0.7l2.3,0.1l1.9,0.2l1.9-0.5l0.4,1.5l1,1.5l1.7,0.2l1.8-0.5l0-1.4l1.5,0.2l0.9-1.4l-1.6-1.2l-1.1-1.4l-0.4-1.6
		l1.2-1.7l0.4-1.9l0.4-1.4l1.7-1.1l1.1-0.9l-0.3-1.2l-1.5-0.5L283,139l-1.5,1.2l-0.8-1.7l-1.5-0.1l-0.5-1.2l-2,0.4l0.9-1.8l-1-0.6
		l-1.4,0.3l-1.5-0.1l-1.4,0.1l-0.7,0.8l-1.4,0.3L269,137.6L269,137.6z M208.4,171.7l-1.4,1.7l0,1.4l-1,1.7l-0.5,1.7l0,2.3l0.8-1.9
		l0-1.4l1-0.7l0.9-1.8l1.7-0.9l-0.8-0.9L208.4,171.7L208.4,171.7z M205.9,188.1l-0.3,2.3l0.4,1.7l0.4,1.7l-0.7,0.6l0.5,1.3l0.1,1.3
		l0.8,0.7l-0.5,0.8l0.7,1.8l0.6,1.3l1.2,0.1l0.1-2l-0.3-2.3v-2.1l0.3-2.2l-0.8-1.5l-1-1.7l-0.5-1.8L205.9,188.1L205.9,188.1z
		 M372.5,138.4l-0.7-0.6l0.2-1.4l-1.6-1.1l0.3-1.1l1.1,0.7l1.4,0.9l1.2-0.3l0.7-1.1l-1.4-1.3l-1.2-1l-1.8-0.4l-1.8-0.1l-1.6-0.2
		l1.5-0.3l1.6-0.3l-0.8-1l-1.6-1l-1.1,0.3l0-1l-0.1-0.8l0.7-0.9l-1.1-0.8l-1.2,0.3l0.6-1.9l-1-1.2l-0.7,0.7l-1.2-1.5l-1.5-1.1
		l-1.8-0.8l-1.1,0.6l-1.1-0.9l-0.2-1.1l1.5-0.6l-0.9-0.8l-1.9-0.7l-1.4-0.3l-1.3-1.2l-1.4-0.7l-0.5-1l-1.1-1l-1.1-1.2l-1-1.4
		l-0.6-1.2l-1.1-1.9l-1.6,0l-1.3,0.9l0.5,1.2l-0.7,0.3l0.4,0.9l0.1,1.1l-0.4,1.1l-0.9-1.3l-0.2-1.1l-0.3-0.5l-1-0.4l-0.5,0.7
		l0.8,0.6l-0.4,0.6l-1.1-0.8l-1.6,1.2l0.1-0.8l1-0.7l0.8-1.2l-0.1-1.1l-1.3-0.1l-1.1,0.4l-1-0.3l-1.6,0l-1.3,0.8l-1.6,0.7l-0.7,1.2
		l-1.2,1.3l-0.3,1.4l0.4,1.2l-1.5,0.4l0.4,1.4l-2-0.5l-2.1,1.3l-1.1,1.2l0.7,0.9l-0.1,0.9l-1.1,0l-0.5,0.9l-0.8,1.3l-0.4,1.4
		l1.7-0.2l0.6,1l-0.4,1.8l-2,0.8l-1.1,0.9l-1.5,0.6l-0.5,1.3l0.1,0.1l1,0.8l1.1-0.2l0.4,1.1l1.4,0.6l-1.3,0.4l-0.9,0.8l0.9,0.7
		l1.4,0.6l-0.6,0.8l1,0.7l1.9,0.5l1-0.8l1.7-0.4l1.6-0.2l1.8,0.8l1.7,0.2l0.4,1.1l1.2,0.9l1.5,1.3l0.6,1.6l1.3,1.1l0.7,1.3l0.4,2
		l1,1.2l0.1,1.7l0.9,0.7l1.4-0.4l0.3-1.3l1.4,1.7l1.6,0.1l1.1,1.5l-2.3-0.4l-1.7,0.4l0.3,2l0.4,2l1.9,0.8l1.6-1.1l0.5-1.8l1.5,1.7
		l0.8,2.5l-2,0.6l-0.4,1.6l0.3,2.1l0.6,2l1,1.6l0.6,1.7l2.2,1.2l1.4,1.8l0.8,2l1.5,0.8l0.7,1.4l2.5,2.1l0.9,1l1.8,1.7l1.5,1.4
		l2.5,1.4l2.3-0.5l1.8,0l1.6,1l2.6,0.3l0.8-1l-0.2-2l-0.8-1.7l-0.5-1.8l-0.2-2l-1.8-1.9l0.7-1.7l0.1-2.1l-0.6-1.8l-0.9-1.6l-2.1-1.7
		l1.5-0.4l-0.4-1.5l1.1-1.3l1.9-1l0.9-1.9l0.3-1.6l0.2-1.6l-0.4-1.5l-0.5-1.5l-0.1-1.8l0.3-1.3l1.3-0.9l0.6-1.6l0.8-1.3l0.5-1.6
		l0.2-1.4l-0.1-1.6l0-1.6l-0.4-1.3l-1.3,0.7l-1.8,0.3L372.5,138.4L372.5,138.4z M386.9,149.1l1-0.4l0.4-1.1l1.1-0.2l0.2,1.6
		l-0.3,1.9l1.4-1.3l1.9,0.8l0.4,1.8l1.8-1.7l1.7-0.3l1.7-0.8l0.1-1.9l0.6-1.1l-0.2-1.8l0.4-1.9l-0.8-2l-1.8-1.3l-1.5,0.4l-1.8-1.3
		l-0.5,1l-1.2,0l0.5,1.3l-0.1,1.1l-1.1,0.2l-0.6,1.1l0.4,1l-1.2-0.1l1.3,1.3l-0.6,1.4l-1.7-1.4l-1.6-0.2l-0.9,0.4l0.7,0.6l-0.6,0.6
		l0.8,1L386.9,149.1L386.9,149.1z M287.3,66.5l-1.7-0.4l-1.1,0.3l-0.7,0.7l-0.8,0.9l-1,0.1l-0.3,0.8l0,0.9l0.6,0.3l1.1-0.2l0.5-0.3
		l1.7,0l-0.2-1l2.4-0.1l0.6-0.9L287.3,66.5L287.3,66.5z M321.4,66l-1.4,0.4l-1.7-0.1l-1.4,0.3v1.1l0.8,0.7l1.1,0.6l0.8-0.3l0.6-0.9
		l0.7-1L321.4,66L321.4,66z M325.9,71.2l-0.1-0.9l-1.2-0.6l-0.3-1l-1.4-0.5l-1.1-0.5l-1.1,0.1l0.1,0.9l-0.6,0.9l0.5,0.8l1,0.5
		l0.2,0.8l-0.4,0.5l0.5,0.6l0.3,0.6l1.6-0.5l0.6-0.9L325.9,71.2z M372.2,73.5l0.3-1.1l0.2-0.9l-0.8-1.1l-1.1-1.1l-1.1-0.4L370,70
		l-0.7,0.7l-1.2,0.6l-1.4,0.4l-1.6,0l-1.7-0.1l-1.7-0.1l-1.7,0l-1.9-0.2l-1.7,0l-1.9-0.3l-2-0.3l-1.6-0.5l-1.8-0.4l-1.7-0.3
		l-1.3,0.7l0.5,0.7l1.8,0.3l1.3-0.1l1.8,0.6l1.3,0.9l2.1,0.5l1.6,0.1l1.1,0.1l1.8,0.6l0.9-0.3l2.2-0.1l1.9,0.3l0.6-0.6l1.5,0.4
		l2,0.1l0.8-0.4l1.5,0.5L372.2,73.5L372.2,73.5z M437.9,167.6l1.4,0.7l1.2-0.1l0.6-1.5l0.2-1.6l-0.2-2l0.6-1.6l-1-1.2l-1-1.3
		L438,158l-1.3-0.7l-0.4-1.8l-1.6-0.9l-1.2-0.3l-0.8,0.7l-0.8,0.9l-0.1,1.5l0.8,1.6l0.9-0.3l0.4,1.1l-0.5,0.8l-0.6,1l0.7,1.2
		l0.9-0.3l0.2,1.4l1.4,0.1l0.5-0.7l0.9,2l1.1,1.6L437.9,167.6L437.9,167.6z M114.7,218.5l-0.4,0.9l-0.3,0l-0.4,1.6l-0.4,0.6l0,1.1
		l0.3-0.2l0.3,0.2l0.3,0.6l0.4,0l0.1-1l0.2-0.9l0-0.9l0-0.9C114.7,219.5,114.7,218.5,114.7,218.5z M237.6,46.3l-1.2,0.5l-0.7,0.3
		l-0.7,0.5l-0.3,0.3l-0.1,0.2l0.3,0.1l-0.4,0.4l-0.3,0.4l-0.6,0.6l0.5,0.1l0.4,0.1l1,0l1-0.1l0.7,0.1l0.2,0.3l0.1,0.3l0.1,0.3
		l0.9-0.2l0.7,0l0.3,0.3l1.5-0.5l1.4-0.4l0.6,0l1.5-0.6l1.2-0.6l0.2-0.6l1.5-0.8l-0.1,0.4l0.7,0.1l1-0.5l0.1-0.5l0.7,0.1l0.7,0.1
		l1.3-0.6l1.5-0.5l0.5,0l-1,0.7l-0.6,0.7l-0.7,0.7l-0.5,0.7l-0.1,0.7l-0.3,0.5l-0.5,0.7l-0.5,0.6l0.1,0.4l0,0.5l-0.6,0.7l0.1,0.4
		l-0.5,0.7l-1.4,0.9l-1.5,0.9l-1.4,0.8l-0.8,0.2l-0.3,0.6l-1.7,0.8l-0.9,0.7l-1.1,0.6l0.3,0.1l0.5,0.2l-0.5,0.5l-1.3,0.6l-1.1,0.6
		l-0.5,0.5l-1,0.3l0.2-0.6l-0.9,0.2l-0.9,0.7l-0.8,1l-0.1,0.5l-1.1,0.7l-1.3,1.2l1.1-0.3l1-0.7l0.8,0.4l0.4,0.6l0,0.8l0.4,0.7
		l0.4,0.7l-0.6,1l-0.8,0.9l-1.1,0.7l-0.4,0.9l-1.1-0.6l-1,0.1l-1.2,0.3l0.1,0.9l0.2,0.7l0.4,0.6l-0.4,0.7h1.2l0.9,0.4l-0.6,1.2
		l-0.8,0.4l-0.1-0.7l-0.1,0l-1.2-0.2l-1.5-0.1l-0.7-0.3l0.4-0.9l0.1-0.8l-0.6-0.4l-0.4-0.7l-0.2-0.9l-0.7-0.4l-0.3-0.7l-0.2-0.8
		l0.3-0.8l0.8-0.8l-1,0.2l-0.6-0.4l0.4-0.8l-0.9-0.3l-0.9-0.2l-1.3,0l-1.1,0.2l-1.4,0.3l-1.2,0.3l-1.6,0.3l-1.5,0.3l-1.9,0.6
		l-1.3,0.3l-1,0.2l-1,0.4l-0.2,0.7l0.1,0.6l0.7,0.4h1.2l0,0.7l-1,1l1.1-0.3l1.1-0.1l0.2,0.5l-0.5,0.9l-0.8,0.7l0.2,0.4l1.6-0.7
		l1.4-0.3l0.7,0.3l-0.1,0.6l-1.1,0.6l0,0.5l1.5-0.4l0.9-0.6l1.1-0.1l0.6,0.5l1.3-0.8l0.1-0.6l1.3-0.3l0.7,0.4l0.5,0.6l0.9,0.2l1,0.1
		l-0.4,0.9l-1,0.7l0.4,0.6l-0.3,1l-1.7,0.1l0.6,0.7l0.1,0.7l-0.2,0.8l-1,1.1l-1.3,0.9l-1.4,0.7l1.2,0.2l0.1,0.9l0.4,0.9l0.5,0.8
		l0.6,0.8l-0.2,0.9l0.6,0.7v1l0.4,0.8l-0.6,1.4l-1.2,1.1l1,0.6l1.3-0.7l1.8-0.8l1.8-0.5l1.2-0.4l0.4-0.9l1.4-0.2l-0.8,1.3l0.4,0.9
		l0.3,0.4l0,0.1l0.3,0.2l1.5,0.2l1.4-0.9l0.8,0.8l-1.4,0.4l-1.5,0.6l-0.6,0.9l0.3,0.6l-0.9,1.2l-1.5,0.5l-1.1,1l-1.4,1.5l-0.8,1.3
		l1.4-0.1l1,0.4l1.7-0.4l-0.2,1.2l1.1,0.3l0.8,0.6l1.6-1.4l1.6-1.2l0.8-1.7l0.3-1.4l1.6-0.8l1.4-1l1.5-1.2l1.2-1.3l1.4-1l1.5-1
		l0.1,0l0.3-0.2l1.3-1.1l1-1.2l1.4-1.1l0.7-1.3l0.9-1.2l0.9-1.1l1-1.2l-1.9-0.1l-1.6,0.3l-0.5-0.5l0.2-0.7l1.2-0.2l1.1-0.8l1.1,0
		l-0.5,0.8l0.7,0.3l1.2-0.9l-0.7-0.6l-0.4-0.6l1.3-1.1l1.4-1.3l1-1.4L254,74l1.6-0.8l0.9,0.6l1.5,0l1.3-0.5l1.2-0.9l1.4-1l0.7-1.1
		l0.9-0.7l0.7-0.8l0.9,0.3l1.4-0.3l0.8-0.6l1.2-0.2l1.4,0.4l1.5-0.6l1.4-0.9l2-0.6l1.5-0.6l1.4-0.6l1.8-0.7l-1.2-0.2l1.3-0.7
		l-0.1-0.5l-1-0.3l-1.4-0.3l1.7-0.7l1.8-1l1.2-0.1l0.7-0.5l0.2-0.6l1.3-0.1l1.7,0.2l-0.3-0.7l-0.4-0.7l0.3-0.8l1.3-0.1l1.6,0.3
		l1.5,0.5l-0.2,0.9l0.4,0.9l2,0.4l1.9-0.2l2.4-0.2l1.9-0.5l-0.2-0.6l-0.9-0.4l1.3-0.5l2.2-0.3h1.8l0.2,0.7l1.5-0.2l1.5,0.1l1.1-0.3
		l1.1-0.4l1.2,1l-0.3,0.7l1.3,0l0.4-0.4l-1.4-0.3l-0.4-0.7l1.1-0.1l0.9,0.2l1.1,0.2l0.6-0.5l-0.8-0.4l1.4-0.4l1.3-0.3l1.2,0
		l-0.7,0.8l-0.1,0l-1.1,0.3l-1.3,0.8l-1.3,0.7l-1.3,0.9l-1,0.7l0.1,1l0.5,0.8l1.1,0.6l1.2,0.2l1.4,0.1l1.2-0.1l0.3-0.5l1.3,0l-0.9,1
		l1.3,0.1h1.5l-1.5,0.7l1.6,0.7l1.3-0.7l1.4-0.8l0.1-1l1.8,0.1l-0.3-0.7l2.6-0.1l-0.5,0.6l2.2-0.3l1.3,0.2l1.2-0.5l1.6-0.1l2-0.1
		l1.4-0.4l1.2-0.4l0.5-0.6l0-0.8l1.9,0.3l1.7,0.1l1.9,0.4l1.8,0.4l0.4-1.1l0.7-0.8l-1.2-0.7l-0.1-0.9l1.6,0.2l0.5,1l0.8,0.7l1,0.4
		l0.4,0.6l1.2-0.1l-0.8-1l0.9,0l0.4,0.7l1.1,0.1l0.2-0.8l-1.1-0.9l-0.1-0.6L350,59l1.4,0.9l-0.9,0.7l-1.2,0.4l-0.6,0.8l0.4,0.9
		l0.6-0.1l-0.4-0.7l0.5-0.5l1.1-0.3l1.2,0.2l1.5-0.4l-0.1-0.7l0.2-0.8l1.3-0.3l1.1-0.5l0.8-0.8l-1.7-0.9l1.5,0.1l1-0.5l0.6-0.8
		l1.8,0l1.4-0.2l1.9,0.2l1.6,0.3l0.5,1.1l-2.3-0.5l-1.5,0l-1.6,0.1l-0.8,0.5l-1.2,0.3l0.4,1l-1,0.6l-1.2,0.7l-1,0.6l-1,0.6l0,0.9
		l-1.4,0.3l-0.1,0l-1.1,0.3l-0.7,0.5l0.9,1l-0.8,0.2l-0.2,0.7l1.3,0.2l1.4-0.3l1.4-0.3l1.2-0.5l1.4-0.3l1.9,0.3l1.1-0.4l0.4-0.7
		l1.3-0.2l0.7-0.3l-0.6-0.7l0.5-0.8l-0.3-0.7l1.6-0.2l0.4,0.7l0,0.7l0.8,0.8l0.4,0.8l0.8,0.7l0.3,1l1,0.9l0.7,1.3l-0.1,1.1l1.3,0
		l0.1-0.6l-0.3-0.9l0.5-0.5l0.2-0.7l1.2,0.2l0.9,0.4l0.9-0.3l0.5,0.6l-1.5,0.4l1.3,0.5l1.7,0.4l0.8,0.9l1.1,0.7l1.2,0.1l-0.2,0.8
		l-1.3,0.4l1.5,0.6l1.5,0.6l1.4,0.8l1.4,0.6l1.6,0.8l1.2,0.7L388,74l1.4,0.7l0.8,0.9l-0.6,0.5l0.2,0.9l-1.7-0.4l-1.1-1l-1,0.5
		l-0.3,0.6l0.8,1l0.3,1.1l0.7-0.9l1.8-0.1l1.8,0.2l0-0.6l1.5-0.1l1.4,0.5l0.1,0.7l0.4,1l1.5,0.6l1.5,1l1.6,0.9l1-0.5l1.2-0.5
		l0.5,1.2l0,0.8l-0.2,0.9l0.2,0.9l1.3,0.5l0.9-0.7l-0.5-0.8l1.6,0.1l0.8,1.4l-0.7,1l-0.2,1.1l-1.6-0.2l-1.4-0.1l-1.6-0.1l-0.9,0.9
		l-0.4,0.8l-1.4,0.4l0.7-0.8l0-0.1l0-1l0.3-0.9l-0.2-0.9l-0.3-1l-0.1-1.1l-1-1.2l-1.5-1.1l-1.5-0.6l-1.6,0l-1.1,0.3l-0.5,0.9
		l-0.2,0.9l-0.5,0.9l-0.6,0.9l-0.2,1l0.1,1.2l0.3,1.3l-1.1,0l-0.2,0.9l0.9,0.8l0.2,1.1l-0.8,1l-0.1-1.1l-1.6-1.1l-0.5,0.8l-0.5,0.9
		l-0.2,1.1l2.3,1l-1.4,0.1l1.4,1l-2.1-0.3l0.8,0.8l1.3,0.7l-0.7,0.7l1.1,1l1.6,1l0.8,1.3l0,0.1l0.1,1.1l0.1,0.1l1.8,1.1l0.6,1.2
		l1.2,0.3l0.3-0.5l1.2,1.2l-1.2-0.2l0.9,0.9l-1.8-0.7l1.2,1.1l0.9,1.1l0.9-0.3l0.6,1.5l1.5,1.2l-1.2-1.5l-0.3-1.1l-0.3-1.2l1.8,1.7
		l1.4,0.8l1.5,1.3l1.5,1l1.4,0.8l1.4,1l1.7,1.1l1.1,1.4l1.9,1.5l1.3,1.2l1.3,1.3l-0.9,0.3l1.3,1.1l1,1.1l0,1.3l1.2,1.5l0.9,1.3
		l0.9,1.5l1.2,0.1l1,1.1l1.4,0.5l1.4,0.6l1.5,0.1l1,1l1.1,0.4l0-1.2l0.9,1.3l1.3,0.9l0.9-0.1l1-0.7l0.5-1L431,127l-1-1.2l-1.2-1.7
		l0.1-0.7l-1-1l0.9-0.3l1.9,0.6l1.7,0.3l0.1,0l1.8,0.4l1.6,0.3l1.4-0.2l1,0.9l1.4,0.2l1,0.5l0-1l0-0.9l-1-0.4l-1.3-1.4v-1l0-0.9
		l-1.9-1.4l-1.9-1.1l-1.4-0.8l-1.6-0.7l-1.1-0.7l-1.2-1.5l-0.9-1.4l-0.5,0.3l-0.9-1.1l-0.9-0.6l-1.1-0.1l-1,0.5l-1,0.5l-1.4-0.4
		l-1.7-0.8l-1.7-0.7l-0.9-0.7l-1.8-1.4l-1.2-1.3l-0.9-1l-1-1.2l-1.2-0.7l-1.2-1.1l-0.7,0.5l-1.2-0.9l-0.8-0.1l-0.7-0.8l-1.2-0.7
		l0.1-0.8l-0.2-0.7l-0.4-0.8l0.9-0.7l1.7,0.3l0.8,0.9l1.9,1.1l1.6,1.3l1.9,1.4l1.6,1.4l1.8,1l1.7,0.4l1.6,0l1.7,0.9l1.1,0.3l0.7-0.7
		l0.7-0.4l0.3-1.1l-0.5-1.3l-0.9-1.4l-0.9-1.4l-0.9-1.3l-0.5-1.5l1-0.7l-0.6-0.9l1.1-0.2l-0.1,1.2l1.4,1.4l1,0.8l0.5,1.5l-0.2,1.1
		l0.6,1.3l0.5,1.2l1,1.2l1.4,0.4l1.3,0.1l0.1-0.7l1.6,0.5l1.6,0.5l0.9,1l-0.1,0.7l-1,0.1l-0.7,0.4l0.5,1.2l1.7,1.1l1.1,0.9l1.8,0.7
		l1.6,0.5l1.6,1.2l2.3,2.5l0.6,1l0.1,0.9l-0.1,0l-1.4-0.2l0.3,1.4l0.6,1.5l1.1,1.6l0.3,1.4l0.8,1.7l-0.3,0.7l-0.6,0.6l-0.5-0.9
		l-1.1,0l0.7,1l0.2,1.2l0.4,0.9l0.7,1.2l-0.1,0.9l-1-0.8l-0.9,1l-0.8-0.4l-0.9,0.5l-1.5-1.4l-1.5-1.5l-0.4-1.3l-1-0.5l-0.1,0.9
		l-1-0.6l-1.3-1.1l-1.1-0.5l0.1,1.1l1,1.1l0.1,1.2l0.7,1l1,0.8l1.6,0.9l1.3,0.6l0.9-0.3l1.6,0.9l1.1,0.1l0.4,0.8l0.9-0.1l0.7,1.1
		l1,0.7l-0.7,0.5l-0.2,1.1l0.7,1l-0.3,1.5l0.3,1.3l1.3,0.8l0.4-0.5l0.7,0.5l0.6,1.2l-0.7,0.3l-1.5-1l0.1,0.7l1.2,1.1l0.9,1.1
		l0.8,1.2l0.8,1.4l0.2,1.3l0.4,1.6l0.2,1.3l0.9,1l1.2,1.1l0.2,1.1l0.5,5.2l-1.3-0.6l-0.4,1l1.6,0.6l1.7,1.1l-0.4,1l-0.3,1.3
		l-1.2-0.2l-0.3,1.3l0.1,1.3L453,168l1.4,1.1l0.8-0.3l0.4-0.9l1.1-0.4l0.7-1l0.6,0.1l1.2,0.1l0.6,0.7l0.9,0.2l1-0.3l1.3,0.6l1.5,1.6
		l1.4,1.6l1,1.2l1.3,1.7l0.1,0.1l0.4,1l-0.2,1.2l-0.7,0.9l-0.9,1.3l-0.3,2l-1,0.8l-0.9,1.2l-0.6,1.6l-0.7,1.2l-1.4,0.7l0.7,1.7
		l-0.5,1.3l0.3,1.1l1.8,0.8l0.9,1.3l0.9,0.8l1.3,1l0.9,1.3l0.9,1.7l1.2,1.8l0.4,1.6l1,1.5l1,0.4l0.5-0.8l1,1.6l1.1,1.4l0.7,1.5
		l0.5-1.4l0.8-0.7l0.1-1.3l0.5-0.8l1.1-0.3l0.7,0.3l1.4,0.7l0.9-0.6l-0.4-2.2l0.2-1.5l0.4-1.4l0.6-1.2l0.6-1.2l0.5-1.2l-0.6-1.8
		l-0.7-2.3l-0.1-0.2l-5.9-13v-0.1l-0.1-1.3l0-1.5l-0.5-2l-0.3-1.6l-1.5-1.2l-1.3-1l-0.3-1.7l-0.4-1.4l0.7-0.7l0.5-1.1l0.9-0.6l0-1.3
		l-0.7-1.6l-0.4-1.7l-0.2-1.5l-0.8-1.2l-0.3-1.2l0.4-0.8l0.5-0.3l0.4-0.9l1.3,0.9l1.2,0.4l1.2-0.1l0.9,0.6l0.1-1l1.1-0.1l1.1,0
		l0.7-0.5l0.1-1.3l0.9-0.2l0.6-0.3l0.2-0.5l1,0.3l0.4-1l0.8,0.5l1,0.3l1,0.7l0.6,1l1,1.2l0.6,0.5l0-0.7l0-0.1l-0.6-0.8l-0.6-1.2
		l-1-0.8l-0.4-1.4l-1-0.9l-0.6,0.5l-1.2-1.4l-0.8-1.2l0.4-0.5l0.1-0.9l0.8,0.5l0.2-0.5l-0.9-1l-0.9,0.2l-0.6,0.5l-0.6,0.5l-0.6,0.7
		l-0.4,0.7l-0.8-1.2l0,1.7l-0.6,0.7l-0.7,0.5l-0.7,0l-1.1-0.7l-1.1-0.3l-0.7,0.5l-0.7,0.3l-0.9,0.1l-0.9-0.5l-0.9-1l-0.7,0l-0.9-0.8
		l0-0.8l-0.6-1.4l0.3-0.8l0.7,0.8l0.9,0.5l0.7,0l-0.4-1l-0.9-0.8l0.9-0.6l1.1,0.6h0.7l0.9,0.6l0.7-0.6l0.6,0l0.2-1l1-0.7l1-0.4
		l0.6-0.7l0.7-0.4l0.5-0.5l1.1,0.9l1.5,1.3l1.2,1l0.5-0.4l0.9,0.1l0.7,0.1l1.1,0.3l0.9,0l-0.1-1.4l-0.5-1.7l0.6-0.1l-0.1-1.1
		l0.6-0.4l-1.4-1.1l0.1-0.9l-0.2,0.5l-0.7-0.4l-0.2,0.5l-0.4,0.2l-0.7-0.3l-0.7,0.1l-0.9-0.1l-1.4-1.2l0.8-0.3l-0.2-1l-0.7-0.8
		l-0.5,0.1l-0.2-1l-0.7-0.9l0-0.9l-0.4-1l-0.1-1l0.6-0.1l-0.5-1.1l1,1.4l0.6,0.4l0.1,0.1l1.4,1.3l-0.7-1.8l0.7,0.8l1.3,0.9l0.5,0.1
		l0.4,0.7l-0.4,0.3l0.8,0.8l0.1-0.7l0.1-0.6l0.8,0.8l0.3-0.4l1,1.3l-0.3-1.1l-0.3-1l0.7,0.8l-0.4-1.2l0.4-0.7l0-0.8l-1.1-2l-1-1.1
		l-0.3-1.1l-0.1-1.1l0.5,0l-0.1-0.7l-0.8-1.2l-0.4-0.8l-1.2-1.6l-1.1-1.4l-0.2-1l-0.3-0.7l-1.3-1.6l0.4,0.2l1.1,1.2l0.5,0.2l0.9,0.9
		l1.4,1.1l0.9,0.7l1.2,1.4l1.4,1.5l1.2,1.4l1.2,1.2l1.1,1.2l1.3,1.6l1,1.3l0.9,1.8l0.7,1.4l-0.1,0.3l0.8,1l0.1,0.6l-0.7-0.8l0.5,1.3
		l0.7,1.5l1,1.8l0.9,1.6l0.6,1.3l0,0.8l0.4,1.3l0,0.8l0,0.6l0.2,1.2l0.2,1.1l0.5,1.5l-0.7-0.3l0.3,1.3l0,1l0.1,1.1l-0.8-0.6
		l-0.1,0.9l0.1,1.3l0.4,1.5l0.5,1.7l1,2.2l0,0.1l2.9,3.5l0.1,0l0.6,1.3l0.4,1.3l0,1l-0.6,0.4l-0.5,0.8l-0.2,1.5l-0.1,1.2L503,167
		l-0.1,0l-0.4,0l-1-1.1l-0.3,0.9l-0.5,0.7l-0.2,1.2l-0.2,1.5l-0.1,1.5l-0.4,0.7l-0.6,0.7l-0.9-0.6l0.1,1.2l-0.5,0.5l-0.9-0.8
		l-0.4-1.3l-0.6-1.7l-0.9-1.5l-0.9-0.8l-0.5,0.4l-1.3-1l-0.3-1.1l-0.9-1.5l0.4,2l-1.2-0.6l-0.3,0.9l0,1.2l0.4,1.5l0,1.3l-0.7,1.2
		l0.2,1.3l-0.7,1.2l0.4,1.5l-0.1,1.3l-0.5,0.3l-0.5,1l-0.3,1.2l0,1.1l-0.3,1.1l0,1.5l-0.3,1.6l-0.4,1.8l0,0.1l0,6.1l0,0.1l0.5,1.3
		l-0.1,2.1l-0.3,1.3l-1.1,0.6l-0.2,1.1l-0.7,1.4l-0.3,1.1l-1.4,0.5l-1-0.4l-0.4,1.2l0.8,1.9l0.7,1.5l0.5,1.7l0.5,1.7l0,2.1l-0.4,1.7
		l-0.1,1.7l0.4,1.9l0.1,1.8l0.6,0.9l0.4,1.7l0,1.4l1.5,2.4l0.9,0.5l0.7,2.2l0.2,1.9l0.1,2.1l-0.4,2l0.2,1.9l-0.6,2.2l-1,1.8l0.1,1.9
		l0.5,1.8l0.1,1.5l-0.4,1.8l0,1.3l0.5,1.8l0.3,1.6l0.4,2.3l-0.2,2.2l0,2l0.1,1.8l0.4,2.6l0.1,1.8l-0.3,1.5l0.4,1.7l0.4,1.7l1.2,0.1
		l1.2,0.4l0,0.1l0.5,1.4l-0.3,1.7l1.2,0.8l0.8,1.1l0.5,1.5l0.3,1.7l0.2,1.9l0.1,1.9l0.6,2l-0.3,1.9l-0.1,1.8l-0.6,1.7l1-0.2l0.9,0.9
		l0.6,1.5l0.2,1.7l0.4,1.7l1-0.2l1-0.2l0.7-1.2l0.6,1.8l0.9-0.5l0.9,0.4l0.7,0.6l0.9-0.3l1,0.2l0.8,0.4l0.4,1.2l0.4,1l0.5,0.8
		l1.1,0.2l1-0.5l0.9-0.5l0.9,0.1l1.2-0.7l1,0.2l0.8-0.1l0.9-0.3l1-0.3l0.8-0.8l0.6-0.8l0.6-2.2l0.8-1.7l0.5-1.9l0.8-1.7l0.7-1.7
		l0.5-1.3l0.6-1.3l1-1.4l0.6-1.1l0.7-0.8l0.4-1.8l0.4-1.6l0-0.1l1.8-7l0.1-0.2l0.1-1.6l0.4-1.9l0.4-1.6l0.4-1.3l0.4-1.8l0.4-1.5
		l0.4-0.8l0.5-0.2l0.4,1.2l0.3,1.4l0.4-0.6l0.3-1.3l0.3-1.6l0.2-1.6l0.2-1.3l0.2-1.3l0.2-1.1l0.2,1.1l0.2-0.9l0.2,0.5l0.2,0.2l0,2
		l0.1,1.8l0,1.6l-0.1,1.8l0.1-0.5l-0.1,1.8l0,1.3l0,0.5l0,1.1l-0.2,2.2l0.1,0.7l0,0.9l0.1,0.2l0.1-1c0.6-6.4,0.9-12.9,0.9-19.5
		c0-120.4-97.6-218-218-218c-27.9,0-54.5,5.2-79.1,14.8 M448,165.5l0.6-0.6l-0.4-1.7l1.1-1l-1-1.2l0.3-1.3l1-0.8l-0.2-1.7l-0.1-0.1
		l-1.2-5.9l-0.1-0.2l-0.4-1.5l-1.1-1.3l-1.1-0.3l-0.8,0.6h-0.1l-6.1-0.2l-0.1,0l-1.3-0.4l-1.6-0.8l-1.2-0.2l-0.9,0.6l-0.4,0.9
		l-0.4-1.3l-0.7-1.3l-1.1-1.4l-0.9-1l-1.1-0.6l-0.5,1.1l-0.4,0.9l-0.2,1.2l-1.1-1.4l-0.5-1.8l-0.9-0.3l-0.3,1.4l-0.6,1.2l1.1,1.4
		l0.7,1.3l0.9,0.9l-0.8,0.3l0.2,0.8h1.1l0.5-0.9l1.2,1.7l1,0.8l-0.1-1.2l1.2,1.1l0.5,1.7l0.5-0.8l1,0.8l-0.8-1.7l1.3,0.2l1.4,1.9
		l1.2,0.3l0-1.5l0-1.5l1,1.4l1.3,0.1l0.3-0.8l1,1.4l1.2,0.9l-0.2,1.1l-0.9,1.2l0.8,0.3l0.7,1.3l0.5-0.9l1.4,1.2l0.1,1.2l0.2,1.5
		l0.8,0.3l0.3-1.3l0.6-0.6l1.1-0.2l-0.2-1.6l0.9,1.5l-0.4,0.8l-0.4,0.9l0.8,1.7l0.5,1.6L448,165.5L448,165.5z"/>
	<path class="st2" d="M528.4,215.1l0.1-1.1l0.3,0.2l0.3,0.9l0.1-1.3v-1.3l0.4,1.8l0.1,1.8l0.2,1.7h-0.2l-0.3-0.6l-0.2,0.2l-0.4-0.7
		l-0.3-0.2L528.4,215.1L528.4,215.1z M249,148.1l1.6,1.1l1.9,0.9l0.4,1.5l-1.7-0.1l-1.2-0.1l-2,1.2l1.6,1.3l1-0.8l1.8-0.2l-0.6,1.1
		l-1.8,1l3.2-0.2l0.3-1.8l1.4,1.6l1.4-0.9l1.3-0.7l-1.8-0.8l-1.3-1.3l1.4-0.1l1.5-0.1l-0.8-1.2l-2.2-0.1l-1.8-0.6l-1.7-0.4
		L249,148.1L249,148.1z M246.4,169.1l0.6,1.9l1.1,0.6l1.5,0.2l0.6,0.7l0.9-0.9l1.5,0.1l1.4,0.1l1.6-1.3l1.7-0.2l1.7,0.5l0-1l1.7,0.8
		l-1.1-1.2l-1.1-0.5l-1.5-0.1l-1,0.5l-1.4,0.7l-1.1-0.3l-0.7-1.1l0.1-1l-1.6-0.9l-0.2,1l0.1,1.5l-1.2-0.4l-0.8,1l-1.2,0.4
		L246.4,169.1L246.4,169.1z M249.7,181.9l1.3,1l1.2-0.8l1.5,0.1l1.6,0.8l1.7,0.1l-0.7-1l-0.9-0.4l-0.5-1.3l-0.8-0.4l-1.6,1l-1.3,0.4
		L249.7,181.9L249.7,181.9z M259.9,196.1l2.1-0.2l0.6-1.5l0.6-1.5l1.4-0.5l-0.2-2.1l-1.4,1.2l-1.1,0.9l0,1.7l-1,1L259.9,196.1
		L259.9,196.1z M263.3,209.3l0.3,1.4l-0.1,2l0.8,1.2l-0.4,1.2l1.6,0.5l-0.4,1.9l1.3-0.3l-0.7,1.4l-0.6,1.5l-0.5,1.5l1.5-0.3l1.3-2.3
		l-0.5-1.7l-0.3-2.4l0-2l-0.1-2l0.1-2l-1.1-0.7l-1.2-0.4L263.3,209.3L263.3,209.3z M259,208.8l0,2l1.2-0.6l0.6,1.2l-0.8,0.7
		l-0.6,1.8l0.9,1.3l0.9,1.9l-0.4,1.2l0.3,1.4l-0.6,1.1l1.8,0.2l-0.1-1.7l-0.4-1.1l-0.2-1.4l0.9-1.4l-1-0.6l-1.3,0.3l0.4-2.2l0.8-0.7
		l0.4-1.2l-1-1.6L259,208.8L259,208.8z M272.9,238l1.2,0.3l1.9-0.6l0.7,1.8l2.1-0.6l2.1-0.6l2.2-1.2l1.3,0.2l-1.9,1l-0.2,1.2l1.8,0
		l0.8,1.7l1.7,0.3l2.3-0.6l2.2,0l-0.1,1l1.3,0.2l-0.4-1.7l0.4-1.5l-0.7-1l0.2-1.3l-1.9-0.2l-0.9-1.4l-0.5-2l-2-0.3l-1.7-1.2l-1,1.1
		l-1.8,0.7l-1.1,1.1l-1.2,0.7l-1.8,0.3l-1.5,1l-1.7,0.9L272.9,238L272.9,238z M281.9,247.8l2.2-1l-0.9,1.5l-0.4,1.2l-0.8,2.1
		l-0.7,1.5v1.6l-0.3,2.2l0.6,2l1.2,0.2l1.2-0.4l0.9-1.2l0.8-2.1l0-1.9l-0.2-1.6l0.2-1.5l0.9-1.5l0.7-1.5l2.1-0.7l1.1-1.8l1.3,0.2
		l1,0.8l1.3,0.8l0.5,1.3l-0.2,2.2l-1.5,1.7l-0.1,1.3l1.2-1.2l1.4-0.5l0.5,2l0.5,2l1.9-0.8l0.2-2.2l0.8-1.8l0.6-1.5l-0.4-1.3l1.4,1.7
		l2.2,1.1l1-1.2l-1.2-2.3l-1.2-2l-2.4-0.8l-1.7-0.5l-1.8-0.2l-1.7-0.5l-1.3-0.1l0.3,1.3l-2.2-0.3l-1.1-0.4l-1.3,0.1l-2.7,0.3
		l-0.7-0.1l-1,1.1l-1.1,1.4L281.9,247.8z M292.8,260.1l1.8,1.1l1.6,0.2l1.7-0.2l1.7-0.8l1.7-0.5l1.9-0.8l1.7-0.9l1.2-1.2l-1.9-0.1
		l-1.9-0.1l-1,0.9l-1.1-0.4l-1.6,0.2l-1,1.2l-2,0.8l-1.6-0.2L292.8,260.1L292.8,260.1z M303.7,255.3l1.4,0.4l1.9-0.5l1.6,0.1
		l1.6,0.4l1.6-0.3l1.8-0.6l-0.2-1.9l0.5-1.3l-1.6,0.6l-0.9,0.9l-1.8-0.4l-1.4,0.2l-1.8,0.3l-1.6,0.5L303.7,255.3L303.7,255.3z
		 M498.9,130.1l-0.4-0.2l-0.4-0.2l-0.3-0.1l0.6,1.1l-1-1.3l-1.1-1.3l-0.9-0.9l1.4,1.8l1.3,1.7l0.7,0.8l0.6,0.9l-0.1,0.3l-0.2,0.1
		l-0.4-0.3l-0.3-0.1l-0.6-0.4l-0.6-0.4l0.6,0.9l0.5,0.2l0.7,0.6l0.5,0.3l0.4,0.1l0.2-0.1l0.6,0.6l0.3,0.1l0.6,0.6l0.4,0.3l0.5,0.5
		l0.5,0.4l0.3,0.3l0.4,0.5l0.1-0.1l0.7,1.1l0.4,0.5l0.4,0.5l-0.1-0.3l-0.2-0.4l-0.2-0.4l0.8,1.2l0.1,0.1l0.4,0.7L498.9,130.1
		L498.9,130.1z M474,120.1l0.8-0.1l0.9,0.3l0.5-0.4l0-0.9l-0.3-1.2l-0.7-1.5l-0.2-1l-1-1.4l-1-1.3l-1-1.3l-1-1.5l-0.3-1l-0.6-1.3
		l-0.7-1.1l0.5-0.2l-0.7-1.3l0.6,0l-0.4-0.8l0-0.6l-0.6-0.9l-0.2-0.7l-0.8-1.2l-0.9-1.2l-0.5-1l-0.9-1.2l-1.5-1.5l-1.2-1.2l-0.9-0.6
		l-0.4,0.1l-0.8-0.2l-0.1,0.2l0.2,0.9l0,0.6l-0.2,0.3l-0.4,0.4l-0.1,0.6l0.3,0.8l0,0.4l0,0.5l-0.6,0l0.3,0.6l0.8,1.1l0.3,0.8
		l1.1,1.2l0.7,1l0.9,0.9l0.9,1.1l-0.3,0.3l-1.2-0.8l-0.2,0.4l0.1,0.8l-1.4-1.3l-1-1.4l-0.2,0.7l0.9,1.3l-0.1,1l-1.1-0.9l0.5,1.2
		l0.4,1.1l1.3,1l1.2,1.2l0.8,1.3l1.2,0.5l1,0.8l0.7,1.2l1.1,1.1l1.1,0.6l1.3,0.9l0.6,1.2l1.3,0.9L474,120.1L474,120.1z M460.1,102.4
		l0.1-0.4l0.6,0l0-0.7l-1-1.2l-0.6-1l-0.4-1.1l-1.7-1.3l-1.6-1.3l-0.1,0.4l-0.4,0.2l-0.5-0.9l-1.4-1.3l-0.8-1.1l-0.1,0.4l0.8,1.1
		l1.1,1.5l1.6,1.6l0.9,1.4l1.3,1.4l1.3,1.1L460.1,102.4L460.1,102.4z M448.8,82.8l0.8,0.3l-0.2-0.5l0.6-0.1l0.7,0.3l0.9,0.4l0.5-0.2
		l0.2-0.3l-0.1-0.4l0.3-0.1l0.6,0.1l0-0.4l-0.6-0.8l1,0.9l1.2,0.9l1.3,0.8l0.8,0.5l0.7,0.7l1,0.5l0.8,0.4l0.8,0.5l-0.5-0.7l-1-1.1
		l0.2,0l-0.6-0.8l-0.7-0.8l-1.9-1.7l-1.7-1.5l-1.3-1.2l-0.8-0.5l-0.7-0.3l-1.2-0.7l-1.5-1l0.6,0.6l-0.5-0.2l-0.9-0.5l1.3,1.2
		l-0.5-0.2l-1.4-0.9l-0.7-0.8l-1.2-1.1l-1.7-1.2l0.1,0.4l0.1,0.3l-0.4,0l1.3,1.1l1.2,0.8l0.7,0.3l-0.4,0.1l-0.7-0.2l-1.4-0.9l-0.2,0
		l1.1,1.1l0.1,0.5l-0.8-0.2l-0.4,0.2l0.6,0.8l-0.7-0.3l-1.1-1l-0.6-0.7l-0.7,0l-1.6-1.1l-1.4-1.2l-0.4-0.7l-1.2-0.9l-1-0.9l0,0.3
		l-0.7-0.2l-0.8-0.1l-0.1,0.5l0.2,0.6l0.8,0.7l1,1l0.6,0.7l2.1,1.4l1.2,1.1l1.2,1l0.5,0.1l0.9,0.8l1.1,0.7l0.6,0.9l1.3,0.7l1.6,1
		L448.8,82.8L448.8,82.8z M429.4,65.2l1,0.3l0.2-0.1l1.1,0.4l-1.3-0.9l-1.3-0.9l0-0.1l-1.6-1l-2.1-1.1l-0.9-0.3l-1-0.6l-1.1-0.6
		l0,0.3l0.2,0.4l-0.5-0.1l-1.4-0.6l-1.3-0.6l1.7,1l0.1,0.2l1.6,1l0.6,0.2l0.3,0.4l1.3,0.5l0.9,0.7l0.8,0.5l1,0.3L429.4,65.2
		L429.4,65.2z M320.2,32.2l-2.2-0.1l-1.8,0.1l-1.6,0.1l-0.7,0.2l-1.7,0.2l-1.9,0.1l-1.1,0.2l-1.4,0.3l-0.8,0.3l-0.1,0.3l-0.2,0.4
		l-0.4,0.4l0.9,0.1l0.5-0.2l0.1-0.2l0.6-0.3l0.6-0.3l0.7-0.3l1.3-0.3l1.3-0.3l0.9-0.2l1.1-0.1l0.9-0.2l1-0.2l1.8,0
		C318,32.2,320.2,32.2,320.2,32.2z M418.8,94.6l0.8-0.5l1.2-0.1L422,94l-0.2-0.5l-0.9-0.5l-0.4-1l-1.2-0.6l-1-0.2l-0.9,0.2l-0.1,0.7
		l-0.6,0.4l0.3,0.8l1.1,0.9L418.8,94.6L418.8,94.6z M414.3,88.7l0.6-0.3l0.1-0.7l1.3,0.2l-0.3-0.6l-0.8-0.6l-1.1-0.1l-0.5,0.4
		l-0.9,0.2l-1.4-0.3l-0.4,0.6l-0.1,0.8l0.6-0.3l0-0.6l1,0.1l0.4,0.8L414.3,88.7z"/>
</g>
</svg>
