<?xml version="1.0" encoding="UTF-8"?>
<svg id="Warstwa_1" data-name="Warstwa 1" xmlns="http://www.w3.org/2000/svg" viewBox="0 0 264.01 110.98">
  <defs>
    <style>
      .cls-1 {
        fill: rgba(48, 118, 48, .82);
      }
    </style>
  </defs>
  <g id="g10">
    <path id="path2" class="cls-1" d="m84.97,110.92c1.6-.2,3.01-.77,4.27-1.72.81-.62,1.86-1.76,2.46-2.7.66-1.03,1.27-2.32,1.8-3.78.21-.59.71-2.45.8-2.96.01-.09.06-.33.1-.52l.07-.36.46-.11c.26-.06.66-.16.91-.21,1.67-.4,5.68-1.14,6.18-1.15.32,0,1.73.57,2.13.85.2.14.22.15.32.09.06-.04.12-.07.15-.07.05,0,.64.26.82.37.26.15,1.38.69,2.29,1.1.34.15.74.34.91.41.16.07.38.17.51.21.12.05.41.17.64.27.24.1.44.19.47.19.04,0,.48.19.68.29.04.02.11.04.14.04s.15.05.28.1c.2.1.63.25,1.23.45.15.05.29.1.33.12.03.02.17.07.31.11.23.07.66.21,1.04.35.1.04.23.07.3.09.07.01.13.04.15.06.01.02.06.04.1.04s.15.04.25.08c.1.05.22.08.28.08s.19.04.31.08c.11.05.5.17.87.27.36.11.77.23.89.27.13.04.28.08.33.08s.15.02.21.06c.11.05.3.11.46.14.05,0,.22.05.37.09.27.07.47.12.9.22.1.02.33.07.51.12,1.1.25,2.07.45,2.84.58.15.02.45.08.68.12s.53.09.67.1.33.04.42.06c.2.05.95.14,2.34.29.75.08,1.33.12,2.02.17.37.02,1.01.06,1.41.08.83.05,4.1.03,5.08-.03.34-.02.75-.05.92-.05s.42-.02.55-.04.62-.07,1.08-.12.91-.1.99-.12c.08-.02.23-.04.33-.04s.33-.03.51-.06c.32-.06.49-.09,1.05-.19.45-.07.71-.12.9-.16.1-.02.29-.06.44-.09.43-.08,1.21-.25,1.45-.31.29-.07.92-.22,1.14-.26.25-.05,1.04-.26,1.12-.29.04-.02.14-.05.23-.06s.23-.05.31-.08.38-.12.67-.21c.29-.09.66-.2.84-.26.17-.06.4-.13.51-.16s.26-.08.34-.12c.07-.04.17-.07.2-.07.04,0,.12-.02.19-.06.07-.03.23-.09.37-.13.13-.04.3-.1.37-.12s.26-.09.42-.14c.16-.05.37-.13.47-.17.11-.05.21-.08.23-.08s.11-.04.2-.08c.09-.05.18-.08.22-.08s.14-.04.23-.08c.09-.05.32-.14.5-.21.18-.07.45-.19.61-.25.15-.07.29-.12.3-.12s.13-.05.25-.1c.13-.05.38-.16.56-.23s.41-.17.51-.21c.1-.05.38-.17.64-.29.81-.36,1.03-.45,1.14-.52.06-.03.36-.17.66-.31.86-.41,1.77-.84,1.94-.94.08-.05.18-.1.21-.11s.08-.03.11-.04c.03-.01.15-.07.28-.14.12-.07.27-.14.33-.17.06-.02.14-.06.18-.08.04-.02.14-.07.22-.11.08-.04.18-.09.22-.12.04-.02.24-.14.46-.24.22-.1.48-.24.58-.31.1-.07.24-.14.31-.16.07-.02.29-.14.5-.26.21-.12.51-.29.69-.38.17-.09.43-.23.57-.31.15-.08.43-.24.64-.35.21-.11.5-.27.66-.37.16-.09.33-.19.37-.22.13-.07.56-.33.97-.57.19-.12.39-.23.44-.26.05-.02.26-.15.46-.27s.39-.23.42-.24c.02-.01.1-.06.17-.12.07-.06.17-.12.22-.14s.15-.07.21-.11c.07-.04.24-.14.4-.24.25-.14.4-.24.66-.39.59-.36,1.1-.68,1.21-.74.18-.09.39-.22.42-.26.03-.03.37-.24.56-.34.08-.04.28-.17.45-.28.16-.12.31-.21.33-.21s.11-.05.21-.12c.19-.12,1.27-.78,1.4-.85.04-.02.22-.13.4-.25.18-.11.39-.24.48-.29.08-.04.22-.12.29-.17s.15-.1.16-.1.17-.09.34-.2c.67-.42,1.22-.75,1.25-.75.01,0,.1-.05.19-.12s.18-.12.2-.12.1-.05.18-.1c.08-.06.15-.1.17-.1.04,0,1.26-.74,1.3-.79.01-.02.09-.06.18-.09.18-.07.3-.14.38-.22.03-.02.18-.11.32-.19.15-.07.26-.15.26-.17s.02-.03.04-.03c.05,0,.51-.26.52-.3.01-.02.03-.03.05-.03s.3-.15.62-.34.7-.4.84-.48c.15-.07.32-.17.38-.22.07-.05.14-.08.15-.08s.19-.09.4-.21c.21-.11.39-.21.39-.21,0,0,.34-.18.75-.41.41-.22.78-.43.83-.45s.15-.07.22-.11c.07-.04.27-.14.44-.22s.32-.16.33-.17c.01-.02.09-.05.18-.09.08-.03.23-.1.33-.15.34-.18,2.31-1.09,3.26-1.5.15-.06.43-.19.64-.28.21-.09.42-.18.48-.2s.17-.07.24-.11c.07-.05.16-.08.19-.08s.18-.06.33-.13.41-.17.58-.23c.17-.05.33-.12.35-.14.03-.02.13-.06.22-.09.1-.03.3-.1.45-.17s.31-.12.35-.12.14-.03.21-.08c.07-.04.18-.09.24-.1.06-.02.3-.1.55-.19.24-.09.51-.18.59-.21.99-.33,1.57-.52,1.8-.59.16-.05.34-.11.42-.14.07-.03.23-.08.35-.11s.3-.08.4-.12c.19-.08.61-.2,1.19-.35.19-.05.4-.11.46-.13s.23-.07.37-.09.28-.06.31-.08c.05-.03.33-.1.59-.15.08-.01.21-.05.29-.08.07-.03.35-.1.62-.16.26-.06.59-.13.73-.17.13-.04.34-.07.46-.09.12-.01.33-.06.46-.1.13-.05.29-.08.34-.08s.3-.05.55-.1c.54-.12,1.03-.21,1.33-.25.12-.02.24-.04.26-.06.04-.03.41-.09.84-.15.12-.01.25-.04.29-.06s.26-.05.48-.08c.22-.02.43-.06.45-.08.03-.02.17-.05.31-.07.52-.05.92-.11.97-.14.02-.02.29-.05.59-.08.3-.02.57-.07.6-.09s.3-.06.62-.08c.31-.02.69-.06.83-.08.48-.08,3.04-.32,4.53-.43.99-.07,2.78-.17,4.18-.23.55-.02,1.4-.06,1.87-.09,1.25-.06,10.48-.06,12,0,.69.02,1.27.04,1.31.02.03-.01.42,0,.87.02.89.05,4.06.13,4.54.13.17,0,.94.02,1.72.06.77.03,2.3.07,3.39.08,1.98.02,3.37.05,4.82.08.42.01,1.91.04,3.3.06,1.39.02,3.38.06,4.42.08,1.04.02,2.59.05,3.44.07l1.55.03v-5.35h-.19c-.23,0-4.44-.11-6.43-.17-5.53-.16-7.27-.21-8.36-.23-.68-.02-1.33-.05-1.45-.07-.24-.04-4.77-.24-5.39-.24-.21,0-1.37-.04-2.6-.08-4.47-.17-6.12-.22-9.9-.26-4.24-.05-9.12,0-11.26.11-2.47.13-2.77.15-2.87.19-.05.02-.35.05-.65.06-.57.02-2.17.16-2.71.23-.17.02-.5.06-.73.08-.36.04-1.4.16-1.89.22-.08.01-.3.05-.48.08s-.46.07-.62.09c-.16.01-.67.09-1.14.17s-.99.17-1.14.19c-.16.02-.37.07-.46.1-.1.03-.29.07-.42.08-.37.04-.53.07-.53.11,0,.02-.11.05-.26.06-.29.03-.82.14-1.97.42-.44.1-.91.21-1.06.24-.15.03-.39.09-.55.14-.16.04-.45.12-.66.17s-.53.13-.73.19-.63.17-.97.27-.66.19-.7.21c-.14.05-.77.24-1.06.32-.15.04-.29.09-.33.12-.04.03-.1.06-.14.06-.07,0-.76.22-1.34.44-.15.05-.3.1-.33.1s-.1.02-.15.06c-.05.03-.2.09-.34.12-.14.04-.26.09-.28.11-.01.02-.06.04-.1.04s-.12.02-.18.05-.28.12-.48.19c-.21.07-.4.15-.42.17-.03.02-.12.05-.22.08s-.29.1-.44.17c-.15.06-.44.18-.66.26-.22.08-.48.19-.57.23-.1.04-.37.15-.59.25-1.06.45-2.83,1.27-3.19,1.47-.14.08-.26.14-.29.14s-.12.05-.22.1c-.1.06-.29.16-.43.22-.14.07-.37.18-.5.24-.69.36-1.39.73-1.62.85-.14.08-.51.29-.84.47-.32.18-.67.37-.77.43s-.23.14-.28.18c-.05.04-.1.07-.12.07s-.16.08-.33.18c-.16.1-.39.24-.51.3-.11.07-.38.23-.6.36s-.41.24-.43.24c-.01,0-.07.04-.12.08-.05.05-.14.11-.2.14-.06.03-.26.15-.44.26-.18.12-.39.24-.47.29s-.18.12-.23.16c-.04.04-.1.07-.11.07s-.18.1-.36.22-.4.25-.47.29c-.08.04-.21.13-.29.19-.08.06-.26.17-.37.23-.12.06-.23.13-.24.14-.02.02-.59.39-.74.48-.04.02-.14.08-.22.13-.07.05-.16.09-.18.09-.03,0-.05.01-.06.03s-.24.17-.52.35c-.91.58-1.07.69-1.28.82-.11.07-.24.16-.29.18s-.24.14-.42.26c-.18.12-.5.32-.7.45s-.45.29-.55.37c-.1.07-.2.14-.23.14s-.07.03-.11.07c-.03.04-.13.1-.21.15-.08.04-.26.15-.4.25-.26.18-1.09.71-1.56,1-.15.09-.36.23-.47.3-.11.07-.36.24-.57.37-.21.13-.56.36-.79.5-.82.53-2.4,1.52-2.6,1.63-.11.06-.28.17-.37.24-.1.07-.22.15-.26.17-.05.02-.13.06-.18.09-.31.18-.62.37-1.04.62-.26.16-.61.37-.77.46-.16.09-.35.2-.43.25s-.32.19-.54.31c-.22.12-.58.32-.8.45s-.65.37-.95.54-.63.36-.74.42c-.33.19-.85.46-1.43.74-.15.07-.29.15-.31.17-.03.02-.19.1-.37.19-.33.17-.5.25-1.08.55-.49.26-3.67,1.73-3.74,1.73-.01,0-.27.11-.58.25-.3.14-.57.25-.59.25s-.18.06-.36.14c-.18.07-.51.21-.74.29-.23.09-.5.19-.6.24-.1.04-.19.08-.22.08s-.21.06-.42.14c-.21.08-.46.17-.57.2-.47.14-1.14.36-1.28.42-.21.08-1.4.44-1.47.44-.03,0-.13.04-.23.08-.1.05-.23.08-.29.08-.07,0-.22.04-.35.08-.13.05-.38.12-.56.16-.18.05-.45.11-.6.15s-.38.09-.53.12-.4.09-.57.12c-.71.16-1.07.23-1.35.27-.16.02-.34.06-.4.08s-.23.05-.39.06c-.16.02-.48.07-.7.11-.23.04-.55.09-.7.1-.16.01-.45.05-.66.08s-.7.08-1.1.11c-.4.02-1.07.07-1.5.1-1.05.08-3.87.06-5.13-.03-.51-.04-1.19-.09-1.52-.11-.64-.05-1.32-.12-2.2-.25-.3-.05-.83-.12-1.17-.17s-.8-.12-1.01-.17c-.22-.04-.66-.13-.99-.19-.7-.13-1.5-.31-2.6-.59-.18-.05-.45-.11-.59-.15-.62-.16-2.06-.57-2.4-.7-.08-.03-.3-.1-.48-.15-.37-.11-1.32-.42-1.63-.54-.45-.17-.67-.25-.73-.25-.03,0-.17-.05-.3-.1-.13-.06-.26-.1-.27-.1-.02,0-.09-.02-.17-.06-.08-.03-.26-.1-.4-.16-.54-.21-2.26-.92-2.69-1.11-.25-.11-.49-.21-.55-.22-.18-.05-1.79-.81-3.03-1.43-.16-.08-.52-.27-.81-.42-.29-.16-.7-.37-.9-.47s-.62-.33-.92-.5-.68-.37-.84-.45c-.16-.08-.35-.19-.42-.24-.14-.1-1.03-.6-1.06-.6-.01,0-.09-.05-.18-.12-.09-.07-.23-.16-.32-.2-.26-.14-1.29-.76-1.37-.82-.04-.03-.08-.06-.1-.06-.03,0-.51-.29-1.29-.79-.25-.16-.47-.29-.48-.29s-.07-.04-.12-.08c-.05-.05-.24-.18-.42-.29-.98-.62-1.18-.76-1.36-.88-.11-.08-.23-.16-.26-.17-.04-.02-.29-.19-.57-.38-.28-.19-.77-.53-1.08-.75-.32-.22-.62-.43-.68-.47-.26-.17-.56-.37-.68-.47-.07-.06-.19-.15-.28-.21-.09-.05-.17-.12-.18-.13-.01-.02-.12-.09-.24-.17-.26-.17-.74-.51-.93-.66-.25-.2-.51-.4-.62-.46-.11-.07-1.02-.74-1.5-1.1-.17-.13-.44-.33-.61-.45-1.05-.74-1.47-1.08-2.36-1.9-1.37-1.27-2.95-2.82-3.48-3.42-.06-.07-.21-.23-.33-.36-.13-.13-.3-.32-.39-.44-.09-.11-.23-.27-.31-.35s-.21-.23-.29-.33c-.08-.1-.2-.25-.27-.33-.15-.17-.12-.13-.42-.52-.13-.16-.27-.34-.32-.39s-.14-.19-.2-.29c-.07-.1-.17-.25-.23-.33s-.14-.19-.17-.26c-.04-.06-.09-.15-.13-.19-.04-.04-.1-.12-.13-.18s-.11-.19-.18-.3c-.07-.1-.12-.2-.11-.21.02-.01,0-.02-.02-.02-.03,0-.05-.01-.04-.03.02-.05-.09-.31-.29-.72-.06-.12-.17-.35-.23-.5-.07-.15-.15-.28-.17-.3s-.03-.03-.01-.03,0-.05-.04-.11c-.04-.07-.14-.24-.21-.38-.07-.15-.15-.28-.16-.29-.02-.01-.07-.11-.12-.21s-.15-.28-.22-.39c-.07-.11-.16-.26-.21-.33-.04-.07-.17-.25-.28-.41s-.22-.31-.22-.33c-.05-.11-.49-.71-.85-1.15-.22-.27-.43-.53-.47-.58-.07-.1-.05-.07-.48-.53-.57-.6-1.48-1.42-1.9-1.7-.06-.04-.34-.24-.63-.44-.29-.2-.55-.37-.56-.37-.02,0-.22-.11-.43-.25-.22-.14-.39-.24-.39-.22s-.03.01-.06-.02c-.04-.03-.43-.23-.87-.45-.22-.11-.82-.36-.97-.41-.04-.02-.37-.15-.46-.19-.2-.09-1.61-.55-1.89-.62-.07-.02-.35-.09-.62-.16-.27-.07-.62-.16-.79-.19-.17-.03-.48-.1-.7-.14-.22-.05-.47-.09-.55-.1s-.44-.06-.79-.1c-.35-.05-.71-.09-.79-.11-.22-.03-1.2-.1-1.83-.13-.68-.03-2.18-.03-2.88,0-.3.02-.75.04-.99.05-.5.02-.77.05-1.47.12-.28.03-.54.05-.57.05s-.13.01-.2.02c-.07.01-.28.05-.46.07s-.51.07-.74.11c-.22.03-.42.05-.43.04s.01-.03.06-.05c.15-.04,1-.2,1.08-.2.04,0,.09-.01.1-.04.02-.02.11-.04.2-.04s.37-.04.6-.08c.24-.05.55-.09.7-.1s.33-.03.42-.05c.15-.02.37-.04.73-.08.25-.03.61-.06.95-.08.16-.01.4-.03.53-.04.92-.07,2.63-.1,3.45-.05,1.12.07,1.8.12,1.84.14.02.01.11.03.2.04.09,0,.24.02.34.04.1.01.25.03.35.04.09.01.18.03.2.04.02.01.14.03.27.05.13.01.25.03.26.04s.15.04.29.06c.14.02.3.05.36.07.2.04.3.07.48.1.3.06.83.19.95.24.06.02.12.04.15.04.02,0,.19.05.4.12.2.06.42.12.49.14.15.04.9.31,1.1.39.43.19.55.23.61.23.04,0,.09.03.12.06s.08.06.11.06c.06,0,.34.14.44.21.03.02.06.03.06.02,0-.02.11.03.23.1.13.07.32.16.43.21s.25.12.31.16.32.19.57.35c.73.45,1.09.71,1.75,1.26.73.62,1.28,1.16,1.81,1.79.04.05.09.1.11.13.03.02.1.11.15.19s.12.15.13.17c.02.01.11.13.22.27.11.14.21.26.23.29.02.02.12.17.24.33.11.16.22.3.24.3.02.01.03.03.01.05-.01.02.03.08.08.14.06.06.14.18.19.26s.19.31.32.5c.12.19.26.41.3.47.04.06.12.18.17.25s.11.18.13.23.08.17.14.24c.05.08.15.25.2.37.06.12.11.24.13.25.03.02.32.58.36.72.02.04.06.07.1.07.06,0,.07-.02.04-.11-.04-.14-.06-.29-.09-.58-.01-.12-.03-.23-.04-.25-.01-.02-.03-.1-.04-.19-.02-.09-.05-.28-.07-.41-.03-.14-.06-.29-.07-.33-.04-.23-.07-.38-.21-.9-.08-.31-.16-.58-.17-.6-.02-.02-.04-.1-.05-.16-.04-.2-.42-1.27-.51-1.43-.03-.05-.07-.15-.09-.22-.04-.16-.52-1.15-.57-1.18-.02-.01-.08-.11-.13-.21-.16-.31-.28-.51-.34-.57-.03-.03-.06-.08-.06-.12s-.02-.06-.04-.06-.06-.05-.09-.12c-.03-.07-.08-.15-.12-.2-.04-.04-.18-.22-.31-.41-.13-.18-.25-.34-.26-.35-.02-.01-.17-.18-.34-.37-.62-.7-1.73-1.62-2.52-2.1-.36-.22-1.24-.67-1.3-.67-.03,0-.08-.03-.11-.06s-.07-.06-.09-.06-.17-.05-.33-.12-.31-.12-.33-.12-.09-.02-.14-.05-.12-.05-.14-.06c-.05-.01-.85-.26-.95-.29-.04-.01-.09-.02-.11-.03-.03-.01-.23-.06-.46-.12-.23-.06-.58-.13-.77-.17s-.4-.08-.46-.09c-.13-.02-.68-.1-.97-.12-.11-.01-.28-.03-.38-.05-.5-.06-1.58-.09-2.7-.07-.69.01-1.32.02-1.39.03s-.3.03-.51.05c-.2.02-.41.03-.46.04-.05,0-.29.03-.53.06-.24.03-.48.05-.53.06s-.18.02-.29.04c-.29.04-.75.12-1.01.17-.06.01-.2.03-.3.05-.11.01-.21.03-.22.04-.02.01-.1.03-.18.04-.08.01-.19.03-.24.04-.28.07-.46.1-.62.12-.1.01-.21.04-.24.05-.03.02-.08.04-.12.04-.07.01-.42.09-.55.12-.17.04-.66.15-.73.17-.04.01-.07.02-.09.02-.01,0-.04.01-.07.02-.11.02-.33.07-.57.15-.15.05-.49.14-.77.22s-.57.16-.64.19c-.31.1-1.2.38-1.36.43-.1.02-.2.06-.22.07-.03.02-.2.08-.4.14-.19.06-.4.13-.47.17-.07.03-.14.05-.15.05-.02,0-.08.01-.15.04-.06.02-.45.18-.87.35-.42.16-.77.31-.79.33-.01.02,0,.05.02.07.04.02.16.56.15.71,0,.03.02.14.04.25.1.43.12.53.15.68.01.05.03.12.04.14.01.02.04.12.05.21.03.22.1.48.15.62.03.06.05.16.06.23.03.16.11.47.16.58.02.05.06.16.08.25.03.09.08.25.12.35s.08.23.09.29c.01.05.06.17.11.26.05.09.09.19.09.22,0,.04.05.16.11.28.11.22.26.54.4.84.04.09.13.28.21.42.07.14.13.27.13.29s.04.08.09.15c.05.06.07.11.05.11s-.01.02.01.03.08.09.12.15c.04.07.11.18.16.25s.13.2.18.3c.05.09.13.2.18.24.04.04.08.1.08.13s.02.05.04.05.04.02.04.04c0,.05.5.68.78,1,.22.24,1.17,1.15,1.4,1.32.07.06.2.15.29.21s.18.14.22.17c.11.1.75.54.93.64.27.14.36.19.38.22.01.01.13.07.26.14s.37.18.53.26c.35.17.78.36,1.08.45.12.04.24.09.26.11.02.02.08.03.13.03s.11.02.15.05c.03.03.05.03.05.02,0-.02.03-.02.05,0,.06.05.79.26,1.14.34,1.39.31,2.78.51,3.86.53.1,0,.15.09.06.09-.05,0-.45.26-.48.3-.01.02-.05.03-.1.03-.04,0-.08.02-.08.03s-.13.12-.3.21c-.16.1-.3.19-.32.21-.01.01-.08.06-.15.1-.07.05-.15.1-.18.12-.02.02-.18.13-.35.25s-.32.22-.33.24c-.01.01-.15.1-.31.21-.16.1-.44.31-.64.48-.19.16-.41.33-.48.39-.29.23-.86.71-1.1.93-.24.21-.26.24-.18.29.04.03.11.12.15.21.04.08.09.15.11.15s.06.05.07.12c.02.06.04.12.06.13.02.01.14.18.28.37.14.19.26.37.29.39.02.02.07.11.13.19.05.08.13.18.18.23.04.05.13.15.19.23.5.68,1.68,1.8,2.38,2.25.11.07.21.14.22.16.01.02.15.1.31.19.16.08.3.17.32.2.02.02.04.03.04.02,0-.02.14.05.31.14.17.09.32.16.34.16s.11.04.21.08c.19.09.41.18.48.19.02.01.27.08.55.16s.59.16.7.17c.11.01.21.03.22.04.02.01.15.03.29.05.15.02.37.04.51.06.27.03,1.42.02,1.72-.01.11-.01.31-.03.45-.05.24-.02,1.23-.2,1.39-.24.04-.01.18-.05.33-.08.3-.07.91-.25,1.04-.32.05-.02.13-.05.19-.06.11-.02,1.66-.63,1.69-.67s.44-.21.5-.21c.04,0,.07-.02.08-.03,0-.02.13-.09.28-.17.57-.3,1.45-.8,1.47-.83.01-.02.04-.04.06-.04s.18-.09.34-.21c.17-.11.33-.21.35-.21s.05-.02.05-.04.02-.04.04-.04c.03,0,.07-.02.1-.05.03-.02.15-.11.28-.19.36-.24,1.25-.88,1.39-.99l.12-.1.39.18c.21.1.4.18.41.18s.04.01.07.03c.02.01.34.17.7.34.66.31.82.42.82.55,0,.06.12.3.18.35.01.01.05.08.08.16.04.07.07.13.1.13s.05.05.07.1c.01.05.07.14.13.19s.11.11.11.14c0,.02.08.13.18.23s.24.26.3.35c.27.36,1.36,1.27,2.16,1.81.09.06.25.19.35.28.1.1.25.2.33.24s.15.08.15.1.11.12.25.22.34.26.45.35c.11.1.22.17.25.17s.15.09.28.21c.13.12.26.21.28.21s.13.07.23.16c.1.08.26.22.37.29.22.16.78.56.88.64.17.14.44.32.46.32s.13.07.24.17q.22.18.44.33c.08.06.16.11.18.12.01.01.15.1.31.2s.32.21.35.25c.04.04.13.1.21.15.07.05.33.22.57.39s.47.33.51.35c.04.02.28.19.53.36.91.64,1.36.94,1.38.94.01,0,.07.04.12.1.06.05.16.12.23.16.21.12.29.17.63.41.18.12.53.35.77.5s.59.36.77.48c.18.11.35.21.37.22.14.07.55.34.54.36-.04.04-2.66-.23-4.1-.42-.77-.1-2.63-.44-3.48-.62-1.04-.23-1.91-.51-2.73-.87-3.11-1.39-5.63-2.1-7.85-2.23-.73-.04-2.06-.03-2.62.02-3.37.33-7.05,1.77-10.24,4.01-1.18.84-1.99,1.5-3.19,2.61-1.63,1.52-2.97,3.02-4.22,4.74-.22.31-.4.54-.4.52,0-.08.84-1.3,1.49-2.15,1.91-2.52,4.35-4.9,6.74-6.58,3.08-2.16,6.53-3.54,9.62-3.83.82-.07,2.61-.06,3.45.02,1.95.2,4.25.82,6.45,1.72.77.32.83.33.61.14-.98-.85-2.57-1.95-3.72-2.57-2.28-1.23-4.4-1.8-6.69-1.8-3.14,0-6.09,1.15-9.13,3.54-.96.76-2.54,2.27-3.48,3.33-1.32,1.49-3.04,3.9-4.12,5.79-.07.12-.17.29-.21.35-.14.21-.92,1.71-1.01,1.93l-.09.22.15.12c2.32,1.9,4.76,3.28,7.08,3.99,3.37,1.03,6.69.76,9.98-.79.89-.42,1.99-1.07,2.81-1.66.21-.15.38-.26.39-.26.01.01-.04.17-.1.36-.4,1.24-.84,3.35-1.02,4.8-.08.71-.08.67.02.77.16.15,1.89.64,2.86.81,1,.2,2.41.25,3.33.13Zm-6.12-1.81s.03-.02.03.02c0,.05-.01.07-.02.05-.02,0-.03-.04-.01-.07Zm.18-.7c.09-.3.2-.68.25-.84.05-.16.12-.39.16-.51.19-.68.89-2.25,1.39-3.15.59-1.06.87-1.45,1.46-2.04.7-.69,1.2-1.24,1.76-1.89.64-.75,1.34-1.27,2.45-1.81,1.5-.74,2.73-1.06,4.59-1.21.62-.05,2.65-.03,2.82.03.06.02.07.01.06-.03-.04-.11-1.67-.59-2.78-.82-.36-.07-1.15-.16-1.74-.19-.66-.03-1.75.08-2.48.25q-.13.03.11-.31c.12-.19.31-.47.4-.62.16-.26.18-.28.33-.28.33,0,4.53.53,5.71.72.19.03.84.13,1.45.23,2.05.32,4.55.78,4.55.84,0,.04-1.37.32-2.22.45-.44.07-.9.14-1.03.16-.65.11-1.42.14-2.18.08-.93-.07-2.79-.07-3.43,0-1.17.13-2.2.37-3.05.69-.62.24-1.45.66-1.71.86-.04.03-.24.17-.43.3-1.45.97-2.89,2.45-3.98,4.08-.65.98-1.4,2.41-1.87,3.56-.23.56-.68,1.89-.69,2.04,0,.04-.01.05-.02.02-.03-.03.03-.3.12-.61Zm2.71-27.73c-.15-.1-.58-.48-.96-.83-.65-.6-1.64-1.42-1.99-1.63-.08-.05-.22-.14-.29-.21-.07-.06-.22-.16-.33-.22-.11-.06-.26-.14-.33-.2-.3-.21-1.75-.88-1.89-.88-.02,0-.09-.02-.16-.06-.07-.03-.18-.07-.26-.09s-.17-.05-.2-.07-.12-.05-.2-.06-.3-.05-.5-.1c-.77-.17-.83-.18-1.83-.26-.85-.07-2.33-.04-2.99.06-.13.02-.32.05-.42.06-.29.04-.99.16-1.14.2-.21.06-.28.07-.37.08-.06.01-.14.02-.18.03-.04.01-.15.04-.24.07-.1.02-.28.07-.4.11-.12.04-.26.07-.31.08-.12.02-.99.31-1.34.45-.16.06-.3.11-.33.11s-.11.03-.2.07c-.39.16-1.03.44-1.35.59-.45.2-.57.24-.42.12.06-.05.14-.08.16-.08.03,0,.06-.02.06-.04,0-.03.37-.21,1.74-.84.19-.09.51-.22.7-.28.19-.07.55-.19.79-.27.47-.16.66-.23.77-.25.04-.01.2-.06.37-.1s.46-.09.66-.1c.45-.03.81-.06.97-.08.07-.01.19-.03.26-.04.07-.01.25-.03.4-.04.26-.02.42-.04.62-.08.05-.01.17-.03.26-.04.1-.02.27-.05.39-.07s.28-.05.35-.06.18-.02.24-.04c.13-.02.71-.03.97-.01.11.01.39.03.62.05s.48.05.55.07.21.05.31.06c.09.01.42.08.72.17.3.08.57.16.59.16.02.01.1.04.18.07.07.03.14.06.15.06s.05.02.09.03c.09.04.33.12.35.13.03.01.25.1.57.24.16.07.35.17.43.22.08.06.15.09.15.07,0-.05,1.21.67,1.38.81.05.04.1.07.12.07s.06.02.09.05c.03.03.22.18.43.33.47.36.85.67,1.28,1.05.18.16.35.28.37.26.04-.03-.35-.7-.59-1.02-.07-.1-.13-.19-.13-.21s-.03-.06-.07-.1c-.04-.03-.11-.12-.15-.2s-.12-.19-.17-.24-.09-.11-.09-.14c0-.02-.02-.04-.04-.04-.03,0-.06-.04-.08-.09s-.13-.19-.23-.31c-.1-.12-.26-.29-.33-.38-.24-.28-.86-.84-1.3-1.18-.09-.07-.23-.18-.31-.24-.19-.15-.83-.52-1.16-.68l-.28-.13.32-.09c.73-.21.82-.24.95-.31l.14-.07.16.16c.16.16.85.86.98,1,.12.13.49.52.83.86.19.19.45.46.59.6s.32.34.41.44c.09.1.29.32.44.48s.34.36.4.43c.07.08.16.18.21.23.07.07.28.29.55.6.11.12.12.15.06.19-.03.02-.08.1-.13.18-.08.14-.08.22-.06.87.02.63.02.71-.04.68-.03,0-.19-.09-.34-.19Zm-19.84-1.88s.04-.04.1-.06c.1-.05.1-.04.02.02-.1.06-.12.07-.12.04Zm.46-.27s.04-.04.07-.04c.02,0,.14-.07.27-.14.26-.16.37-.19.22-.06-.06.05-.12.08-.15.08s-.11.05-.2.1c-.17.1-.26.13-.21.06Zm-9.73-16.49s.25-.08.51-.13.49-.1.51-.12c.03-.01.06,0,.06.02s-.1.05-.22.07c-.11.01-.35.06-.51.1-.36.1-.4.1-.35.06Z"/>
    <path id="path4" class="cls-1" d="m132.47,96.86c.79-.06,1.32-.1,2.31-.21.62-.07.72-.08,1.78-.24.77-.12.88-.14,1.52-.27.22-.05.69-.14,1.05-.21.36-.07.69-.14.73-.16s.18-.06.31-.08c.26-.05.85-.21,1.74-.46.31-.09.68-.2.81-.24s.3-.09.37-.12c.07-.02.28-.09.46-.14s.38-.12.44-.15c.06-.03.13-.05.15-.05s.18-.05.35-.12.48-.18.68-.25c.21-.07.43-.16.51-.19.07-.03.35-.14.62-.25.26-.11.5-.21.53-.22.02-.02.11-.05.19-.06.24-.04,1.19-.48,1.46-.67.34-.24.82-.5,1.1-.59.35-.12.88-.35,1.06-.45.09-.05.18-.09.21-.09s.07-.02.11-.05c.06-.05.27-.19.41-.26.25-.13.41-.22.57-.32.09-.06.2-.11.24-.11.08,0,.4-.17.4-.21,0-.08.15-.16.31-.16.17,0,.51-.14.66-.27.04-.03.09-.06.12-.06s.19-.09.37-.19c.45-.28.48-.3.61-.35.06-.03.13-.07.15-.1s.06-.05.1-.05c.03,0,.07-.02.07-.03.02-.04.42-.3.47-.3.02,0,.08-.04.14-.09.06-.05.18-.13.28-.18.09-.05.25-.15.35-.23s.29-.22.42-.3c.22-.14.33-.22.65-.43.28-.19.72-.52.83-.62.03-.03.07-.06.09-.05.02,0,.17-.12.34-.26.5-.42.62-.52.67-.52.03,0,.08-.05.13-.1s.1-.1.11-.1c.05,0,.56-.49.56-.53,0-.03.02-.05.04-.05s.04-.03.04-.07c0-.05.03-.06.09-.05s.14-.02.26-.13c.09-.08.32-.28.51-.44.35-.3.95-.86,1.2-1.1.07-.08.16-.16.18-.18.18-.15.71-.69.71-.72,0-.01.04-.05.09-.08s.09-.07.09-.09.11-.15.25-.29.3-.31.37-.38c.06-.07.18-.2.27-.29.09-.08.15-.16.15-.17-.01-.01.01-.04.05-.07s.06-.04.06-.02.03-.01.06-.06.17-.25.3-.44c.14-.2.29-.43.35-.53.05-.1.25-.32.43-.51.18-.18.51-.55.73-.83.22-.27.43-.53.47-.57s.07-.09.06-.11c-.01-.01.02-.05.07-.08.04-.03.08-.08.08-.11,0-.02.09-.17.2-.32s.2-.29.2-.32c0-.02.01-.04.04-.04.02,0,.06-.05.09-.12.03-.07.09-.16.14-.21s.09-.11.09-.13.02-.04.05-.04.04-.03.02-.06c-.01-.04,0-.07.04-.09.04-.01.08-.08.11-.14.02-.07.07-.12.09-.12s.04-.02.02-.04c-.01-.02,0-.07.04-.1.07-.07.26-.37.52-.81.1-.17.19-.32.21-.33.01-.01.05-.09.09-.17s.07-.15.09-.17c.02-.01.08-.13.15-.27s.15-.28.18-.31.09-.15.13-.26c.04-.11.1-.2.11-.2.02,0,.04-.04.04-.08,0-.05.03-.11.07-.14.04-.03.07-.08.07-.1,0-.07.19-.42.23-.42.02,0,.04-.04.04-.09s.04-.15.08-.24c.23-.43.27-.5.27-.56,0-.04.02-.07.04-.07s.04-.03.04-.06.02-.09.04-.14c.08-.13.44-.97.46-1.08.02-.11.11-.22.11-.15,0,.02.03-.06.07-.19.09-.34.26-.79.29-.76.03.02.12-.25.12-.36,0-.04.03-.09.07-.12s.06-.06.05-.07c-.01-.01.02-.11.07-.23s.1-.26.11-.31.04-.13.06-.17c.03-.04.04-.12.04-.17,0-.1.08-.36.22-.71.05-.11.08-.25.08-.31s.03-.16.07-.23c.06-.11.17-.49.22-.78.01-.06.03-.14.05-.16.02-.03.05-.12.07-.22.02-.09.05-.24.08-.33.06-.21.14-.55.16-.7.01-.07.04-.14.07-.17s.04-.07.02-.1c-.01-.02-.01-.08.01-.14.02-.05.05-.18.07-.28.04-.32.16-.67.24-.72.03-.02.03-.06.02-.09-.01-.04,0-.08.02-.1.03-.01.06-.08.07-.15.01-.07.04-.17.05-.23.05-.2.1-.47.13-.68.01-.09.03-.24.05-.33.01-.1.03-.22.04-.27,0-.06.02-.13.04-.17.01-.03.04-.16.05-.28.01-.16,0-.23-.04-.26s-.05-.06-.02-.1.03-.06,0-.08c-.04-.02-.04-.23.01-.51.02-.12.06-.6.09-1.09.01-.15.03-.38.04-.52.02-.14.04-.43.04-.66.01-.24.04-.48.08-.56.07-.15.07-.5,0-.52-.02-.01-.04-.38-.03-.91.01-.52,0-.91-.03-.94-.02-.03-.04-.08-.03-.12.01-.04,0-.07-.01-.07-.02,0-.03-.08-.04-.18,0-.1-.02-.38-.03-.63-.03-.45-.04-.51-.03-.61.01-.24-.02-.72-.05-.74-.05-.03-.06-.22-.02-.38.02-.09.02-.12-.03-.12-.04,0-.07-.05-.07-.11,0-.07-.02-.24-.04-.38-.02-.15-.03-.42-.03-.6,0-.3-.06-.68-.24-1.69-.06-.32-.15-.54-.24-.61-.03-.02-.07-.27-.11-.7-.01-.14-.04-.29-.06-.31-.02-.02-.05-.14-.07-.27-.02-.12-.05-.24-.07-.27-.02-.02-.04-.05-.04-.07s0-.04-.01-.04c0-.01-.01-.04-.02-.08,0-.03-.06-.22-.11-.41-.16-.58-.21-.78-.18-.8.01-.01,0-.02-.03-.02s-.04-.02-.03-.04c.01-.02,0-.09-.04-.16-.04-.07-.07-.18-.08-.24-.02-.18-.04-.24-.09-.27-.02-.02-.04-.08-.05-.14,0-.06-.04-.17-.07-.24s-.05-.14-.04-.16c0-.02-.01-.05-.04-.08-.02-.02-.05-.1-.06-.17s-.04-.15-.07-.18-.05-.08-.04-.11,0-.06-.02-.06c-.03,0-.04-.04-.04-.08,0-.05-.02-.09-.05-.11-.03-.02-.04-.05-.02-.09.01-.03,0-.07-.02-.08-.03-.02-.04-.07-.04-.13s-.02-.1-.04-.08-.05-.07-.07-.18c-.01-.11-.06-.22-.09-.25s-.07-.09-.07-.15c0-.05-.02-.11-.05-.12-.02-.02-.04-.05-.03-.07.01-.03-.01-.07-.05-.1-.04-.02-.07-.1-.07-.18,0-.07-.01-.13-.03-.13s-.07-.09-.11-.21c-.05-.11-.1-.21-.12-.21s-.03-.03-.01-.06c.01-.03,0-.06-.02-.06s-.07-.08-.1-.17c-.03-.1-.07-.19-.08-.2-.08-.06-.33-.62-.32-.69.01-.03-.01-.05-.04-.05s-.04-.02-.03-.06c.01-.03,0-.1-.04-.17-.04-.06-.06-.12-.06-.12.01-.02-.44-.93-.66-1.33-.04-.07-.15-.23-.26-.35-.1-.12-.2-.27-.22-.32-.04-.13-.22-.48-.37-.73-.07-.11-.16-.27-.2-.34s-.11-.14-.14-.14c-.04,0-.05-.02-.04-.04.03-.05-.11-.34-.16-.34-.02,0-.04-.02-.04-.04,0-.04-.2-.34-.26-.37-.02-.01-.1-.15-.18-.32-.08-.16-.19-.31-.23-.32-.04-.02-.07-.06-.07-.11s-.03-.09-.06-.1c-.04-.01-.05-.05-.04-.08s0-.06-.05-.06c-.04,0-.07-.03-.07-.06s-.05-.11-.11-.17-.11-.14-.11-.17-.03-.06-.07-.06-.06-.02-.04-.04c.03-.04-.22-.42-.28-.42-.02,0-.06-.07-.09-.14s-.08-.14-.11-.14-.07-.05-.1-.12c-.02-.07-.07-.12-.09-.12-.03,0-.04-.02-.02-.05.01-.03-.01-.08-.05-.11s-.07-.07-.07-.09-.04-.07-.08-.11c-.13-.13-.27-.3-.27-.32,0-.01-.09-.13-.21-.27-.11-.14-.26-.31-.32-.38-.2-.25-.49-.58-.71-.82-.12-.13-.22-.24-.22-.26,0-.03-.15-.21-.37-.42-.1-.09-.33-.33-.51-.52s-.44-.45-.59-.57c-.14-.12-.25-.24-.25-.26,0-.05-1.14-1.11-1.46-1.36-.13-.11-.36-.3-.5-.43-.15-.14-.37-.33-.48-.43-.12-.1-.34-.28-.49-.41-.15-.12-.31-.25-.36-.27-.05-.03-.24-.17-.41-.31-.66-.52-1.03-.81-1.22-.91-.11-.06-.31-.21-.46-.33s-.37-.26-.49-.32c-.12-.05-.26-.14-.32-.19-.05-.05-.11-.08-.13-.08s-.11-.07-.22-.14c-.1-.08-.23-.16-.29-.19-.09-.04-.29-.17-.5-.31-.04-.03-.11-.06-.13-.06-.03,0-.09-.04-.13-.08-.04-.05-.11-.08-.14-.08s-.06-.01-.06-.03-.04-.05-.1-.08c-.19-.09-.84-.48-.86-.52-.01-.02-.04-.03-.06-.01-.02.01-.04,0-.04-.02s-.05-.06-.12-.09c-.07-.02-.24-.12-.38-.2-.15-.08-.38-.21-.51-.28-.14-.07-.26-.14-.26-.15,0-.02-.03-.03-.07-.03s-.14-.04-.23-.09c-.09-.05-.29-.15-.44-.22s-.28-.14-.28-.15c0-.02-.03-.03-.06-.03s-.17-.06-.31-.12c-.14-.07-.28-.12-.31-.12s-.07-.02-.1-.05-.15-.09-.27-.14-.22-.1-.22-.11-.04-.03-.08-.03-.14-.04-.21-.08c-.07-.04-.2-.09-.27-.11-.08-.01-.14-.05-.14-.07s-.02-.04-.05-.04c-.04,0-.3-.1-.85-.33-.1-.05-.23-.08-.29-.08s-.12-.02-.12-.05c0-.02-.02-.03-.04-.02s-.05,0-.07-.04c-.01-.03-.06-.06-.11-.06-.08,0-.4-.12-.44-.17-.03-.03-.4-.17-.4-.14,0,.01-.09-.02-.2-.06-.11-.05-.24-.09-.29-.1-.17-.03-.4-.12-.45-.18-.03-.03-.22-.09-.44-.14s-.48-.12-.59-.16-.21-.07-.22-.07c-.05,0-.38-.11-.43-.14-.03-.02-.07-.03-.1-.01-.02.01-.04.01-.04-.01s-.04-.03-.08-.02c-.04.01-.2-.02-.34-.07s-.3-.1-.35-.11-.17-.03-.26-.06c-.1-.02-.22-.05-.26-.06-.14-.03-.47-.11-.66-.16-.1-.03-.18-.05-.2-.05-.04,0-.33-.06-.61-.12-.23-.05-.29-.05-.32-.01s-.06.03-.13-.04c-.05-.05-.11-.08-.14-.07-.02.01-.07,0-.1-.02s-.13-.05-.23-.07-.18-.04-.2-.04c-.04-.01-.31-.05-.9-.14-1.07-.16-1.5-.22-1.98-.25-.27-.02-.76-.07-1.1-.11s-1.1-.07-1.69-.09c-.59-.01-1.36-.03-1.72-.04-.88-.02-3.29.06-4,.14-.33.03-.83.08-1.11.1-.29.02-.59.07-.68.11-.18.07-.2.07-1.32.16-.9.07-1.66.17-1.77.22-.04.02-.15.05-.25.06-.1.02-.3.07-.45.11-.16.05-.33.07-.43.05-.08-.01-.26,0-.39.03-.13.03-.34.05-.48.04-.15,0-.46.04-.79.11-.3.07-.8.17-1.1.24-.84.17-1.99.46-2.57.64-.29.09-.93.29-1.43.44s-.96.32-1.04.37c-.07.05-.16.1-.18.1s-.17.05-.32.11-.38.14-.5.19-.32.13-.44.18-.3.11-.4.12c-.1.01-.37.12-.62.23-.24.11-.55.24-.68.3-.6.26-1.13.5-1.25.58s-.55.29-1.35.67c-.16.07-.35.18-.42.24-.07.05-.32.19-.55.31-.55.29-.63.33-1.24.72-.28.18-.53.32-.54.32-.04,0-.56.33-.62.39-.03.02-.13.1-.24.17-.28.17-.72.47-.95.64-.1.08-.38.28-.62.43-.23.16-.57.41-.75.56s-.41.33-.51.39c-.1.06-.35.26-.56.45-.21.18-.5.43-.65.54-.15.12-.29.24-.32.28-.02.04-.11.09-.18.13-.14.05-2.39,2.17-2.61,2.46-.07.08-.22.26-.35.38-.12.12-.36.38-.52.58-.16.19-.39.46-.51.58-.12.12-.28.31-.36.42-.08.11-.38.48-.66.84-.28.35-.56.72-.62.81-.05.1-.12.19-.15.19-.03.01-.21.25-.39.52-.18.27-.43.64-.55.81-.12.17-.33.5-.48.72-.14.23-.35.55-.45.7-.11.16-.36.59-.56.95s-.41.72-.46.81c-.1.15-.19.33-.53,1.05-.11.23-.27.55-.37.72-.09.17-.26.53-.37.79-.11.26-.3.72-.43,1.01-.24.55-.6,1.5-.75,1.96-.22.66-.27.83-.33,1.03-.03.12-.08.24-.1.27-.05.05-.12.3-.15.5-.01.07-.04.18-.07.25-.05.14-.32,1.18-.53,2.09-.07.33-.17.72-.2.87-.15.61-.48,2.72-.55,3.6-.02.26-.07.87-.11,1.34-.06.68-.07,1.26-.06,2.69.02,1.91.07,2.73.28,4.28.06.44.11.91.1,1.03,0,.12.02.33.05.45.07.35.17.86.2,1.12.03.22.15.76.33,1.41.05.17.16.59.24.93.15.62.22.88.38,1.39.04.15.09.32.11.38.01.06.04.12.07.14s.04.06.04.1c0,.12.26.95.4,1.26.02.05.12.31.22.6s.25.63.32.76.16.31.19.39c.03.08.14.34.24.58.1.24.18.45.18.47,0,.06.35.73.4.75.03.01.04.05.04.09,0,.07.39.84.94,1.87.47.87.63,1.15.85,1.45s.36.52.36.57c0,.07,1,1.55,1.32,1.97.17.22.61.82.72.99.05.07.22.29.37.48.15.19.4.51.56.7.15.19.39.47.54.62.14.15.35.37.46.5.11.12.26.29.34.36.08.07.19.17.25.23.05.06.12.12.15.14.07.05.37.39.58.68.2.28,1.62,1.61,1.72,1.61.04,0,.25.17.47.37.22.21.54.48.71.61.18.13.34.27.37.31.03.04.16.14.29.23.13.09.26.19.29.22.11.11.93.72,1.62,1.21.37.27.75.55.84.62.25.22.53.4,1.19.79.34.21.86.52,1.15.69s.54.32.55.32.08.03.14.07c.15.1.72.4,1.46.76.91.45,1.95.93,2.65,1.21.26.1.53.22.59.25.07.03.15.06.18.06.04,0,.11.03.18.08.07.04.19.09.27.11s.23.07.33.12.31.13.48.18.36.12.43.15c.18.09,2.11.71,2.38.76.13.02.29.05.36.07.07.01.37.08.68.16.79.2,1.92.45,2.49.56.26.05.62.12.78.17.35.09,1.96.33,3,.45.78.09,1.92.19,3.01.25.96.09,3.77.08,4.7.01Zm-5.79-.55c-1.18-.1-2.27-.22-3.1-.34-.3-.05-.64-.09-.75-.1-.11-.02-.55-.1-.97-.19s-.96-.2-1.19-.25c-.53-.1-1.21-.26-1.59-.37-.16-.05-.33-.08-.37-.08s-.21-.04-.37-.09c-.16-.05-.34-.09-.41-.09s-.12-.01-.12-.02c0-.02-.07-.03-.16-.04-.09-.01-.22-.04-.3-.07s-.16-.05-.17-.03c-.01.01-.03,0-.03-.03s-.02-.04-.04-.03c-.02.01-.12-.02-.22-.06-.11-.04-.22-.08-.25-.08s-.15-.03-.27-.08c-.29-.1-.77-.26-.84-.27-.04,0-.07-.03-.09-.05s-.12-.07-.23-.09c-.32-.09-.68-.22-.74-.28-.03-.03-.09-.06-.13-.07-.14-.04-.32-.07-.34-.07-.01,0-.05-.02-.07-.05-.03-.03-.15-.08-.26-.11s-.21-.07-.21-.09-.08-.05-.18-.08-.21-.07-.24-.11c-.04-.03-.11-.06-.16-.06-.06,0-.13-.03-.16-.06s-.13-.07-.22-.09c-.1-.02-.17-.05-.17-.06,0-.02-.08-.07-.18-.1-.1-.04-.25-.1-.34-.14-.09-.05-.18-.08-.2-.08s-.09-.03-.15-.07c-.07-.04-.19-.1-.27-.13s-.16-.07-.18-.08c-.01-.01-.33-.17-.7-.35s-.69-.34-.7-.35-.15-.09-.31-.17-.32-.16-.35-.19c-.04-.03-.13-.07-.2-.11-.07-.03-.17-.09-.22-.13-.05-.04-.12-.07-.17-.07s-.07-.02-.06-.04c.01-.02-.04-.07-.12-.1-.15-.06-.59-.32-.67-.38-.03-.02-.17-.11-.33-.2-.4-.23-.7-.42-.85-.53-.07-.05-.16-.11-.21-.13s-.08-.06-.08-.1c0-.03-.04-.05-.09-.05-.06,0-.09-.03-.09-.08s-.03-.08-.07-.08-.07-.02-.07-.04-.03-.04-.07-.04-.07-.02-.07-.04-.02-.04-.04-.04c-.05,0-.06-.01-.33-.23-.1-.08-.2-.14-.23-.14s-.08-.04-.11-.08c-.03-.05-.08-.08-.11-.08s-.06-.02-.06-.04-.03-.04-.06-.04-.13-.07-.23-.14c-.1-.08-.23-.19-.3-.25s-.14-.1-.16-.1c-.01,0-.14-.09-.27-.21-.13-.11-.26-.21-.27-.21-.02,0-.02-.02-.01-.04.01-.02,0-.04-.04-.04s-.09-.04-.12-.08c-.03-.05-.09-.08-.13-.08-.05,0-.08-.03-.08-.08,0-.06-.02-.07-.07-.05s-.07.01-.04-.04c.02-.05-.01-.08-.11-.11-.07-.02-.13-.06-.13-.08s-.02-.05-.05-.05c-.1,0-.95-.74-1.08-.94-.03-.04-.15-.12-.28-.18s-.25-.12-.26-.14c-.02-.02-.09-.08-.16-.13-.07-.05-.11-.09-.09-.09s-.04-.07-.14-.15c-.46-.39-.73-.64-.73-.67,0-.02-.07-.09-.15-.17-.09-.08-.17-.19-.18-.24-.02-.05-.04-.1-.07-.1s-.04-.02-.04-.05c0-.06-.14-.2-.69-.72-.25-.23-.46-.45-.47-.49-.02-.04-.05-.07-.07-.07s-.07-.05-.09-.11c-.03-.06-.08-.12-.14-.13-.06-.02-.08-.05-.07-.08.02-.04,0-.07-.06-.08-.05-.01-.09-.06-.09-.1,0-.05-.04-.09-.11-.1-.07-.02-.1-.05-.09-.08s-.02-.07-.06-.1c-.05-.02-.09-.07-.09-.1s-.03-.07-.07-.08-.07-.05-.07-.08-.03-.07-.07-.08-.06-.04-.06-.05c.01-.02-.03-.07-.07-.12-.18-.19-.29-.31-.29-.36,0-.02-.05-.09-.11-.14s-.1-.12-.08-.14c.01-.02-.02-.05-.07-.07-.06-.02-.09-.06-.09-.13,0-.06-.03-.1-.07-.1s-.07-.02-.07-.04-.06-.1-.13-.18c-.07-.07-.13-.15-.13-.17,0-.04-.28-.42-.48-.65-.05-.05-.09-.12-.09-.14s-.05-.1-.11-.16-.1-.11-.08-.11,0-.04-.05-.09-.18-.23-.28-.39c-.11-.17-.21-.3-.23-.3s-.03-.02-.01-.04c.01-.02-.03-.09-.09-.15-.06-.06-.11-.13-.11-.15s-.03-.07-.06-.11c-.04-.04-.09-.15-.14-.26-.04-.11-.1-.2-.12-.2s-.04-.04-.04-.08-.04-.1-.09-.12-.09-.07-.09-.1-.02-.06-.04-.06-.07-.05-.11-.12c-.04-.07-.07-.12-.05-.12s-.01-.04-.07-.09c-.05-.05-.11-.14-.12-.21-.01-.07-.04-.12-.06-.12s-.17-.26-.33-.57c-.17-.31-.32-.58-.34-.58-.02-.01-.03-.05-.03-.09s-.08-.23-.18-.42c-.18-.34-.19-.37-.21-.45,0-.02-.04-.08-.09-.13s-.09-.14-.09-.19-.05-.16-.11-.24c-.06-.08-.11-.19-.11-.22,0-.04-.04-.1-.09-.13s-.09-.11-.09-.17-.01-.12-.04-.12c-.04,0-.14-.29-.14-.39,0-.03-.02-.07-.04-.07s-.08-.12-.13-.25-.14-.35-.18-.48c-.05-.13-.11-.25-.14-.26s-.04-.05-.05-.08c0-.03-.03-.1-.06-.15s-.05-.12-.05-.15c0-.04-.02-.07-.04-.07-.03,0-.04-.03-.04-.07,0-.06-.03-.16-.17-.51-.01-.03-.03-.1-.04-.14-.01-.04-.04-.14-.08-.21-.04-.07-.07-.17-.07-.23-.01-.06-.04-.13-.07-.16s-.05-.08-.04-.11.01-.06-.01-.06-.05-.07-.07-.15c-.03-.17-.08-.32-.18-.63-.04-.1-.05-.19-.04-.22.01-.02,0-.04-.03-.04s-.04-.03-.03-.06c.01-.03.01-.06-.01-.06-.04,0-.16-.29-.13-.32.01-.01-.03-.15-.08-.31s-.11-.33-.11-.37-.04-.21-.09-.38c-.15-.5-.45-1.7-.47-1.85-.01-.08-.03-.17-.04-.21-.02-.03-.07-.32-.13-.64-.05-.32-.12-.66-.15-.76-.02-.1-.04-.33-.05-.5,0-.17-.05-.63-.11-1.02-.06-.38-.11-.79-.11-.88,0-.1-.03-.5-.07-.89-.12-1.02-.12-4.58,0-5.64.04-.4.08-.8.08-.89,0-.17.17-1.44.29-2.15.08-.47.15-.89.17-1.07.01-.07.04-.14.07-.17.02-.02.04-.09.04-.17,0-.07.05-.33.11-.58s.15-.64.2-.85c.1-.42.15-.64.23-.87.03-.08.05-.19.05-.25s.04-.18.08-.27c.07-.16.11-.33.11-.5,0-.05.04-.13.09-.18.04-.05.09-.17.11-.26.02-.1.06-.25.09-.34.15-.41.26-.79.26-.82-.01-.04.21-.41.27-.45.04-.02.03-.04-.01-.07-.04-.03-.03-.11.06-.36.07-.18.14-.34.17-.36.03-.02.04-.03.02-.03s0-.03.03-.07c.04-.03.06-.08.05-.1s.02-.13.07-.24c.06-.11.1-.21.11-.24,0-.02.04-.13.1-.24.05-.11.1-.22.1-.26,0-.03.05-.15.11-.25s.1-.19.09-.19.02-.08.07-.17c.05-.1.1-.22.11-.27s.1-.22.19-.38c.1-.16.18-.31.18-.33s.04-.12.1-.22c.05-.09.1-.18.1-.19s.05-.1.11-.21c.06-.1.1-.19.1-.19-.03,0,.28-.58.31-.59.02-.01.04-.03.04-.06,0-.02.04-.09.09-.14s.09-.13.09-.17c0-.03.05-.13.11-.22s.1-.17.08-.19c-.02-.01-.01-.02.02-.02.02,0,.08-.08.13-.17.04-.1.09-.19.11-.2.01-.01.06-.1.11-.19.09-.18.33-.53.38-.55.02-.01.04-.05.04-.1,0-.04.01-.08.03-.08s.07-.08.12-.19.1-.19.11-.19.06-.07.11-.17.11-.19.14-.21c.04-.02.12-.15.2-.28.07-.13.15-.24.17-.25s.1-.13.18-.26.16-.24.18-.24.04-.02.04-.05.06-.14.13-.23c.07-.09.13-.19.13-.2s.05-.06.11-.1c.06-.05.15-.16.2-.26s.12-.21.16-.23c.03-.03.06-.08.06-.11s.02-.06.04-.06.1-.09.18-.2c.07-.12.15-.21.17-.22s.09-.09.16-.18c.36-.46.49-.62.54-.65.03-.02.06-.06.06-.1,0-.03.07-.13.17-.21.09-.08.24-.24.34-.36.09-.11.2-.22.23-.24s.06-.05.06-.08.15-.2.33-.38.38-.4.44-.48c.05-.08.21-.25.35-.37s.3-.28.37-.35c.06-.07.48-.47.92-.89.68-.64.83-.76.91-.75.07.01.11,0,.11-.05,0-.07.51-.57.58-.57.02,0,.07-.03.12-.07.48-.42.88-.76,1.08-.89.13-.09.32-.23.41-.31.1-.09.37-.29.61-.46.63-.44.64-.44,1.09-.76.22-.17.45-.31.51-.32.05-.02.11-.05.12-.09.01-.03.05-.06.09-.06s.09-.03.12-.07c.06-.08.96-.63,1.27-.77.1-.05.17-.11.18-.13,0-.03.02-.05.04-.05.05,0,.48-.24.56-.32.03-.03.08-.05.1-.05.06,0,.76-.37.81-.43.02-.03.18-.12.35-.2,1.03-.49,1.36-.66,1.38-.69.04-.05.58-.3.65-.3.04,0,.06-.02.06-.04s.02-.04.04-.04.17-.06.33-.12c.16-.07.31-.12.33-.12.05,0,.5-.21.53-.26.05-.06.38-.14.51-.13.09.01.16,0,.21-.05.08-.07.37-.22.44-.22.02,0,.16-.06.32-.12.16-.07.3-.12.32-.12s.1-.02.18-.06.16-.07.18-.07c.08.01.14-.01.23-.1.13-.11.47-.23,1.65-.58.17-.05.56-.17.88-.27.62-.19.73-.21.53-.1-.08.05-.15.1-.17.12-.01.02-.09.06-.17.07-.07.02-.23.07-.34.12-.11.05-.23.08-.26.09-.04,0-.13.04-.21.08-.08.04-.17.07-.2.07-.04,0-.09.03-.12.06s-.07.06-.08.05c-.06-.01-.21.07-.28.14-.06.06-.1.07-.2.04-.09-.03-.17-.02-.3.02-.1.04-.18.08-.2.09-.01.02-.14.08-.29.14-.29.13-.46.2-.97.42-.19.09-.37.16-.38.16-.02,0-.12.06-.24.13s-.29.17-.39.21c-.1.05-.24.11-.31.15-.07.04-.2.1-.29.14-.08.04-.18.09-.22.12s-.14.08-.22.11-.22.1-.31.17c-.08.06-.28.18-.44.26-.65.33-1.11.6-1.14.66-.01.02-.04.04-.05.04-.02,0-.22.11-.43.24-.21.13-.46.27-.55.32s-.23.14-.31.21c-.18.15-.5.35-.55.35-.02,0-.06.03-.1.07-.03.03-.17.13-.3.22-.14.08-.33.21-.43.29-.1.08-.27.21-.37.27-.11.07-.29.2-.41.3-.12.1-.25.17-.28.17s-.06.02-.06.06-.03.07-.06.08c-.08.03-.99.72-1.17.89-.25.24-.48.42-.52.42-.05,0-.58.52-.58.57,0,.02-.05.05-.12.05-.11,0-.52.37-1.98,1.8-.14.14-.72.69-1.29,1.24-1.46,1.39-2.71,2.79-3.81,4.23-.4.52-1.38,1.89-1.55,2.15-.08.12-.28.44-.44.7s-.45.74-.64,1.05c-.18.32-.38.64-.42.72-.09.14-.66,1.25-.94,1.8-.2.4-.35.72-.59,1.3-.23.55-.28.65-.36.82-.04.1-.14.34-.21.54-.07.19-.19.51-.26.71-.08.19-.15.41-.17.48s-.07.24-.12.37c-.05.14-.14.39-.19.56-.06.17-.14.41-.18.54-.05.13-.08.27-.08.31s-.05.22-.11.39-.11.35-.11.4-.04.19-.09.33c-.05.13-.09.29-.09.34s-.04.23-.09.4c-.14.49-.44,2.02-.57,2.92-.49,3.38-.5,6.89-.02,10.11.04.26.04.43.02.46-.08.08-.04.24.12.38.19.18.39.55.77,1.39.15.34.31.69.36.78.05.08.08.15.07.15s-.08-.05-.16-.1c-.17-.12-.4-.14-.5-.04-.08.07-.09.27-.02.54.1.42.27,1.03.33,1.22.03.11.06.22.06.26s.05.22.11.41c.06.18.15.43.18.54.14.41.31.46.57.16.22-.25.3-.27.66-.2.16.03.41.06.54.06.22,0,.25.01.25.09,0,.05.04.1.07.12s.04.04.02.04-.02.02,0,.05c.03.02.04.08.05.11,0,.06.24.74.32.89.02.05.05.13.07.19.01.06.11.25.2.44.1.18.17.34.17.36s-.08.03-.17.05c-.16.02-.4.21-.4.32,0,.09-.26.03-.44-.1-.18-.14-.55-.28-.7-.28-.04,0-.11.04-.15.08-.11.12-.07.36.15.83.11.22.24.55.31.74.11.31.26.63.39.83.03.03.05.11.07.18.01.06.06.15.11.19.05.05.09.09.09.1,0,.05.41.84.48.9.04.04.13.07.2.07.17,0,.72.14.94.24.15.07.17.09.21.33.05.25.04.27-.06.38-.13.14-.28.49-.28.64,0,.19.55,1.12,1.22,2.05.36.5.68.96.72,1.03s.09.14.11.15c.03.02.11.12.19.24.08.12.17.23.19.25.03.02.15.17.27.33s.26.34.32.39c.05.06.25.29.44.52s.38.45.43.5.18.19.29.31c.31.34,1.03,1.01,1.13,1.06.15.08.31.06.52-.06l.19-.11.09.14c.17.27.48.3,1.03.09l.3-.11.11.11c.12.12.11.17-.07.2-.2.04-.37.19-.52.5-.14.26-.15.32-.12.54q.03.24.43.62c.55.51,1.17,1.04,1.59,1.35.19.14.39.3.44.35s.21.17.35.27c.15.1.46.33.7.51.24.17.44.32.46.32s.1.06.18.12c.08.07.16.12.18.12s.1.06.18.12c.15.14.29.16.55.06.31-.12.43-.19.71-.45.22-.2.29-.24.33-.2.03.03.09.05.13.05s.08.02.08.06c0,.03.06.1.13.14s.13.09.13.1c0,.02.03.03.07.03s.07.02.07.04.04.04.09.04c.06,0,.09.03.09.09s.02.08.07.06c.04-.01.08.01.1.06.02.04.12.14.23.21.48.31,1.55.96,1.65,1,.12.05.37.21.37.25,0,.02.02.03.04.01.02-.01.09.02.15.08s.13.1.15.1c.03,0,.15.06.28.14.13.07.32.18.43.23s.21.1.22.12c.01.01.09.06.18.1.08.04.18.09.22.11s.19.1.35.17.51.24.79.37c.28.13.53.24.55.24s.07.03.11.06c.03.03.1.06.16.06s.11.02.11.03c0,.02.08.07.18.11.11.04.28.11.39.16.11.05.29.12.4.16.11.04.28.11.37.16.1.04.25.1.34.12s.18.06.19.08.14.07.28.1c.14.04.28.09.32.12.07.06.4.19.4.17,0-.01.11.02.23.07.13.05.23.08.23.07,0,0,.07.03.14.07.11.06.13.09.09.13-.03.03-.07.05-.1.05-.09,0-.2.14-.2.25,0,.14.16.27.37.31.08.02.27.06.43.1.16.05.44.12.64.16.19.05.51.12.7.17.78.18,1.97.41,2.79.54,1.29.2,1.76.26,2.18.29.24.02.75.06,1.12.1.37.03,1.27.08,1.98.11.71.02,1.98.07,2.82.1,1.89.07,4.31.02,5.41-.12.14-.02.31-.03.86-.08.07-.01.14-.03.15-.06s.04-.03.11,0c.05.02.15.03.23.02.07-.01.22-.03.31-.05.1-.01.22-.03.28-.05.06-.01.18-.03.28-.04.21-.03.32-.05.32-.06,0,0,.04-.01.09-.02.05-.01.21-.03.35-.06.15-.02.33-.05.42-.05s.18-.01.19-.03c.02-.02.07-.03.11-.04.04,0,.19-.02.34-.06.15-.03.29-.06.33-.07.04-.01.26-.05.48-.1.23-.05.49-.09.57-.11s.18-.04.22-.06c.04-.02.16-.05.27-.06.12-.02.21-.04.21-.06s.06-.04.13-.04.22-.04.31-.07c.1-.03.18-.04.18-.02s-.09.05-.21.08c-.11.03-.22.07-.25.09s-.08.04-.12.04-.16.04-.26.08c-.11.05-.25.08-.32.08s-.15.02-.2.04c-.21.1-.42.17-.5.17-.05,0-.15.02-.23.06-.12.05-.72.21-.91.25-.31.06-.49.11-.6.15-.07.02-.17.05-.22.06s-.37.07-.73.14-.79.15-.97.19-.35.07-.37.07c-.23.05-.55.11-.58.1-.02,0-.07,0-.11.02-.04.01-.15.03-.26.05-.11.01-.32.04-.46.07-.34.06-.44.07-.68.1-.11.01-.26.03-.33.05-.08.01-.18,0-.23-.02-.07-.03-.09-.03-.11.01-.02.04-.14.07-.35.08-.18.02-.63.06-1,.09-1.33.12-1.76.13-3.7.12-1.63.05-2.23.03-3.07-.04Zm3.19-2.1c-.4-.03-.95-.08-1.23-.1s-.7-.07-.94-.1c-.24-.04-.54-.07-.66-.08-.3-.02-1.49-.22-2.62-.44-.65-.12-2.27-.51-2.83-.67l-.18-.05.2-.13c.36-.24.5-.41.51-.62v-.19s.44-.13.44-.13c.24-.07.64-.19.9-.27.65-.19.9-.31,1.63-.76.66-.41.69-.42,1.5-.58.96-.19,1.72-.38,1.94-.49.27-.13.56-.41.74-.7.11-.17.14-.19.35-.24.87-.18,1.27-.27,1.43-.33.24-.09.48-.3.63-.56.07-.12.28-.35.46-.52l.33-.31.34.08.34.08.16.45c.21.6.31,1.37.27,2.21q-.03.6-.17.79c-.19.25-.41.44-.59.53-.26.12-.38.51-.26.81.04.09.03.12-.04.19-.15.15-.19.34-.13.58.03.12.09.26.13.31.08.08.08.09.01.24-.05.12-.07.28-.07.61v.46h-.92c-.53,0-1.27-.03-1.67-.07Zm3.56.01c-.17-.08-.21-.19-.17-.48.02-.17.07-.29.21-.47.15-.2.18-.28.18-.44,0-.12-.03-.21-.07-.25-.05-.04-.05-.06.05-.14.18-.15.26-.62.13-.86l-.07-.12.29-.32c.16-.18.31-.38.34-.44.03-.07.06-.45.07-.88.03-1.04-.07-1.82-.3-2.48-.29-.84-.32-.87-.7-.96-.13-.03-.24-.07-.25-.09s.08-.15.19-.29c.12-.14.29-.34.38-.46.19-.25.35-.31.89-.31.35,0,.51.06.93.32.08.05.31.12.5.17q.42.08.66.7c.22.58.35,1.38.35,2.25,0,.76-.05,1.07-.18,1.23-.06.06-.21.24-.33.38-.15.19-.29.29-.4.34-.12.05-.18.09-.18.15,0,.07.03.08.25.07h.26s.01.13.01.13c.01.08,0,.21-.03.29-.04.14-.07.15-.33.22-.27.07-.29.08-.29.19s.01.12.16.12c.35,0,.42.17.18.46-.23.29-.25.34-.25.71,0,.27.02.37.07.43.11.13.74.43,1.04.5.14.04.27.09.28.12.02.05,0,.05-1.24.16-.44.03-.85.07-.92.08-.07,0-.45.02-.85.02-.58.01-.76,0-.86-.05Zm10.14-.05s.05-.02.08,0c.04.01.02.02-.03.02-.05.01-.07-.01-.05-.02Zm2.27-2.04c.08-.07.21-.15.29-.19.07-.03.22-.12.33-.19.29-.19,1.03-.52,1.47-.65.1-.03.22-.09.26-.12.05-.04.19-.08.31-.1.18-.02.26-.06.37-.17.12-.12.17-.14.27-.12.07.01.15,0,.18-.02s.22-.12.41-.22c.52-.26,1.15-.6,1.45-.79.15-.09.39-.24.55-.34.16-.09.42-.26.59-.37.17-.11.4-.26.53-.34.12-.08.47-.32.77-.53q.66-.47.94-.51c.24-.03.32-.07.55-.27.15-.13.66-.38,2.3-1.15.22-.1.13.01-.19.24-.79.57-1.05.75-1.36.96-.18.12-.34.22-.35.24-.01.01-.35.23-.75.48-.76.47-.77.48-1.01.62-.08.05-.26.15-.39.23-.14.08-.47.26-.73.41-.43.24-.5.26-.69.25-.15,0-.22.01-.25.05-.06.1-.36.27-.48.27-.06,0-.2.06-.31.14-.11.08-.32.2-.47.28-.15.07-.28.17-.31.21-.04.07-.25.17-1.16.57-.1.04-.4.17-.66.27-.42.17-.62.25-1.01.4-.05.02-.39.14-.75.26-.37.13-.7.25-.75.27-.12.07-.11.06.05-.07Zm-12.31-.3s.03-.02.03.02c0,.05-.01.07-.02.05-.01,0-.02-.04-.01-.07Zm10.18-.46l-.12-.1.22-.03c.54-.06.7-.16.87-.5.14-.26.15-.45.03-.55-.09-.09-.35-.17-.54-.17-.23,0-.25-.03-.13-.25.13-.24.23-.28.67-.21.16.02.38.05.49.05q.2,0,.26.17l.05.17.26-.02c.25-.02.28-.03.51-.25.34-.31.39-.33.73-.28.35.05.42.08.42.14,0,.03-.08.07-.21.08-.25.03-.44.12-.82.37-.33.21-.41.32-.45.55-.02.13-.08.21-.26.38-.17.16-.24.25-.24.33,0,.15-.09.17-.7.14-.28-.01-.56,0-.64.02-.21.07-.27.07-.4-.04Zm-1.26.04c-.16-.04-.48-.35-.48-.46,0-.14.06-.12.15.07.08.17.29.29.46.29.05,0,.1.04.11.08.02.07,0,.08-.05.07-.04-.02-.13-.04-.19-.05Zm4.26-.47c.02-.07.06-.09.14-.09h.11l-.13.1c-.14.12-.16.12-.12-.01Zm-3.9-.43s.13-.1.26-.17l.24-.12-.18.17c-.15.16-.36.23-.32.12Zm-1.25-.62c-.37-.18-.4-.22-.42-.48,0-.13-.05-.31-.09-.39q-.08-.16,0-.3c.09-.14.11-.15.48-.21.18-.03.26-.08.37-.24.07-.11.1-.12.29-.09.31.03.41.1.63.38.26.34.37.4.55.28l.12-.09.07.08c.07.08.07.09-.04.19-.06.05-.14.16-.18.24-.04.09-.12.16-.23.21-.42.18-.73.34-.84.43-.13.11-.46.11-.71-.01Zm7.54-.11c0-.17.32-.46.68-.63.12-.06.14-.05.27.03l.14.09-.23.12c-.12.07-.3.17-.4.22s-.22.12-.26.15c-.1.06-.2.07-.2.02Zm-14.99-.43c.01-.05.02-.01.02.09s-.01.14-.02.1c-.01-.06-.01-.14,0-.19Zm0-.37s.02-.01.02.05-.01.08-.02.05c-.01-.03-.01-.08,0-.1Zm-11.09-.15l-.38-.19-.58.07c-1.22.14-1.31.14-1.39-.06-.03-.07-.16-.18-.29-.27-.14-.08-.29-.2-.34-.26s-.13-.14-.17-.18q-.08-.07,0-.11c.07-.04.56-.19,1.16-.37.39-.12,1.31-.27,1.43-.24.06.01.19.11.29.22.11.1.26.23.36.27.11.05.19.13.24.24.05.12.1.17.2.19.21.04.85.32.86.38,0,.06-.84.51-.96.51-.03,0-.22-.09-.43-.2Zm23.35.07c0-.16-.13-.32-.38-.49-.16-.11-.29-.17-.38-.17-.07,0-.33.08-.58.19-.24.1-.45.19-.47.19-.09,0-.46-.38-.59-.62-.18-.33-.28-.43-.61-.54l-.26-.09.15-.16c.17-.18.21-.19.49-.1.14.05.23.11.29.2.09.14.57.55.73.63.14.07.44.06.56-.02.09-.06.17-.06.83,0,.56.05.77.06.88.02.12-.04.17-.03.26.02.06.04.12.05.15.04.02-.02,0,0-.04.05s-.09.14-.11.21c-.02.11-.05.13-.2.15-.26.04-.32.08-.38.27-.06.25-.34.42-.34.22Zm4.43-.81c-.3-.21-.43-.51-.29-.69.04-.05.13-.07.36-.07.26,0,.32.01.47.11.09.06.24.12.33.14.14.03.18.02.37-.1.34-.23.5-.3.77-.33.23-.03.25-.02.28.06.02.05.02.09.01.1,0,.01-.22.11-.47.24-.25.12-.52.29-.6.36-.12.11-.21.15-.45.19-.16.03-.34.07-.4.1-.06.02-.12.04-.13.04-.02,0-.13-.07-.25-.15Zm-2.26-.02c-.18-.12-.23-.13-.51-.13h-.31l.15-.07c.08-.04.25-.11.38-.16.22-.08.24-.08.37-.02.32.16.44.32.32.44-.11.1-.17.09-.4-.06Zm-2.16-.39s.05-.02.08,0c.04.01.02.02-.03.02-.04.01-.07,0-.05-.02Zm-39.98-.27c-.63-.43-1.27-.89-1.5-1.08-.12-.1-.33-.27-.46-.36-.13-.09-.33-.25-.44-.34-.11-.09-.36-.3-.56-.45-.2-.16-.44-.38-.53-.48-.16-.18-.17-.19-.11-.3.04-.07.1-.11.18-.11.06,0,.18-.03.27-.06l.16-.06.32.3c.18.17.34.32.37.34.13.12.53.67.53.72,0,.12.25.4.42.48.12.05.22.07.38.05.25-.03.45.04.41.13-.01.04,0,.05.04.03.04-.01.07,0,.07.04,0,.03.04.07.07.09.04.02.11.06.14.1.03.04.08.07.11.07s.08.04.11.08c.03.05.07.08.09.08s.1.05.17.12c.26.23.56.46.62.46.11,0,.06.07-.17.26-.13.11-.25.18-.28.16-.04-.02-.22-.14-.41-.27Zm3.15.01c.02-.05-.22-.25-.3-.25-.04,0-.07-.03-.09-.06s-.04-.06-.07-.06-.07-.02-.1-.04-.16-.12-.29-.21c-.29-.2-.34-.26-.37-.51-.01-.11-.07-.25-.12-.32-.07-.09-.09-.18-.09-.35,0-.3-.1-.46-.4-.64-.27-.17-.74-.33-.94-.33h-.15l.11-.15c.14-.19.24-.51.24-.74,0-.1-.07-.32-.16-.52-.08-.19-.16-.38-.16-.41-.01-.05.12-.07.52-.13.6-.08,1.21-.28,1.39-.45.06-.06.14-.19.16-.29.15-.55.13-.52.42-.7.26-.16.54-.27.59-.23.01.01-.02.08-.07.15s-.11.21-.15.31c-.03.1-.09.19-.13.2-.09.03-.15.17-.13.29.01.05.06.17.11.27.06.1.14.3.18.43.15.49-.09.95-.62,1.19-.54.24-.7.21-.7-.13,0-.16-.03-.27-.12-.41-.07-.1-.12-.21-.12-.24s-.08-.05-.2-.05c-.15,0-.23.02-.31.1-.06.05-.11.13-.11.16,0,.14.18.49.34.67.19.22.29.38.33.56.06.24.36.18.78-.14.13-.1.34-.24.47-.3l.23-.11.32.09c.39.11.72.27.83.41.07.08.08.17.08.39,0,.24.01.3.09.36.11.08.16.33.17.71.01.5-.49,1.1-1.14,1.38-.35.16-.33.15-.32.1Zm36.11-.28c-.35-.01-.65-.02-.67-.02s-.14-.12-.26-.26c-.13-.14-.27-.29-.33-.32-.07-.05-.09-.08-.06-.15l.04-.09.5.14c1.19.33,1.55.46,1.63.58.11.17.1.19-.07.16-.07-.01-.42-.03-.78-.04Zm2.22-.32s.05-.14.07-.24c.04-.14.15-.27.51-.62l.46-.44v-.21c0-.17-.03-.24-.13-.38l-.13-.17.09-.22c.11-.28.15-.32.41-.47.71-.41,1.02-.55,1.33-.6.39-.06.56-.15.65-.36.04-.09.14-.43.23-.78.09-.34.19-.65.23-.7.04-.04.16-.12.28-.17.18-.08.21-.09.23-.03.02.04-.02.1-.09.15-.28.2-.31.72-.05.79.04.02.08.05.08.07,0,.03-.11.22-.24.42-.3.48-.46.78-.49.97-.02.12,0,.17.11.31.22.26.2.32-.32.81-.38.36-.47.46-.49.6-.04.21-.15.42-.54,1.03-.13.2-.13.21-.37.22-.13.01-.51-.01-.84-.04-.54-.05-.62-.05-.7.01-.14.13-.32.13-.29.05Zm-1.25-.85l-.36-.11.25-.26c.2-.21.25-.29.27-.45.03-.23-.01-.36-.18-.51-.2-.17-.28-.2-.45-.15-.29.07-.91.4-1.22.65-.17.13-.36.27-.42.31q-.12.07-.17-.02c-.03-.05-.12-.16-.21-.24-.15-.14-.16-.19-.27-.79l-.12-.63.08-.24c.11-.32.11-.37-.08-.56-.09-.09-.23-.24-.31-.32s-.3-.22-.49-.31c-.26-.12-.36-.19-.39-.28-.18-.45-.37-1.09-.36-1.17.02-.16.37-.2,1.93-.2s1.66-.02,1.94-.26c.19-.17.24-.32.21-.67-.01-.16-.05-.25-.12-.33l-.1-.1h1.13c1.38,0,1.54-.04,1.46-.35-.03-.09-.05-.1-.24-.11-.12,0-.29-.04-.4-.09-.16-.07-.2-.11-.21-.22-.01-.14.17-.52.45-.92.18-.25.18-.28.1-.47l-.06-.14.18-.07c.98-.36,1.08-.42,1.39-.83.12-.17.17-.2.29-.2.15,0,1.81-.6,1.94-.7.09-.07.5-.63.51-.71.01-.03,0-.09-.02-.14-.03-.07.01-.14.18-.34.19-.22.23-.25.41-.27.11-.01.51-.12.9-.24.78-.24.8-.24,1.3-.85.2-.24.27-.3.4-.32.29-.05.34-.09.52-.42.12-.23.21-.34.32-.4.08-.05.16-.1.18-.12s.04-.21.04-.41c0-.36,0-.37.16-.56.29-.33.78-.8.94-.89.08-.05.24-.14.35-.19.39-.2.65-.36.84-.49.11-.08.36-.24.55-.37.19-.12.48-.35.65-.49.26-.23.31-.26.35-.19.02.04.12.12.22.18.16.1.22.11.51.11.18,0,.58-.01.88-.01.8,0,.82-.01,1.17-.31.34-.29.5-.36.62-.26.22.19,1.37.31,1.69.18.09-.04.51-.28.95-.55.43-.26.88-.55,1.01-.62.12-.07.26-.14.3-.14.08,0,.08-.01-.11.7-.07.26-.16.57-.19.68-.14.52-.61,1.87-.9,2.63-.33.84-.44,1.11-.54,1.32-.04.08-.25.54-.47,1.01-.75,1.6-1.41,2.78-2.53,4.51-.31.48-1.1,1.6-1.36,1.94-.45.58-1.24,1.55-1.54,1.9-.85.99-2.32,2.51-2.45,2.53-.12.02-.57-.24-.73-.43-.1-.11-.2-.19-.29-.2-.07-.01-.19-.04-.26-.05-.08-.01-.22-.1-.32-.18l-.18-.15-.59-.05c-.63-.05-.71-.07-.71-.14,0-.02.09-.19.19-.36.11-.17.2-.38.22-.46.02-.14.01-.15-.13-.22-.08-.04-.15-.09-.15-.12,0-.14.1-.31.24-.38s.15-.08.11-.22c-.04-.19-.11-.33-.22-.38-.07-.03-.15-.01-.39.1-.17.08-.34.19-.4.24-.06.07-.15.31-.27.76-.26.98-.23.93-.71,1.01-.16.02-.32.05-.37.07-.06.02-.07,0-.08-.1,0-.06-.02-.15-.04-.19-.02-.05,0-.14.05-.23.1-.18.1-.36,0-.68-.13-.45-.5-.7-.92-.63-.29.05-.73.28-.96.5-.22.21-.23.22-.35.73-.15.62-.2.79-.25.85-.02.02-.15.06-.27.07-.23.03-.38.08-.66.24-.09.05-.36.19-.59.32-.45.24-.67.44-.82.74-.23.49-.27.74-.15,1.06l.06.17-.26.24c-.29.27-.51.57-.51.69,0,.08-.01.07-.11-.03-.09-.11-.22-.17-.48-.25Zm-39.5-.36l-.16-.15.18.09c.11.05.19.12.19.15,0,.09-.03.08-.21-.09Zm7.45-.77s.05-.19.14-.33c.14-.24.16-.29.11-.38-.04-.07-.08-.1-.18-.1-.14,0-.31-.12-.31-.23,0-.04.05-.06.15-.06.26,0,.49-.12.72-.37.19-.21.22-.23.41-.24.25,0,.46-.11.51-.26.06-.14.11-.49.1-.67,0-.12.01-.15.06-.13.04.02.07,0,.07-.05,0-.04.06-.14.14-.21.12-.12.14-.17.17-.48.04-.41.18-.76.32-.79.05-.01.19-.04.3-.05.12-.02.37-.1.55-.19.4-.19.63-.21,1-.07.18.07.26.12.27.18.04.13-.07.31-.28.47-.2.15-.21.24-.04.42.07.08.1.13.07.19-.02.05-.04.15-.04.23,0,.24-.08.3-.38.3-.14,0-.28.02-.3.05-.03.02-.13.14-.23.26-.23.27-.38.32-.77.27-.2-.02-.3-.02-.33.01-.06.08-.14.54-.11.67.03.12-.06.41-.17.61-.07.14-.66.63-.8.68-.07.02-.18.03-.26.02-.17-.03-.3.03-.47.2-.14.12-.38.15-.42.05Zm44.18-.15c-.07-.08-.07-.09,0-.36.04-.15.06-.3.05-.34-.02-.05.11-.2.4-.5,1.14-1.17,2.13-2.32,3.2-3.7.26-.33,1.36-1.86,1.6-2.24,2.33-3.57,4.05-7.54,4.96-11.45.02-.08,1.07-.77,1.13-.74.02.01.01.09-.01.19-.02.1-.05.21-.05.26-.01.05-.03.11-.05.14-.02.03-.04.12-.05.2-.02.23-.04.35-.09.44-.04.08-.11.37-.12.52,0,.03-.03.12-.06.19s-.07.19-.07.26c-.02.15-.11.48-.21.76-.08.24-.18.54-.19.62,0,.03-.05.15-.1.27s-.1.29-.11.38c-.02.17-.21.74-.29.87-.02.05-.06.15-.07.24-.01.09-.06.19-.1.23-.07.07-.36.84-.36.95,0,.02-.03.05-.06.05-.04,0-.06.03-.06.06,0,.06-.2.53-.59,1.37-.12.25-.22.48-.22.5s-.03.06-.06.09c-.03.02-.07.1-.09.17-.01.07-.06.15-.09.19-.04.04-.07.1-.07.14s-.01.08-.04.08c-.02,0-.07.09-.11.21-.04.11-.11.23-.14.26-.04.03-.07.1-.08.14s-.02.09-.04.1c-.01.01-.07.12-.13.24s-.12.22-.14.22-.06.07-.09.17c-.04.1-.08.18-.11.2-.04.02-.07.07-.08.11-.04.18-.08.26-.15.29-.04.01-.05.04-.04.06.01.02,0,.06-.04.09s-.07.08-.07.11-.02.06-.04.06c-.03,0-.04.02-.04.06,0,.07-.16.34-.25.43-.03.03-.06.08-.06.12s-.02.06-.05.06c-.02,0-.03.02-.02.04s0,.04-.04.04-.07.04-.07.08c0,.05-.02.08-.04.08-.03,0-.04.03-.04.06,0,.04-.04.1-.09.15s-.09.12-.09.14-.02.05-.04.05c-.03,0-.04.03-.04.06s-.02.06-.04.06-.07.05-.1.12c-.04.06-.13.21-.21.32s-.15.22-.15.24-.04.07-.09.12-.09.12-.09.14-.02.05-.04.05c-.03,0-.04.03-.04.06s-.02.06-.04.06-.06.04-.07.09c-.01.05-.07.13-.13.19-.06.05-.11.12-.11.13,0,.02-.05.09-.11.15-.06.07-.11.13-.11.15s-.03.05-.06.08-.09.1-.13.17c-.08.12-.16.21-.57.63-.14.14-.37.43-.5.62-.37.53-.67.93-.81,1.05-.07.06-.12.13-.12.16s-.03.05-.06.05-.11.07-.17.16c-.06.08-.19.23-.28.33-.1.09-.23.24-.3.33-.07.08-.22.23-.32.33s-.18.2-.18.22-.02.05-.04.05c-.06,0-.31.24-.28.26.05.05-.32.26-.51.28-.11.01-.22.03-.23.03-.02-.02-.07-.06-.11-.1Zm-53.04-.73c-.17-.32-.33-.51-.44-.51-.12,0-.13-.06-.04-.24.09-.17.19-.24.43-.28.11-.02.15-.01.17.05.04.1.07.19.22.48.14.29.13.51-.03.67-.05.05-.11.1-.13.1s-.1-.12-.18-.27Zm8.67-1.2c-.11-.12-.13-.53-.04-.75.04-.11.07-.13.23-.15.1-.02.3-.08.44-.15s.26-.12.27-.11c.01.01,0,.06-.03.12-.06.16-.05.4.02.52q.06.11-.11.14c-.12.02-.22.08-.37.22-.11.11-.2.21-.2.23,0,.08-.13.03-.21-.07Zm-12.73-.14c-.14-.19-.51-.26-.85-.17-.14.04-.15.03-.51-.31-.5-.48-.54-.52-.96-1.01-1.36-1.58-2.65-3.32-3.23-4.37l-.19-.34.13-.15c.18-.21.23-.42.19-.84-.04-.42-.09-.56-.29-.74-.2-.19-.49-.32-.93-.43-.2-.05-.4-.12-.44-.16-.04-.04-.11-.17-.17-.29-.06-.12-.15-.3-.21-.38-.06-.09-.1-.18-.1-.2s-.05-.13-.11-.24c-.06-.1-.17-.33-.24-.5l-.13-.31.25-.05c.15-.03.29-.1.37-.16l.12-.11.25.15c.15.09.25.18.25.23,0,.04.03.1.07.14.04.03.07.09.07.13s.05.13.11.2.11.16.11.19.14.32.3.64c.17.32.32.63.33.69.02.06.05.12.07.15.04.04.38.65.62,1.11.05.09.1.17.12.19s.07.1.13.2c.05.09.11.17.14.17s.04.02.02.04c-.01.02,0,.06.04.09.04.03.11.13.16.22.05.1.11.18.13.19.02.01.04.06.05.11,0,.05.04.11.06.14.03.03.1.15.17.26.07.12.15.23.18.26s.06.07.06.09.13.23.29.46c.17.23.32.45.35.49.05.08.07.12.39.52.11.14.2.27.2.29,0,.05.3.35.35.35.02,0,.03.05.02.1-.02.07,0,.11.07.13.05.02.08.05.06.09-.01.03,0,.06.05.06.04,0,.07.02.07.06,0,.03.03.07.07.08s.07.05.07.09c0,.03.02.06.04.06s.04.02.04.05.07.13.16.22c.09.09.22.24.28.34.06.09.14.17.16.17.03,0,.06.03.06.07,0,.05.05.1.11.12.06.03.1.07.08.09-.01.02.02.06.07.08s.09.06.09.07c0,.02.08.12.18.24.16.17.29.31.79.81.04.05.11.08.13.08.09,0-.1.12-.19.12-.04.01-.1-.02-.13-.07Zm4.25-.35s.05-.06.09-.06c.06,0,.06.01-.01.1-.08.1-.13.07-.08-.04Zm-1.63-.03c-.15-.2-.28-.24-.49-.14-.07.04-.2.07-.29.07-.15,0-.2-.04-.54-.36-.5-.48-.8-.79-.8-.82,0-.02-.22-.26-.43-.45-.05-.05-.1-.12-.1-.14s-.03-.06-.07-.07c-.04-.02-.07-.05-.07-.08s-.03-.07-.07-.08c-.04-.02-.07-.05-.07-.07s-.04-.08-.09-.12c-.04-.04-.14-.14-.2-.24-.07-.1-.14-.17-.15-.17-.02,0-.04-.02-.04-.06,0-.03-.05-.1-.11-.17-.06-.06-.11-.13-.11-.15s-.01-.04-.04-.04c-.02,0-.09-.08-.15-.19-.07-.1-.15-.19-.17-.19s-.03-.02-.01-.04c.01-.02,0-.05-.04-.07-.04-.01-.07-.04-.07-.06,0-.04-.04-.1-.19-.25-.04-.04-.07-.09-.07-.1,0-.02-.25-.38-.55-.81s-.55-.79-.55-.8-.05-.09-.11-.18-.11-.18-.11-.22-.03-.09-.06-.12-.11-.15-.18-.27q-.12-.21-.05-.42c.04-.11.12-.25.18-.3.09-.08.11-.13.11-.35,0-.14-.02-.34-.04-.43-.04-.15-.03-.19.04-.27.15-.14.18-.36.11-.63-.06-.2-.11-.27-.31-.45l-.24-.21.21-.21c.12-.12.22-.2.23-.18s.05.14.08.28c.07.31.31.55.64.66.15.05.25.11.3.2.22.35.24.4.23.74,0,.38.06.6.23.81.16.19.73.54,1.53.93.26.12.88.55,1,.69.08.08.25.3.38.47.39.51.51.63.76.71.27.08.48.04.73-.16.22-.18.32-.41.32-.71,0-.34-.1-.62-.29-.84-.17-.19-.21-.24-.42-.53-.06-.09-.23-.29-.37-.43-.14-.14-.22-.25-.17-.23s.15.05.22.08c.41.14,1.1.78,1.39,1.29.33.57.48.68.99.68.3,0,.49-.07.7-.24.09-.07.18-.14.21-.14.02,0,.18-.08.35-.19l.31-.19.34.08c.42.1.53.1.94.02.55-.12.73-.29.77-.72.01-.16.04-.3.07-.32.07-.05.88-.43.91-.43.01,0,.18.05.37.09.29.07.38.08.57.04.13-.03.28-.07.35-.1.11-.05.12-.08.12-.29,0-.15.03-.3.09-.41.08-.15.14-.19.56-.39.26-.12.51-.25.55-.29.07-.06.33-.41.61-.84.05-.08.07-.2.07-.4,0-.28,0-.29.15-.36.08-.04.15-.09.15-.11s.02-.03.04-.03.04.02.04.05c0,.02.07.14.16.26.22.31.52.45.92.43l.29-.02v.13c0,.13.02.19.15.48.06.14.06.16-.07.41-.23.46-.29.68-.33,1.15l-.03.45-.22.02c-.23.02-.46.18-.5.35-.02.08-.06.09-.4.11-.23.01-.48,0-.62-.04-.15-.03-.52-.05-.95-.05-.8,0-.95.04-1.25.35-.15.15-.18.22-.26.59-.05.24-.1.56-.1.72,0,.26.02.34.23.77.23.47.35.62.65.84l.15.11h-.2c-.25,0-.5.11-.6.26-.07.11-.1.12-.3.12-.23,0-.6.09-.73.18-.04.03-.12.07-.19.11-.21.09-.41.31-.47.5-.04.14-.07.17-.17.17-.22,0-.55.13-.88.34-.41.27-.59.49-.66.8-.03.13-.07.26-.09.28-.06.08-.57.22-.96.27-.35.05-.37.04-.45-.04-.14-.14-.28-.15-.58-.03-.15.06-.32.12-.38.13-.06.02-.18.07-.26.11-.27.15-.64.28-.78.29-.1-.01-.15-.04-.25-.18Zm47.96.01s0-.04.02-.04c.03,0,.05.02.05.04s-.01.04-.02.04-.03-.02-.05-.04Zm-41.73-.85c.03-.06.04-.16.04-.22,0-.1.02-.12.19-.17.14-.03.25-.03.42.01.12.02.22.06.22.07,0,.06-.21.19-.48.29-.38.15-.44.16-.39.02Zm3.13-.48l-.11-.08.13-.1c.42-.33.46-.37.46-.5,0-.07-.04-.17-.11-.24-.1-.1-.13-.12-.37-.11-.14,0-.37.02-.52.05-.19.03-.27.03-.29,0-.03-.04-.39-.02-.54.03-.04.01-.07-.02-.08-.1l-.02-.12.35.02c.25.01.46,0,.69-.05.53-.11.66-.12.9-.06.37.08,1.13-.01,1.38-.17.13-.08.28-.13.44-.14.14-.01.29-.04.35-.07.15-.06.34-.05.41.03.05.06.04.08-.05.15-.45.33-.53.41-.53.55,0,.12.03.15.13.2.24.12.23.31-.03.42-.08.04-.16.1-.18.14-.02.07-.04.07-.26.02-.32-.07-.59-.02-1.02.17-.18.08-.44.16-.59.18s-.29.06-.32.08c-.04.03-.06.01-.09-.09-.01-.07-.08-.17-.13-.21Zm-2.64-.69l-.24-.03.2-.07c.2-.07.21-.07.4.01.28.12.32.19.07.15-.1-.02-.3-.05-.43-.06Zm31.69-.44c.13-.16.15-.29.06-.42-.12-.17-.16-.33-.09-.44s.08-.32.03-.4-.26-.14-.52-.14c-.18,0-.24-.02-.24-.06,0-.03-.04-.17-.09-.31-.05-.15-.07-.27-.05-.31.04-.07.73-.56.79-.56.07,0,.2.3.22.48.04.44.07.67.08.75.03.13.25.19.48.13.29-.07.43-.16.72-.44l.28-.27.32.03c.26.02.34.05.42.13.1.1.1.11.02.23-.04.07-.37.41-.72.75-.55.54-.64.64-.61.72.02.05.05.09.07.11.02.01.19-.05.39-.14.31-.14.36-.15.38-.09.04.09.24.26.38.32.1.04-.12.05-1.15.05h-1.27l.1-.12Zm21.79-.28s.09-.13.16-.23c.07-.1.12-.18.12-.2,0-.01.05-.09.11-.16s.11-.15.11-.17.07-.12.16-.24c.09-.12.2-.26.23-.32.04-.06.18-.29.31-.5.51-.82.69-1.12,1.27-2.21.33-.62.62-1.17.66-1.24.03-.07.15-.32.26-.56s.24-.51.28-.6c.04-.09.1-.21.11-.27.02-.06.05-.12.07-.14s.06-.12.09-.21c.03-.09.08-.19.11-.23.04-.04.11-.23.18-.43s.17-.46.23-.57c.07-.11.14-.28.17-.37s.12-.35.2-.58c.09-.23.17-.5.18-.6.02-.1.06-.25.09-.33.03-.08.11-.31.17-.51.06-.2.16-.52.22-.72.07-.2.13-.43.15-.52s.08-.31.13-.5c.16-.61.27-1.11.36-1.56.07-.36.11-.49.24-.66.11-.17.15-.27.18-.48.05-.51.16-.92.49-1.82.18-.52.33-.98.33-1.07,0-.22-.21-.98-.33-1.18-.1-.17-.1-.18-.04-.81.03-.35.07-.72.11-.83.04-.12.04-.36.02-.71l-.03-.52.12-.03c.06-.01.19-.02.28,0,.09.01.27.04.4.05s.23.05.23.07c0,.14-.09,1.71-.13,2.27-.1,1.52-.48,3.89-.88,5.46-.26,1.03-.49,1.87-.57,2.06-.03.07-.06.17-.07.23-.03.15-.59,1.74-.79,2.26-.39.98-1.18,2.77-1.38,3.11-.03.04-.17.31-.32.59-.47.9-.92,1.67-1.5,2.6-.38.6-1.22,1.82-1.63,2.36-.45.6-.83,1.08-.85,1.08-.03,0-.03-.03-.01-.06Zm-49.97-.41c-.19-.11-.27-.14-.48-.14-.16,0-.26-.02-.26-.05,0-.12-.22-.28-.71-.5-.3-.14-.58-.28-.62-.33-.04-.04-.15-.25-.26-.46l-.19-.39.07-.4c.04-.22.11-.43.14-.46.1-.09.89-.11,1.33-.02.19.04.51.07.72.07h.37l.11.22c.06.12.16.33.23.47.14.3.29.41.93.69.49.22.59.32.53.55-.04.14-.06.16-.28.22-.29.08-.63.09-1,.02-.36-.07-.4-.03-.33.27.11.42.07.45-.3.24Zm31.52-1.93v-.26s.19-.08.19-.08c.21-.09.29-.08.29.04,0,.04.03.12.07.17s.06.12.04.16c-.03.06-.46.26-.53.25-.03-.02-.06-.14-.06-.28Zm-42.29-.34c-.1-.12-.26-.33-.35-.46-.24-.31-.81-.74-1.41-1.04-1.03-.52-1.32-.72-1.32-.91,0-.03.07.01.16.09.09.08.26.18.37.22.61.21.84.33.91.44.09.16.25.25.51.29.18.03.26.07.44.23.12.11.33.35.47.53s.29.38.35.43c.11.11.2.43.11.41-.04.01-.14-.1-.24-.23Zm43.43-.51l-.09-.23.12-.02c.74-.17,1.33-.36,1.5-.49.08-.06.55-.23.64-.23.06,0-.22.44-.36.54-.05.04-1.63.65-1.69.66-.02-.01-.07-.11-.12-.23Zm-41.21-.18c-.27-.49-.43-.69-.79-1.03-.22-.21-.38-.38-.37-.38.04,0,.68.4.9.57.17.12.27.24.62.68l.1.12-.12.1c-.17.13-.24.12-.34-.06Zm.76-.81c-.08-.14-.35-.45-.62-.69-.21-.2-.28-.24-.46-.26-.26-.04-.4-.12-.45-.25-.04-.11-.28-.24-.79-.41-.44-.15-.59-.26-.65-.46-.02-.09-.03-.19-.02-.23.02-.11.23-.09.35.03.27.26.77.12.61-.18-.03-.07-.05-.24-.05-.43,0-.3.02-.33.17-.55.16-.21.25-.28.25-.19,0,.02-.02.05-.04.07-.03.01-.04.09-.04.18,0,.17.07.26.28.33.09.03.12.07.12.15,0,.06.03.17.06.24.13.28.92.88,1.35,1.01.6.19,1.32.82,1.74,1.53l.26.45h-.18c-.11.02-.29,0-.44-.06-.36-.12-.59-.11-.86.03l-.22.12-.15-.17c-.11-.1-.19-.21-.22-.26Zm11.27.06c-.15-.07-.29-.08-.69-.08-.52,0-.92-.06-.95-.15-.01-.02,0-.22.02-.43.03-.32.07-.44.22-.74.25-.48.28-.8.11-1.15-.11-.22-.12-.27-.09-.57.03-.35,0-.42-.18-.51-.13-.07-.65-.06-.83.01-.08.03-.18.05-.22.04-.04-.02-.13-.14-.22-.29l-.15-.26.11-.08c.2-.14.48-.24.89-.31.71-.11,1.06-.33,1.06-.66,0-.09-.04-.12-.21-.19-.16-.07-.26-.08-.51-.07l-.3.02.3-.18c.4-.24.48-.32.59-.55.05-.1.14-.24.19-.31.15-.19.22-.42.24-.91l.03-.46.53-.48c.51-.46.54-.48.83-.55.4-.1.48-.15.69-.48.1-.15.3-.41.46-.56.37-.38.59-.72.62-1,.03-.21.04-.24.28-.41.34-.26.43-.4.53-.81.05-.23.13-.43.22-.56.33-.48.37-.55.39-.76.03-.24-.04-.44-.24-.71-.11-.15-.11-.16-.04-.3.1-.19.1-.24-.04-.5-.11-.21-.11-.26-.1-.69.01-.37.04-.49.11-.63.05-.1.14-.33.18-.51.07-.27.11-.36.26-.51.28-.29.29-.54.04-.82l-.14-.16v-.48c0-.43-.01-.51-.11-.71-.16-.32-.33-.49-.61-.61-.13-.05-.29-.14-.34-.18-.18-.14-.88-.99-.93-1.15-.03-.08-.11-.31-.17-.5-.06-.19-.14-.41-.18-.47-.11-.17-1.04-.87-1.71-1.28-.31-.19-.74-.48-.96-.63-.4-.28-.62-.39-.75-.39-.04,0-.31.1-.59.23-.49.21-.54.23-1.04.26-.63.05-.76.05-.76.01,0-.07,1.76-.83,1.93-.83.07,0,.16.03.22.06.05.04.27.09.48.13.32.05.49.05,1.01.02l.63-.05.53-.23.53-.23.16.1c.09.05.32.21.51.35.2.14.48.32.63.41.52.31.98.62,1.42.96l.44.34.14.42c.19.58.27.74.62,1.17.41.51.6.68.98.85q.32.14.46.45c.14.31.15.32.12.76l-.02.46.18.18c.22.22.23.32.02.51-.2.18-.24.24-.33.62-.04.17-.13.43-.19.57-.11.25-.12.3-.1.79.01.45.03.54.11.67l.1.15-.09.15c-.1.18-.08.27.15.62.24.38.22.5-.17,1.03-.15.2-.21.34-.29.66-.11.43-.13.46-.63.86-.1.07-.14.16-.18.39-.07.32-.23.57-.63.98-.11.11-.28.31-.37.43-.25.37-.26.37-.59.46-.35.09-.39.12-1.1.76-.25.22-.45.44-.45.48s0,.26-.01.48c-.01.43-.01.44-.33,1.01-.18.3-.19.32-.61.58-1.02.64-.99.61-1.2,1.03-.29.55-.29.57-.05.98.26.45.38.52.73.41.14-.05.32-.07.47-.06h.24s-.02.35-.02.35c-.01.3,0,.37.11.59.16.33.14.53-.11,1.01-.16.31-.19.43-.23.77-.04.34-.04.46.03.7.04.16.07.35.07.41,0,.14-.1.24-.24.24-.06,0-.18.05-.27.12-.35.2-.39.21-.65.1Zm-15.38-.83c-.1-.09-.23-.18-.3-.21-.11-.05-.12-.07-.05-.12.06-.05.09-.03.23.09.09.08.27.22.39.3.13.09.23.17.23.17,0,0-.07-.01-.17-.03-.07-.02-.23-.11-.33-.2Zm1.19-.31c-.33-.13-1.08-.77-1.08-.93,0-.04.07-.15.16-.25.14-.14.18-.17.3-.16h.14v.42c0,.5.04.57.43.81.29.18.3.21.05.11Zm-2.51-.61c-.07-.23-.36-.31-.56-.15-.07.05-.12.08-.13.07s-.07-.1-.13-.2l-.11-.19.1-.17c.11-.17.12-.18.45-.11.18.04.19.03.19-.06,0-.16-.11-.31-.32-.46-.21-.14-.38-.41-.38-.6,0-.09.05-.14.24-.25.27-.17.38-.29.38-.45,0-.18.11-.24.37-.21.13.01.28.05.34.07.14.06.29.32.36.61.03.15.09.27.15.33.06.05.11.14.11.21,0,.1-.03.12-.17.16-.09.03-.19.07-.23.09-.18.13-.66.88-.66,1.03,0,.1.07.23.19.36l.09.1-.12-.05c-.08-.03-.14-.09-.16-.13Zm-4.19.1s-.45-.93-.49-.96c-.02-.01-.05-.09-.07-.17s-.09-.25-.16-.37c-.07-.12-.13-.26-.13-.31s-.04-.12-.08-.16c-.05-.04-.1-.12-.11-.17-.02-.05-.05-.1-.07-.1-.03,0-.04-.04-.04-.09s-.04-.17-.08-.26c-.15-.31-.32-.74-.29-.76.04-.04.33.08.47.19.14.12.27.16.54.17.18,0,.3-.08.36-.25.07-.19.33-.12.89.23.12.07.3.13.54.17.44.07.53.12.53.26,0,.06.06.21.13.33l.14.22-.19-.1c-.26-.13-.72-.18-.91-.09-.13.06-.18.15-.25.44-.01.07-.1.14-.24.21-.12.06-.25.16-.29.22-.15.22-.05.64.22.91l.13.13-.13.07c-.07.04-.15.12-.17.17-.03.06-.09.1-.15.1-.06,0-.1,0-.1-.03Zm8.91-2.08c-.07-.03-.12-.1-.14-.18-.02-.07-.08-.2-.14-.29-.22-.33-.05-.39.48-.17.2.08.49.19.65.25.3.1.44.19.44.29,0,.05-.15.07-.84.11-.11.01-.23.02-.27.02-.04.01-.12-.01-.18-.03Zm2.48-.43c-.31-.07-.41-.14-.31-.24.08-.08.05-.29-.06-.44-.09-.12-.11-.19-.11-.42s.02-.31.13-.5c.14-.25.21-.48.13-.48-.07,0-.37-.22-.53-.38-.2-.22-.26-.24-.8-.28-.47-.04-.49-.04-.82-.23-.18-.11-.49-.34-.68-.52-.31-.29-.37-.32-.55-.34-.61-.07-1.09-.2-1.28-.33-.27-.18-.31-.19-.48-.12-.14.05-.15.07-.12.21.01.09.04.22.08.29.06.13.05.15-.07.36-.07.13-.15.24-.19.25-.03.01-.12-.03-.21-.1-.15-.12-.61-.26-.86-.26-.22,0-.69-.14-.84-.26-.17-.13-.38-.2-.59-.2-.28,0-.77.3-.77.46,0,.15-.06.14-.9-.19-.34-.13-.45-.16-.75-.16-.27,0-.39.02-.51.07-.11.06-.3.09-.75.12-.6.04-.83.02-1.19-.06-.24-.05-.36-.03-.59.11-.09.06-.2.1-.25.1-.08,0-.09,0-.26-.6-.05-.18-.14-.45-.18-.6-.05-.15-.1-.34-.11-.41-.01-.08-.07-.26-.11-.41-.1-.33-.15-.66-.1-.66.02,0,.11.05.19.1.15.1.25.12.43.08.16-.04.16-.19,0-.5-.08-.16-.23-.48-.33-.72-.25-.59-.64-1.32-.77-1.46-.08-.08-.11-.14-.09-.2.02-.05-.01-.35-.06-.67-.09-.6-.27-2.16-.27-2.42,0-.08-.02-.61-.05-1.18-.15-3.22.35-7.37,1.25-10.46.05-.16.09-.34.11-.39.02-.09.07-.26.29-.97.05-.16.13-.39.18-.52.05-.12.09-.26.1-.31s.05-.17.09-.27.08-.23.09-.29c.01-.05.04-.12.06-.14.02-.02.07-.13.1-.25.07-.22.27-.73.33-.87.02-.05.1-.23.18-.41.07-.18.15-.37.18-.41.02-.05.13-.29.24-.54.11-.25.25-.55.3-.66.06-.11.19-.37.29-.58.31-.63.77-1.46,1.2-2.19.12-.21.26-.43.29-.5.04-.07.08-.13.1-.14.02-.01.08-.1.13-.21.05-.1.11-.19.13-.21.02-.01.09-.12.15-.24.07-.12.15-.24.18-.26.04-.02.06-.06.06-.08,0-.04.89-1.31,1.23-1.75.12-.16.32-.42.44-.58s.25-.32.28-.35.18-.21.32-.39c.15-.18.29-.36.33-.4.04-.04.23-.26.42-.49.19-.23.36-.42.38-.42.01,0,.04.15.06.34.02.18.07.45.13.59.15.36.62,1.36,1.1,2.31l.41.81.04.54c.04.55.04.53-.15,1.19-.04.14-.22.55-.39.91-.36.74-.39.85-.47,1.49-.06.52-.03.76.16,1.21.1.24.11.28.06.47-.07.3-.03.62.16,1.05.09.21.2.45.24.56.23.55.58,1.34.63,1.44.06.11.34.5,1.18,1.67l.29.41-.06.15c-.04.08-.12.3-.2.48-.11.26-.15.44-.2.89-.13,1.19-.08,1.38.4,1.79.45.38.57.41,1.38.38l.64-.02.18.34c.11.21.26.42.42.57.22.2.29.25.57.33.3.09.39.09,1.08.07.78-.02.96-.06,1.19-.22.07-.05.15-.09.16-.09s.17-.06.35-.14c.18-.07.44-.19.59-.25s.32-.14.38-.17c.09-.05.15-.05.21-.02.16.08.77.17,1.17.17.86,0,1.25-.06,1.63-.23.56-.24.49-.25.87.02.56.39.84.58,1.04.67.21.1.66.42,1.08.76.26.21.27.22.4.64.19.59.25.69.7,1.22.42.5.81.84,1.07.91.14.04.18.08.25.24.05.12.08.26.07.36-.01.09-.01.31-.02.48,0,.26.02.33.1.44l.1.13-.11.18c-.06.1-.15.33-.19.51s-.13.43-.19.54c-.11.22-.11.1-.08,1.97,0,.34.07.55.24.81.06.09.11.19.11.21s-.08.15-.17.28c-.25.34-.36.55-.36.67,0,.06-.03.2-.07.31-.06.18-.11.24-.34.42-.31.23-.4.38-.45.7-.04.24-.25.55-.59.86-.1.09-.25.26-.32.38-.14.23-.18.26-.53.34-.23.06-.44.21-1.14.85-.55.5-.61.62-.6,1.22,0,.23-.02.39-.06.46-.04.06-.12.21-.2.35-.13.22-.19.28-.66.57-.66.42-.98.69-1.12.96-.06.12-.12.21-.13.21-.02,0-.11-.03-.2-.07-.11-.05-.38-.08-.72-.1-.3-.02-.69-.05-.86-.06-.48-.04-.6.02-1.02.45-.28.28-.72.43-1.69.58-.29.06-1.11.04-1.4-.02Zm-7.16-2.68c-.07-.05-.24-.13-.39-.17-.35-.1-.49-.17-.55-.28q-.05-.09.05-.02c.25.17.57.28,1.02.34.26.04.47.08.47.1,0,.03-.27.11-.4.12-.04.01-.13-.04-.2-.09Zm-8.28-.14s.12-.01.18,0,.02.02-.07.02c-.1,0-.15,0-.11-.02Zm-.33-.55c-.17-.03-.4-.04-.51-.03-.21.02-.22.02-.26-.11-.06-.17-.31-1.1-.31-1.14,0-.02.08-.05.18-.08.24-.07.4-.27.43-.55.02-.21.01-.26-.2-.67-.12-.25-.3-.64-.4-.88s-.29-.63-.43-.87c-.26-.44-.31-.63-.38-1.28-.01-.12-.06-.55-.11-.95-.26-2.25-.26-4.9,0-7.17.13-1.1.12-1.07.22-1.7.44-2.81,1.24-5.61,2.37-8.27.26-.62.26-.61.75-1.63.49-1.03,1.15-2.23,1.17-2.16,0,.02-.03.1-.07.18-.05.08-.09.17-.09.2s-.03.08-.07.1-.07.07-.07.11c-.01.03-.1.26-.22.52-.41.92-.59,1.38-.6,1.49,0,.02-.04.07-.07.11-.04.03-.07.07-.07.07.01.02-.04.16-.14.38-.05.11-.08.25-.07.31.01.07-.01.15-.08.23-.05.07-.11.17-.12.21-.04.16-.22.71-.28.89-.04.1-.07.24-.09.31-.01.07-.06.21-.1.31-.05.1-.09.25-.11.33-.01.08-.05.21-.09.3-.04.08-.08.21-.09.29-.01.07-.04.19-.07.26-.05.13-.16.53-.31,1.21-.04.21-.1.45-.13.54-.02.09-.07.3-.1.47s-.07.33-.08.35c-.02.02-.04.12-.06.23-.01.1-.05.32-.09.48s-.08.4-.1.54c-.01.14-.06.43-.09.66-.04.23-.08.61-.11.85s-.07.7-.11,1.03c-.07.67-.13,2.1-.13,3.32,0,1.79.1,3.25.33,4.94.04.34.08.69.08.76,0,.14.02.31.1.68.02.12.07.36.09.56.06.44.07.46.1.54.01.03.04.14.07.25.04.18.07.29.12.56.01.07.04.14.07.17.02.02.04.07.04.12,0,.14.51,2.06.6,2.29.01.03.02.09.02.12,0,.02.01.05.04.05s.04.03.02.06c-.01.03,0,.06.02.06.03,0,.04.04.04.09,0,.06-.02.08-.08.07-.03-.05-.2-.08-.37-.11Zm68.5-.62c-.11-.11-.12-.13-.07-.25.08-.18.06-.62-.04-1.17-.05-.26-.1-.63-.11-.83-.03-.36-.03-.37.18-.92.11-.31.24-.57.27-.58.11-.04.33.09.55.33.26.29.36.48.43.76.1.43.11.59.03.81-.05.14-.07.29-.06.42.02.18.05.23.26.43.2.19.26.22.39.22.08,0,.2-.03.26-.06.21-.11.37-.08.58.12l.2.18-.29.02c-.35.02-.57.13-.85.4l-.22.21-.44-.02c-.25-.01-.53,0-.64.02-.31.04-.3.05-.43-.09Zm3.63-.29c-.3-.05-.54-.17-.44-.23.03-.02.35-.03.71-.04h.65l.28-.25c.21-.2.32-.26.48-.3.11-.03.23-.04.26-.03.03.01-.15.14-.38.29-1.08.66-1.02.64-1.56.56Zm-3.15-4.9s-.06-.07-.07-.13c-.07-.31-.43-.4-.75-.19l-.17.1-.36-.11c-.34-.1-.38-.13-.78-.49-.45-.42-.58-.5-.92-.57-.12-.02-.28-.09-.34-.14l-.11-.09.12-.13c.07-.07.16-.15.21-.18.09-.05,1.47-.2,1.8-.2.38,0,.42.05.55.63.12.52.24.61,1.17.88.3.09.56.17.57.17.01.01-.02.09-.06.18-.06.13-.07.18-.03.25q.05.09-.36.07c-.24-.02-.45-.04-.47-.05Zm1.92-.64c.06-.16.37-.41.5-.41.1,0,.19.17.19.33,0,.1-.25.2-.51.2h-.23l.05-.12Zm2.26-.27c-.11-.02-.2-.05-.2-.07s.04-.12.1-.22l.1-.17.66-.17c.37-.09.72-.17.78-.18.14-.02.56.26.56.36s-.19.26-.38.31c-.1.02-.22.07-.28.1-.12.06-.94.09-1.34.04Zm-8.96-1.01c-.22-.04-.36-.04-.55-.01q-.37.07-.3-.07c.08-.15.08-.24,0-.38-.1-.18-.29-.26-.73-.28-.24-.01-.39-.04-.39-.07-.01-.1.02-.21.07-.24.03-.02.27-.03.54-.03.69,0,.92-.05,1.11-.25.27-.27.62-.32.75-.1q.06.11.48.08c.66-.05.95.07.82.31-.08.15-.32.24-.63.24-.18,0-.29.02-.33.06-.08.07-.14.4-.1.56.02.08.01.15-.03.19-.06.08-.18.08-.71-.01Zm11.16-.34c-.06-.09-.48-.24-.68-.24-.11,0-.41.05-.68.12s-.49.12-.5.11c-.02-.02.18-.45.36-.79.08-.16.17-.34.18-.41l.03-.11.16.13c.43.36.96.45,1.62.27.22-.06.43-.1.47-.08.06.02.07.09.07.35v.32l-.37.09c-.24.06-.4.13-.47.19-.11.11-.15.12-.19.05Zm2.35-.58s-.17-.01-.3.01l-.24.03.03-.5c.03-.58-.01-.65-.34-.65-.11,0-.21-.02-.22-.04-.05-.08-.6-.05-.97.06-.43.12-.44.12-.69.01-.15-.07-.33-.22-.65-.57-.24-.26-.49-.51-.55-.55s-.29-.12-.52-.17c-.23-.06-.68-.19-1.01-.29s-.65-.19-.71-.2c-.11-.02-.11-.04-.08-.12.02-.05.1-.29.16-.53.1-.36.12-.52.13-.95v-.52l-.25-.35c-.2-.28-.3-.39-.53-.52-.33-.21-.44-.22-.77-.07-.13.05-.38.12-.57.14l-.34.04-.15-.14c-.22-.19-.34-.24-.53-.22-.13.02-.18.01-.24-.06-.12-.13-.37-.26-.42-.23-.03.02-.1-.02-.16-.07-.26-.22-.51-.25-.81-.09-.29.15-.4.32-.36.57.03.22-.02.32-.18.32-.13,0-.18-.07-.21-.26-.01-.09-.11-.3-.22-.48-.15-.23-.2-.36-.21-.48-.02-1.74-.03-1.7.2-1.98.07-.09.23-.23.36-.31.26-.18.34-.31.39-.58.03-.17.05-.2.2-.26.27-.11.38-.26.51-.66.07-.2.2-.52.29-.7.17-.32.17-.35.15-.67-.02-.35-.11-.59-.29-.74l-.09-.08.1-.11c.32-.33.47-.61.47-.84,0-.17-.21-.88-.37-1.25-.05-.11-.16-.24-.34-.37-.25-.19-.29-.24-.68-.99-.26-.49-.59-1.02-.87-1.41-.33-.46-.64-.96-1.1-1.83-.35-.66-.68-1.23-.72-1.27-.09-.07-1.16-.81-1.83-1.26-.26-.17-.65-.44-.86-.59-.44-.31-.37-.16-.65-1.49-.18-.86-.19-1.03-.28-4.2l-.05-1.74-.14-.48c-.07-.26-.16-.57-.19-.68-.04-.14-.05-.22-.02-.25.07-.06.05-.19-.03-.28-.05-.05-.06-.09-.02-.16.07-.12.06-.3-.02-.41-.07-.09-1.1-.75-1.96-1.24-1.1-.64-2.88-1.53-4.04-2.03-.22-.1-.4-.19-.4-.22,0-.08.28-.5.37-.55.05-.03.19-.08.31-.11.12-.02.24-.07.27-.08.03-.02.26.06.58.21.29.14.55.25.58.25.02,0,.04.02.04.04s.04.04.08.04c.05,0,.1.02.11.04s.2.12.41.21c.22.1.4.19.41.21.01.02.09.06.18.1.26.12.51.24.53.27.03.03.32.19.51.27.08.03.15.08.15.1s.03.04.07.04.07.01.07.03.07.06.14.09c.08.03.18.09.23.13.05.04.11.07.12.07.02,0,.16.07.3.17.15.09.3.18.34.19.04.02.11.06.15.09.07.07.15.12.41.25.07.04.17.1.22.14s.18.12.29.18c.11.06.24.15.29.21.05.05.11.09.13.09s.13.05.23.11c.11.07.22.14.26.17.04.02.15.11.25.19.1.08.34.25.53.38.43.29.68.51.68.61,0,.04.05.22.11.4.1.31.11.43.15,2.04.09,2.95.12,3.54.22,3.95.05.21.14.64.21.97.14.66.16.71.54.96.27.18.61.41,1.19.81.2.14.5.33.66.44.29.19.55.38.8.56.13.1.15.13.88,1.48.26.48.51.94.58,1.03.06.09.13.2.16.24.02.04.19.28.38.54.18.26.52.82.75,1.25.35.65.45.81.62.96.12.09.23.17.25.17.06,0,.16.24.33.74.22.67.21.71-.17,1.14-.3.33-.31.43-.07.67.15.16.18.21.2.45.03.24.02.31-.07.49-.15.32-.33.76-.43,1.04-.08.23-.1.25-.35.37l-.26.12-.04.27c-.04.26-.05.27-.34.5-.33.25-.6.61-.61.81-.02.39.02,1.91.05,1.98.02.05.08.14.13.21.17.25.22.35.27.55.06.26.2.38.46.38.15,0,.21-.02.33-.13.13-.12.14-.15.12-.37-.01-.26.03-.34.23-.44s.29-.07.64.22l.34.28h.69l.64.6c.35.33.66.61.68.61s.1.05.17.11c.13.1.14.12.14.41v.3l.25.27c.15.17.29.38.37.55.09.21.15.29.22.31.42.11.8.22.99.28.12.04.38.11.57.16.81.2.79.19,1.17.6.2.2.42.44.5.52.19.2.54.36.77.36h.18l-.03.16c-.01.09-.04.19-.05.23-.02.04,0,.07.04.07.05,0,.07.05.07.27,0,.16-.02.27-.05.27s-.03.01-.02.03c.02.01.01.05-.02.08s-.05.21-.06.4c0,.19-.01.36-.02.38,0,.02-.1-.03-.22-.11-.13-.03-.25-.11-.29-.12Zm-5.95-1.83c-.19-.13-.33-.24-.32-.25s.19.04.4.11c.21.07.58.17.81.24l.43.12-.24.02c-.13.02-.35.02-.49.02-.23-.02-.29-.05-.59-.26Zm-7.32-2.15c-.07-.1-.07-.11.09-.33.14-.19.16-.25.14-.36-.02-.12,0-.16.19-.36l.22-.22.28.23c.33.27.55.41.67.41.05,0-.05.06-.22.13s-.41.2-.54.3c-.34.26-.45.31-.61.31-.11-.01-.16-.04-.22-.11Zm-1.09-.48c-.07-.07-.26-.19-.42-.25-.24-.1-.38-.13-.95-.17-.54-.04-.7-.07-.9-.15-.29-.13-.48-.17-.48-.12,0,.09-.4.2-1.07.29-.77.1-.93.08-.59-.09.24-.13.28-.27.1-.41-.07-.05-.14-.09-.17-.09s-.15-.07-.27-.16c-.15-.11-.23-.21-.27-.33-.04-.09-.1-.18-.14-.19-.04-.01-.15-.08-.23-.14-.09-.07-.29-.18-.45-.26-.28-.14-.29-.15-.48-.49l-.19-.35-.52-.27c-.83-.43-.79-.41-1.55-.45-.38-.02-.75-.05-.82-.06s-.24-.11-.37-.22c-.14-.11-.41-.31-.61-.46-.38-.29-.46-.4-.51-.77-.02-.12-.06-.33-.1-.48-.06-.26-.08-.29-.31-.48l-.25-.21v-.72l-.29-.17c-.47-.29-.49-.31-.54-.43-.04-.1-.07-.12-.19-.12-.08,0-.19.02-.26.05-.1.04-.18.02-.65-.19-.3-.13-.69-.29-.87-.34l-.33-.11-.04-.22c-.05-.26-.12-.31-.43-.35-.13-.02-.38-.07-.56-.12-.27-.07-.42-.08-.82-.06-.3.01-.55.04-.64.08-.18.07-.23.06-.59-.19-.12-.08-.28-.19-.36-.24-.18-.12-.66-.53-1.05-.87-.3-.27-.43-.34-.84-.44-.1-.02-.2-.06-.23-.08-.07-.05-.49-1.19-.49-1.33,0-.06.07-.22.16-.37.08-.15.3-.58.49-.97.26-.54.43-.83.73-1.24.22-.29.51-.69.66-.88l.26-.35v-.89c0-.91.04-1.29.28-2.38.04-.16.11-.49.16-.74.15-.72.17-.76.47-1.18.26-.37.31-.42.71-.67.33-.21.55-.31.94-.43.28-.09.57-.2.65-.26.07-.05.15-.09.16-.09.02,0,.71-.43,1.28-.8.39-.25.44-.45.31-1.16-.07-.35-.06-.38.03-.74.1-.4.51-1.25.69-1.42.07-.07.15-.09.27-.09.22,0,.25-.05.4-.58.05-.19.22-.62.36-.96.26-.6.27-.61.64-.96.21-.2.42-.37.47-.38s.28.01.51.05c.87.14.92.13.84-.12-.07-.18-.21-.36-.29-.36-.1,0-.28-.18-.31-.3-.01-.07-.01-.12.01-.12.06,0,1.74.78,2.35,1.1.79.4,1.94,1.05,2.67,1.49l.62.38.03.34c.03.29.19.98.37,1.56.03.07.07,1.07.09,2.21.05,2.29.1,3.07.19,3.46.04.14.13.57.21.95.07.38.17.76.22.85.08.18.24.31.88.75.2.13.5.33.67.45.18.12.44.3.6.41.88.58,1.03.71,1.14.91.06.11.35.64.63,1.17.29.54.61,1.09.71,1.23.5.67.75,1.06,1.14,1.78.38.72.44.81.73,1.08.17.16.31.31.31.34s.05.19.11.35.11.33.11.38c0,.09-.13.28-.34.49-.12.12-.15.19-.18.38-.04.32.01.51.18.68.22.24.23.32.03.72-.1.19-.21.46-.25.61-.07.22-.1.27-.23.33-.28.12-.44.3-.47.53-.04.26-.04.27-.31.46-.13.09-.32.31-.46.51l-.24.35v.94c-.03,1.05.02,1.48.15,1.65.05.07.09.13.09.15s-.1.05-.23.06c-.26.03-.43.14-.81.52-.27.27-.37.44-.37.63,0,.1-.05.21-.15.34-.07.11-.15.2-.16.2s-.11-.12-.18-.19Zm2.15-2.32s.03-.02.03.02c0,.05-.01.07-.02.05-.02,0-.03-.04-.01-.07Zm-48.99-.51c-.26-.09-.4-.23-.56-.55-.26-.51-.29-.56-.44-.66-.17-.1-.18-.11-1.33-.02l-.33.02-.21-.18c-.11-.09-.22-.21-.24-.25-.03-.04-.02-.33.02-.73.06-.62.07-.69.26-1.11.11-.24.21-.51.23-.58q.07-.3-1.06-1.84c-.5-.69-.52-.74-1.15-2.21l-.37-.88.09-.17c.05-.09.09-.21.09-.26s-.08-.29-.18-.55c-.18-.46-.18-.48-.16-.86.03-.47.11-.71.46-1.43.15-.29.33-.75.41-1.01.14-.44.15-.51.14-1.01-.02-.93-.04-1.04-.45-1.82-.61-1.19-1.19-2.45-1.23-2.69-.02-.12-.04-.45-.05-.72v-.5l.15-.17c.3-.35,1.94-1.89,2.02-1.89.05,0,.13.11.26.34l.18.34.03.81c.02.44.04.9.07,1.02.04.21.68,1.61,1.16,2.52q.46.88.51,1.56c.05.65.04.76-.15,1.37-.11.37-.15.46-.44,1.04-.32.63-.37.84-.4,1.37-.02.37-.01.52.04.65.04.09.12.3.18.47l.12.31-.09.17c-.05.09-.09.21-.09.26s.15.44.33.86c.65,1.54.73,1.69,1.21,2.34.99,1.36,1.04,1.43,1.03,1.59,0,.08-.1.37-.21.63s-.22.58-.22.68c-.14,1.36-.14,1.35.22,1.66.3.26.33.26,1.16.22.72-.05.73-.05.83.05.06.05.15.19.19.31.17.43.51.84.7.84.12,0,0,.07-.47.26-.25.11-.54.24-.64.3-.33.16-1.24.23-1.62.1Zm-3.37-2.67s.03-.02.03.02c0,.05-.01.07-.02.05-.02-.01-.02-.04-.01-.07Zm54.07-2.94s.02-.01.02.05-.01.08-.02.05c-.01-.02-.01-.07,0-.1Zm-57.06-14.1s.02-.01.02.05-.01.08-.02.05c0-.02,0-.07,0-.1Zm49.93-2.11s.02-.01.02.05-.01.08-.02.05v-.1Zm2.17-3.79c-.11-.08-.29-.21-.4-.3-.11-.08-.36-.25-.56-.37s-.48-.3-.62-.39-.37-.23-.51-.31c-.14-.08-.29-.17-.33-.21-.05-.04-.17-.12-.28-.17-.11-.06-.24-.14-.29-.17-.05-.02-.2-.11-.33-.19s-.37-.22-.53-.31c-.53-.32-1.21-.68-2.42-1.27-.22-.11-.39-.2-.37-.2.07,0,1.46.59,2.16.93,1.28.6,2.34,1.17,3.57,1.91,1.09.65,1.25.76,1.25.85,0,.47.02.45-.34.2Z"/>
    <path id="path6" class="cls-1" d="m200.44,51.18s.26-.02.57-.04c.3-.01.6-.03.66-.04.06-.01.23-.03.37-.04.15-.01.32-.03.4-.04.07-.01.27-.03.44-.05s.34-.04.37-.05c.04,0,.15-.02.26-.03.3-.04.72-.1.82-.13.26-.05.31-.06.5-.08.11-.01.27-.04.35-.06.09-.02.25-.05.35-.06.11-.01.26-.04.34-.06.07-.02.15-.03.16-.02s.05,0,.08-.02.09-.05.12-.05c.1,0,.84-.17.95-.21.05-.02.16-.05.24-.06.08-.01.22-.04.31-.07.08-.02.18-.05.22-.06.3-.08.43-.11.48-.12.04-.01.11-.03.18-.06.06-.02.36-.11.66-.19.3-.08.61-.17.68-.19.28-.09,1.2-.38,1.39-.43.11-.03.3-.09.43-.14s.23-.07.23-.06c0,.02.03.01.06-.02.05-.04.37-.16.51-.19.04-.01.21-.07.37-.14.44-.18,1.26-.5,1.37-.55.11-.04.13-.1.06-.13-.04-.01-.15-.52-.2-.94-.01-.1-.03-.23-.04-.29-.02-.06-.04-.14-.05-.19-.05-.26-.15-.67-.22-.94-.04-.14-.1-.41-.15-.6s-.11-.39-.13-.43c-.06-.14-.1-.25-.11-.31-.01-.1-.2-.63-.29-.82-.04-.1-.08-.2-.08-.23s-.11-.29-.26-.57c-.27-.53-.51-1.03-.51-1.07-.01-.05-.29-.53-.39-.67-.06-.09-.11-.17-.11-.19s-.05-.09-.11-.16c-.06-.07-.1-.13-.08-.13s-.19-.29-.33-.44c-.02-.03-.04-.07-.04-.09s-.07-.11-.15-.2c-.08-.1-.15-.19-.15-.21s-.01-.05-.04-.06c-.02-.01-.11-.1-.21-.22-.46-.54-1.32-1.35-1.83-1.73-.21-.16-.4-.31-.44-.33-.16-.12-.79-.52-.99-.63-.12-.06-.23-.13-.24-.14-.01-.01-.11-.07-.22-.12s-.29-.14-.4-.19c-.11-.06-.32-.15-.46-.21-.15-.06-.33-.14-.4-.17-.18-.07-.4-.15-.4-.14,0,0-.08-.03-.18-.08s-.22-.09-.27-.09-.1-.02-.11-.04c-.02-.02-.05-.03-.07-.02-.02.02-.04,0-.04-.02s-.03-.05-.06-.05c-.06,0-.53-.14-.69-.19-.1-.04-.06-.03-.95-.22-.53-.11-.57-.12-.9-.17-.36-.05-.6-.08-.72-.11-.23-.04-.84-.1-1.3-.12-.28-.02-.51-.03-.52-.04-.03-.02.12-.13.33-.23.11-.05.19-.1.19-.12s.04-.03.09-.03.09-.02.09-.03c0-.02.13-.12.29-.22.17-.1.33-.21.36-.24s.07-.05.09-.05.09-.05.16-.1c.07-.06.15-.1.16-.1s.06-.02.09-.05c.03-.03.15-.12.28-.19.12-.08.23-.15.24-.17.01-.01.14-.1.29-.21.23-.17,1.24-.94,1.37-1.05.03-.02.17-.14.32-.27.15-.12.4-.34.54-.47.25-.22.26-.24.19-.29-.04-.03-.11-.11-.15-.18-.16-.29-.35-.58-.81-1.22-.03-.04-.11-.14-.17-.23-.07-.08-.18-.23-.26-.33-.35-.46-1.21-1.34-1.67-1.7-.12-.1-.27-.22-.33-.26-.06-.05-.21-.16-.35-.25s-.3-.21-.37-.26-.13-.09-.15-.09c-.04,0-.4-.22-.42-.26-.01-.02-.04-.03-.06-.03s-.27-.1-.55-.23c-.27-.12-.51-.23-.52-.23s-.07-.02-.15-.05c-.07-.02-.13-.05-.15-.05-.01,0-.08-.02-.15-.05-.49-.17-.98-.29-1.67-.39-.58-.09-1.97-.08-2.6.02-.07.01-.24.03-.37.05-.2.02-.51.08-1.12.21-.09.02-.5.12-.75.19-.18.05-.41.12-.59.19-.08.04-.19.07-.25.08-.11.02-1.66.63-1.69.67-.01.02-.14.07-.29.13-.15.05-.29.12-.33.15-.04.03-.18.11-.33.18-.4.19-.73.37-.97.52-.12.08-.27.16-.34.19-.07.03-.12.06-.12.08s-.04.04-.08.06c-.04.01-.11.05-.16.07-.15.09-.53.34-.55.36-.04.04-.66.41-.69.41-.01,0-.1.07-.18.14-.09.08-.18.14-.19.14s-.07.04-.13.08c-.06.05-.19.14-.29.22-.11.07-.26.19-.36.26-.09.07-.18.12-.21.09-.08-.06-.48-.25-.52-.25-.03,0-.08-.02-.11-.05s-.07-.05-.08-.05c-.04,0-.49-.21-.58-.27-.04-.02-.18-.09-.33-.16-.58-.26-.63-.29-.68-.43-.07-.19-.5-.88-.69-1.11-.08-.1-.18-.23-.21-.28s-.07-.09-.08-.09c-.02,0-.11-.1-.2-.22s-.26-.29-.37-.38c-.11-.1-.3-.27-.44-.39s-.33-.28-.44-.35c-.11-.07-.33-.23-.5-.36s-.37-.28-.44-.34c-.08-.06-.26-.19-.4-.31-.15-.11-.41-.31-.59-.43-.18-.12-.41-.3-.52-.39-.11-.1-.28-.21-.37-.26s-.16-.11-.16-.13-.12-.12-.28-.21c-.15-.09-.28-.19-.29-.21-.01-.02-.15-.12-.31-.23-.28-.17-.83-.56-.98-.69-.17-.14-.44-.32-.46-.32s-.12-.07-.22-.15c-.1-.09-.41-.31-.69-.49-.27-.18-.54-.37-.6-.42s-.16-.12-.22-.16c-.07-.04-.23-.14-.37-.24-.14-.09-.37-.25-.5-.34-.14-.09-.35-.25-.48-.34-.25-.18-.67-.46-1.23-.82-.17-.11-.39-.25-.48-.33-.1-.07-.34-.24-.55-.36s-.42-.27-.48-.31c-.06-.05-.34-.22-.62-.4-.28-.17-.51-.33-.53-.34-.04-.03.49.03,1.5.18,2.83.41,5.12.96,6.27,1.49.29.14.68.31.86.38s.43.18.55.24c.81.38,2.68.97,3.96,1.25,2.25.49,4.34.54,6.45.15,5.2-.97,10.15-4.01,14.46-8.89.82-.93,2.26-2.8,2.26-2.94,0-.05-.34-.33-.98-.81-3.57-2.71-7.14-4.01-10.68-3.9-.84.02-1.27.07-2.02.21-1.65.32-3.14.91-4.95,1.96-.22.12-.42.25-.44.28-.03.02-.16.12-.31.21-.15.09-.42.28-.61.42-.19.14-.36.25-.37.24,0-.01.03-.12.07-.25.11-.31.46-1.58.59-2.2.25-1.14.53-3.1.48-3.38q-.03-.15-.54-.32c-1.13-.37-2.24-.62-3.26-.73-.62-.07-1.75-.08-2.39-.02-2.75.25-5.18,1.85-6.93,4.57-.83,1.3-1.61,3.12-2.1,4.9-.21.76-.55,2.3-.55,2.46,0,.05-.02.1-.04.11-.06.04-2.83.64-3.81.83-.53.1-1.05.21-1.14.23-.1.02-.49.09-.88.16l-.7.12-.5-.26c-.27-.14-.52-.26-.56-.26-.03,0-.08-.03-.11-.06s-.07-.06-.1-.06-.1-.03-.16-.07c-.17-.11-.49-.27-2.38-1.2-1.21-.59-2.28-1.08-2.36-1.08-.04,0-.12-.03-.18-.07-.07-.04-.27-.14-.45-.21-.18-.07-.45-.19-.59-.25-.15-.07-.37-.16-.51-.21-.13-.05-.34-.13-.46-.18-.19-.08-.4-.16-.7-.27-.05-.02-.18-.07-.29-.12-.11-.05-.37-.14-.57-.22-.21-.07-.48-.16-.59-.21-.62-.22-.99-.34-1.14-.38-.1-.03-.22-.07-.29-.09-.27-.11-.98-.34-1.21-.4-.1-.02-.26-.07-.37-.11-.11-.04-.31-.1-.44-.14-.13-.03-.37-.1-.53-.15-.52-.16-1.32-.38-2.13-.59-.43-.11-.62-.16-1.52-.36-.18-.04-.51-.12-.73-.17s-.48-.1-.59-.12c-.24-.04-.8-.14-1.2-.24-.16-.03-.4-.07-.55-.09-.14-.02-.42-.06-.63-.1s-.51-.09-.68-.11c-2.09-.29-3.31-.42-5.46-.55-1.14-.07-4.56-.07-5.79,0-.52.03-1.11.06-1.32.07-.2.01-.38.02-.4.04-.01.01-.36.05-.75.08-.4.03-.88.09-1.07.12-.19.04-.45.07-.57.08s-.38.05-.57.08c-.19.04-.48.08-.64.1-.16.02-.44.07-.62.1-.18.04-.44.09-.57.11-.13.02-.3.06-.38.08-.07.02-.17.04-.22.04-.09,0-.94.18-1.28.27-.12.03-.29.07-.37.08-.08.02-.29.06-.46.1-.29.07-.51.13-1.14.27-.14.03-.29.08-.34.1-.04.02-.17.06-.27.08-.11.02-.25.06-.32.08s-.46.14-.86.25c-.4.12-.81.25-.92.29-.1.05-.22.08-.26.08s-.15.04-.24.08c-.09.05-.21.08-.26.08-.06,0-.14.03-.18.06-.05.03-.12.06-.15.06-.08,0-1.11.35-1.49.5-.11.04-.2.07-.22.07s-.12.04-.22.08c-.1.05-.2.08-.22.08-.03,0-.15.05-.28.1s-.36.15-.52.21c-.16.06-.4.16-.53.22-.13.06-.33.14-.44.18s-.26.1-.33.14-.16.07-.19.07c-.05,0-.39.14-1.17.49-.15.07-.39.17-.55.24-.55.24-.68.3-.79.36-.06.03-.32.15-.57.27s-.53.24-.62.29-.29.14-.46.22c-.17.08-.5.24-.73.35-.23.12-.56.28-.73.36s-.34.17-.37.19c-.04.02-.11.06-.18.08-.06.02-.21.1-.33.17s-.37.19-.56.29-.4.21-.48.26c-.07.05-.26.15-.4.22-.15.07-.45.24-.67.36-.22.12-.55.29-.73.38-.18.09-.42.22-.52.29-.11.07-.31.17-.45.24-.15.07-.37.19-.51.27-.14.09-.32.19-.4.24-.08.04-.27.15-.41.24-.14.09-.27.16-.28.16s-.11.06-.22.12c-.11.07-.2.12-.22.12-.01,0-.14.07-.28.17-.14.09-.27.17-.29.17s-.08.03-.15.08c-.14.09-.7.42-.81.48-.04.02-.22.12-.4.23-.17.1-.4.23-.5.29-.1.05-.4.23-.66.4-.27.16-.67.41-.89.54-.23.13-.66.39-.96.57s-.8.48-1.1.66-.77.47-1.04.64-.55.33-.62.37c-.14.07-.18.1-.77.45-.21.13-.48.29-.61.36-.12.07-.28.17-.35.21-.06.05-.25.16-.4.25-.16.08-.35.2-.42.25s-.15.1-.17.1-.1.05-.18.1c-.08.06-.16.1-.18.1s-.11.05-.19.12c-.09.06-.22.14-.29.17s-.25.14-.4.23c-.15.1-.37.22-.48.28-.12.06-.29.17-.38.24-.17.12-.65.39-.8.43-.04.02-.07.04-.07.05,0,.02-.14.1-.31.19-.17.09-.31.17-.31.19s-.02.03-.04.03c-.04,0-.55.29-1.21.67-.33.19-.73.41-.95.52-.11.06-.25.13-.31.17s-.22.12-.35.19c-.13.06-.25.13-.26.14-.01.01-.1.06-.2.11s-.46.24-.81.43c-.35.19-.65.34-.67.34s-.06.02-.09.05c-.03.02-.18.11-.32.18-.61.29-.84.41-.86.43-.01.02-.15.08-.31.15s-.32.14-.35.17c-.07.05-1.62.76-1.94.88-.06.02-.14.06-.18.08-.04.02-.22.11-.42.19-.19.09-.47.21-.62.27-.15.06-.5.21-.79.33s-.55.23-.57.25c-.03.02-.15.07-.26.1-.12.04-.31.11-.42.16-.11.05-.31.13-.44.17-.13.04-.29.1-.35.13-.15.07-1,.39-1.06.39-.03,0-.13.04-.23.08-.23.1-.95.36-1.22.44-.11.03-.24.07-.29.1-.05.02-.33.11-.62.2s-.7.22-.9.29-.4.13-.44.13-.12.02-.18.06c-.06.03-.22.08-.35.11s-.31.08-.39.12c-.08.04-.18.07-.22.07-.12.02-.41.11-.55.16-.07.03-.3.09-.5.13-.19.04-.36.09-.36.1,0,.02-.08.04-.19.06-.21.03-.45.09-.58.14-.09.04-.92.24-1.47.36-.16.03-.41.1-.57.14-.16.04-.46.11-.68.14-.22.04-.42.08-.46.1-.04.02-.32.07-.62.12s-.59.11-.64.13-.21.05-.35.07c-.73.12-.86.14-.88.17-.01.02-.1.04-.18.04s-.35.04-.58.09-.55.1-.73.12c-.17.02-.38.06-.48.08s-.25.05-.33.06-.52.07-.97.14-.93.13-1.07.15c-.14.01-.26.04-.28.06-.01.02-.04.03-.06.02-.02-.01-.66.05-1.44.14-.77.09-1.64.17-1.93.19-.29.01-.55.04-.57.05-.04.03-.84.09-1.87.14-.23.01-.53.04-.66.06-.13.02-.73.06-1.32.08s-1.41.06-1.82.08c-1.78.1-2.55.13-5.54.16-3.16.04-4.51.03-7.06-.01-.74-.02-2.1-.04-3.04-.05-.93-.01-1.7-.03-1.72-.04,0-.01-.63-.02-1.36-.04-.73-.01-1.97-.04-2.75-.06-4.2-.12-6.57-.18-10.32-.25-1.25-.02-2.77-.05-3.39-.06s-2.12-.04-3.34-.06c-1.22-.02-2.58-.05-3.03-.07l-.8-.02v5.38l.71.02c.4.01,1.12.03,1.62.05s2.19.06,3.76.1c1.57.05,4.26.12,5.98.17,3.39.09,4.11.11,8.4.27,1.6.06,2.87.12,2.89.14,0,.02.74.06,1.67.08.91.02,2.41.07,3.34.1,3.91.14,12.66.12,15.73-.03,2.34-.12,2.82-.15,2.97-.19.08-.02.4-.05.7-.06s.92-.06,1.36-.11c.44-.05.91-.08,1.03-.08.13,0,.34-.02.47-.06.13-.03.42-.07.63-.09.22-.01.67-.06,1.01-.1.34-.05.7-.09.79-.1.5-.06,3.34-.5,3.67-.57.11-.02.28-.06.37-.08.1-.02.32-.06.49-.08.18-.03.33-.06.34-.08.01-.02.13-.05.26-.06.12-.02.4-.07.6-.11.55-.12,1.91-.43,2.29-.53.18-.05.4-.1.5-.11.09-.01.23-.05.31-.08.07-.03.33-.1.58-.14.24-.05.5-.11.57-.13s.27-.08.44-.12.37-.1.45-.12.15-.03.15-.02.03,0,.06-.02.21-.08.4-.13.37-.1.4-.12.15-.06.29-.08c.13-.02.3-.07.37-.1s.26-.09.42-.14c.16-.05.46-.14.68-.22.22-.07.55-.19.75-.25s.48-.16.62-.2c.15-.05.29-.1.3-.12s.06-.04.09-.04c.06,0,.71-.23,1.05-.37.1-.04.26-.09.35-.12.1-.03.25-.09.33-.13.08-.05.17-.08.18-.08.04,0,.7-.26,1.13-.44.13-.05.24-.1.26-.1.04,0,.83-.33,1.45-.6.83-.36,2.35-1.07,2.93-1.36.13-.07.51-.26.85-.42.33-.17.71-.35.84-.42.13-.07.36-.19.51-.26s.4-.21.55-.29c.15-.08.31-.17.35-.18.05-.02.28-.14.51-.28.23-.13.44-.24.45-.24s.2-.11.41-.24c.22-.13.44-.27.51-.3.06-.03.26-.14.43-.25.17-.1.4-.23.5-.29s.33-.19.51-.3.33-.2.34-.2.11-.05.21-.12c.27-.17.97-.6,1.02-.62.02-.01.3-.18.62-.38.31-.2.78-.49,1.03-.64.26-.16.47-.3.48-.31s.12-.08.24-.14c.18-.09.58-.35.79-.5.03-.02.11-.07.2-.11.08-.05.29-.17.46-.29.38-.25.89-.57.99-.63.06-.03.76-.48,1.06-.67.04-.02.3-.19.58-.36.28-.17.66-.42.86-.55.19-.12.43-.28.53-.34.1-.06.26-.17.35-.24.1-.07.2-.14.22-.15s.46-.28.96-.6.98-.61,1.05-.65c.08-.05.27-.17.43-.27.16-.11.47-.31.7-.44.22-.14.55-.34.71-.45.17-.11.4-.26.53-.33s.35-.21.51-.31c.15-.1.41-.26.57-.35.16-.09.44-.26.62-.38s.34-.22.35-.22c.03,0,.14-.07.94-.56.23-.14.45-.27.48-.29.04-.01.15-.08.26-.15s.24-.14.3-.17c.05-.02.12-.06.15-.09.03-.02.15-.1.27-.17s.25-.14.29-.16c.04-.02.23-.14.44-.25s.52-.29.7-.38c.18-.1.43-.24.55-.32.21-.13.33-.19.78-.43.08-.05.2-.11.26-.15.11-.07.44-.24,1.03-.54.53-.26.87-.43,1.32-.67.24-.12.6-.31.79-.41.45-.23,2.78-1.32,2.82-1.32.01,0,.27-.11.57-.25s.55-.25.57-.25.27-.1.88-.37c.1-.04.27-.11.4-.16.12-.05.41-.16.64-.25,1.27-.5,3.94-1.39,4.84-1.62.11-.02.26-.07.33-.1s.25-.08.4-.12.37-.1.51-.14c.13-.04.35-.09.48-.12s.39-.09.57-.14c.59-.15.94-.23,1.17-.26.12-.02.35-.06.51-.1s.38-.08.51-.1c.12-.02.4-.07.62-.11,1.05-.19,1.33-.23,1.5-.23.1,0,.38-.04.63-.08.25-.05.57-.08.7-.08.14,0,.48-.03.76-.06,1.46-.17,5.32-.19,7.48-.02,1.25.09,2.47.22,3.12.32.21.03.65.09.99.14s.85.13,1.14.19c.29.06.62.12.75.14.48.08,1.12.21,1.61.33.46.11.71.17,1.45.36.13.04.42.11.64.16.6.14,1.12.29,1.83.51.35.11.85.27,1.12.35.51.15.98.31,1.61.52.21.07.45.16.55.19.1.03.4.14.68.25s.59.23.7.27.27.1.35.14.44.18.78.31c.34.14.92.37,1.28.52s.79.33.96.4c.17.07.72.33,1.23.58.51.24,1.05.5,1.21.58.16.07.5.25.77.39.26.14.64.34.84.43.9.45,1.47.75,1.72.91.1.06.3.17.46.24.15.07.34.18.42.23.13.09.77.45,1.04.59.07.03.14.08.17.12.03.03.07.06.09.06.04,0,.48.25.52.29.01.01.12.08.24.14.12.07.42.24.66.39.24.15.51.31.59.36s.41.25.73.44c.31.19.65.39.75.45.1.05.25.15.33.22.08.06.46.31.84.55.37.24.76.48.85.55.1.06.22.14.27.17.45.29.88.57,1.1.74.15.11.39.28.55.38.15.1.41.27.57.38.16.11.37.25.47.31.1.07.34.24.55.38.2.15.42.31.48.35.06.05.3.21.52.37.22.16.47.33.55.38s.17.12.2.14.15.11.25.18c.15.1,1.2.86,1.87,1.36.09.07.37.27.62.45s.51.38.59.44c.07.06.2.16.29.21s.34.26.56.45c.49.42,2.6,2.4,3.14,2.94.57.58.92.94,1.05,1.08.06.07.19.21.29.3s.25.25.33.35.18.21.22.25.27.29.51.58c.24.29.44.52.46.54.01.01.08.1.16.21s.18.23.23.29c.05.05.09.11.09.12s.06.09.14.17c.07.08.16.2.2.27s.13.19.19.27c.07.08.13.17.13.18,0,.02.17.26.22.31.06.06.41.65.42.72,0,.02.09.2.18.4.1.19.25.51.34.7s.18.36.21.38.03.03.01.03c-.03,0-.03.01,0,.03.02.02.12.19.22.38.1.19.19.36.21.37.02.01.07.11.12.22.05.1.12.21.15.24.04.03.07.09.09.14.02.09.18.36.34.6.04.06.09.14.11.17.02.03.15.24.31.45.15.21.28.41.28.42,0,.02.02.04.04.04s.04.02.04.04.04.07.07.12c.09.09.26.28.45.52.33.41.57.69.75.87.4.4,1.26,1.2,1.49,1.38.12.1.27.22.33.27s.16.12.23.17.18.13.26.19c.25.19.44.31,1.06.69.51.31,1.44.81,1.52.82.01,0,.18.07.36.16.18.08.36.15.38.15s.07.03.1.06.07.05.09.04.11.02.2.06c.08.05.18.08.2.08s.14.04.25.09.22.1.25.1c.02.01.24.08.48.16.24.08.46.15.49.16.03,0,.07.02.08.04.02.02.08.03.13.03.06,0,.11.02.12.03.01.02.14.06.28.09.14.03.27.07.3.08.04.03.17.06.44.11.07.01.29.06.48.11.19.05.42.09.51.1.08.01.22.04.31.06.19.05.59.12.77.14.11.01,1.07.14,1.58.21.18.02,1.23.1,1.86.13.96.05,2.75.03,3.85-.05.47-.03.93-.07,1.12-.09.17-.02.22-.02.66-.07.12-.02.3-.03.4-.05.44-.05.66-.08,1.25-.17.35-.05.68-.1.73-.12.05-.01.22-.04.37-.06.16-.02.36-.06.44-.09.08-.02.18-.04.22-.04.12,0-.05.07-.26.1-.11.02-.22.04-.24.05-.03.02-.09.03-.15.04-.06,0-.14.02-.18.04-.04.01-.11.03-.18.04-.06,0-.29.05-.51.1-.7.14-1.04.21-1.5.27-.24.03-.49.07-.55.08s-.29.04-.51.06c-.22.02-.48.05-.59.07s-.27.03-.35.04c-.08.01-.22.02-.29.04-.19.03-.55.06-1.12.09-.28.02-.67.04-.88.05-.82.05-3.05.02-3.35-.05-.06-.01-.28-.03-.5-.05-.22-.01-.63-.05-.92-.09s-.59-.07-.66-.08c-.34-.04-1.02-.15-1.47-.24-.28-.06-.55-.12-.59-.12-.53-.11-1.65-.42-2.42-.67-.41-.14-.52-.18-1.02-.39-.1-.05-.2-.08-.22-.08-.04,0-.7-.29-.72-.33-.01-.01-.05-.03-.08-.04-.21-.04-1.64-.83-2.05-1.13-.03-.02-.17-.12-.33-.23s-.31-.21-.34-.24c-.03-.02-.11-.09-.19-.14-.31-.22-1.42-1.23-1.71-1.55-.72-.79-.98-1.09-1.17-1.34-.1-.12-.2-.25-.23-.28s-.06-.07-.06-.09-.05-.09-.11-.15c-.15-.17-.17-.18-.29-.36-.06-.09-.11-.17-.13-.19-.04-.04-.22-.29-.22-.31,0-.01-.07-.12-.15-.24-.16-.24-.21-.32-.34-.52-.05-.08-.14-.22-.2-.31-.15-.24-.3-.53-.29-.57,0-.02,0-.03-.03-.03-.04,0-.12-.14-.26-.43-.04-.09-.09-.17-.11-.19-.03-.02-.22-.4-.34-.67-.06-.13-.17-.13-.15,0,.08.58.16,1.07.26,1.53.04.18.07.38.08.43,0,.06.02.13.03.17.04.1.26.92.27,1.01.01.05.05.17.09.27s.09.26.11.35c.05.21.33.96.39,1.03.02.03.05.11.07.17.02.07.12.3.23.51s.2.41.21.43c.02.08.18.36.2.36s.03.02.03.05c0,.06.48.85.57.93.03.03.06.08.06.1,0,.03.04.1.1.15.06.06.21.25.34.43s.25.34.26.35c.02.01.14.14.27.29.46.51,1.41,1.37,1.85,1.66.06.04.22.15.37.25.37.25.56.36.99.59.41.22,1.14.57,1.21.58.02,0,.14.05.26.1.12.05.26.1.31.12.18.07,1.28.41,1.41.43.07.01.36.07.64.13.77.15,1.54.27,2.18.33.17.02.37.04.44.05.17.13,2.98.16,3,.14Zm11.79-2.79s.03-.04.07-.04.05.02.04.04-.04.04-.07.04c-.02,0-.04-.02-.04-.04Zm.19-.07s.05-.02.08,0c.04.01.02.02-.03.02-.04.01-.07-.01-.05-.02Zm.21-.03s.07-.02.15-.04c.1-.02.11-.02.07.02-.07.03-.26.06-.22.02Zm-26.33-12.4c-.16-.17-.41-.41-.55-.55s-.42-.43-.62-.64c-.46-.49-.73-.76-.92-.95-.28-.28-.71-.76-.71-.8,0-.02-.03-.03-.07-.03s-.07-.01-.07-.03-.04-.08-.1-.13c-.05-.06-.26-.27-.45-.48s-.36-.38-.37-.39c-.01-.01-.13-.14-.26-.28-.22-.24-.23-.26-.17-.33.2-.21.22-.33.22-1.05,0-.38,0-.69.01-.69.08,0,.78.56,1.28,1.02.34.31.73.67.86.78.32.27,1.18.93,1.22.93.02,0,.08.04.15.1.18.16,1.13.7,1.58.91.64.29.91.41.98.41.04,0,.08.02.11.04.07.06,1.58.49,1.88.53.15.02.4.06.58.08.96.14,3.01.13,3.98-.02.06-.01.17-.02.24-.04.36-.05.72-.11.87-.14.09-.02.17-.03.17-.02s.03,0,.05-.01c.03-.02.08-.04.12-.04.04-.01.22-.05.42-.1.19-.05.44-.1.55-.13.11-.02.26-.07.33-.09.07-.03.16-.05.2-.06.07-.01.3-.08.52-.17.07-.03.16-.05.19-.05.05,0,.33-.1.69-.25.11-.05.22-.08.25-.08.06,0,.76-.28,1.11-.45.1-.05.45-.21.79-.36.34-.16.67-.32.73-.36.06-.04.14-.07.17-.06.05.02-.53.36-.62.36-.02,0-.04.02-.04.04s-.08.06-.18.09c-.1.03-.18.06-.18.08,0,.01-.15.09-.34.18-.18.09-.37.17-.4.19-.04.02-.15.08-.26.12-.11.05-.4.18-.65.29-.25.11-.46.2-.48.2-.01,0-.09.02-.16.06-.24.09-.83.3-1.13.39-.16.05-.35.11-.42.13-.17.05-.2.06-.59.16-.17.04-.58.1-.9.12-.59.05-.78.06-1.02.1-.07.01-.25.03-.4.04-.24.02-.34.03-.66.08-.08.01-.65.09-.88.12-.05.01-.19.04-.33.07-.22.05-.9.04-1.46-.02-.11-.01-.33-.03-.48-.05-.33-.02-.51-.05-.51-.06s-.04-.02-.09-.02-.22-.04-.37-.08c-.16-.04-.32-.07-.35-.08-.16-.03-1.08-.33-1.14-.36-.03-.02-.05-.03-.05-.01s-.08-.02-.19-.07c-.1-.05-.21-.1-.25-.1-.04-.01-.07-.03-.09-.05-.01-.02-.14-.08-.27-.13s-.3-.14-.37-.19-.14-.09-.15-.09c-.05,0-.35-.17-.68-.37-.19-.12-.4-.24-.45-.26-.05-.02-.12-.07-.15-.1s-.11-.09-.19-.14c-.14-.09-1.15-.84-1.36-1.02-.07-.06-.18-.15-.24-.2s-.21-.18-.34-.29c-.32-.29-.41-.28-.21.02.06.09.13.21.16.27.06.11.07.13.47.7.14.19.29.41.33.48.05.07.11.14.12.14.02,0,.04.03.04.06s.02.06.04.06c.03,0,.06.03.07.07.01.04.09.14.16.22.07.08.22.25.33.37.21.24.68.71.84.85.67.57,1.39,1.05,2.1,1.38l.23.11-.27.08c-.15.05-.42.12-.59.17s-.36.12-.42.14c-.14.12-.18.1-.54-.27Zm16.03-4.06s.11-.07.23-.12c.2-.09.22-.09.13-.02-.06.05-.13.08-.16.08s-.06.02-.06.04-.03.04-.07.04-.07,0-.07-.02Zm-28.83-15.98c-1.88-.22-3.82-.49-5.69-.79-2-.32-4.4-.76-4.48-.83-.03-.03,1.51-.34,2.33-.47,1.46-.22,2.26-.27,3.21-.2.91.07,2.55.07,3.29-.01,2.04-.2,3.81-.86,5.46-2.03,2.41-1.7,4.29-4.23,5.62-7.53.29-.74.64-1.79.8-2.42.05-.22.11-.4.11-.39.03.02-.15.78-.34,1.47-.47,1.7-1.23,3.5-2.05,4.88-.49.83-.7,1.1-1.15,1.55-.75.73-1.38,1.41-1.95,2.1-.69.83-2.26,1.77-3.79,2.25-.58.18-1.15.32-1.8.43-1.03.17-1.27.19-3.07.19-.6,0-1.07.01-1.06.03.1.09,1.75.57,2.43.71,1.14.23,2.1.3,3.02.24.59-.05,1.32-.16,1.52-.23.05-.02,0,.09-.16.35-.14.21-.3.48-.36.6-.16.3-.18.31-.34.29-.09-.02-.78-.1-1.55-.19Z"/>
    <path id="path8" class="cls-1" d="m186.43,23.49c.84-.08,1.99-.32,2.85-.6,2.39-.78,4.54-2.14,6.92-4.38,1.25-1.17,1.96-1.98,3.34-3.78,1.27-1.67,2.93-4.32,3.8-6.09.14-.28.05-.21-.17.14-.53.84-1.55,2.2-2.38,3.18-2.81,3.3-5.89,5.75-9.18,7.29-.77.36-.78.37-1.8.73-1.63.58-2.64.83-4.18,1.02-.73.09-2.87.11-3.5.02-1.75-.23-2.55-.41-4.55-1.05-1-.32-1.48-.49-2.26-.82-.27-.11-.49-.19-.48-.17.02.05.66.57,1.2.98,2.73,2.08,5.56,3.27,8.33,3.53.52.05,1.53.05,2.06,0Z"/>
  </g>
</svg>